<svg width="250" height="250" viewBox="0 0 250 250" fill="none" xmlns="http://www.w3.org/2000/svg">
<circle cx="125" cy="125" r="125" fill="#18191C"/>
<g clip-path="url(#clip0_255_892)">
<path d="M124.483 34L123.249 38.1463V158.462L124.483 159.68L180.957 126.667L124.483 34Z" fill="white"/>
<path d="M124.484 34L68.0088 126.667L124.484 159.68V101.282V34Z" fill="white"/>
<path d="M124.483 170.254L123.788 171.092V213.951L124.483 215.959L180.992 137.259L124.483 170.254Z" fill="white"/>
<path d="M124.484 215.959V170.253L68.0088 137.258L124.484 215.959Z" fill="white"/>
<path d="M124.482 159.679L180.956 126.668L124.482 101.283V159.679Z" fill="white"/>
<path d="M68.0088 126.667L124.483 159.68V101.282L68.0088 126.667Z" fill="white"/>
</g>
<defs>
<clipPath id="clip0_255_892">
<rect width="113" height="182" fill="white" transform="translate(68 34)"/>
</clipPath>
</defs>
</svg>
