<svg width="250" height="250" viewBox="0 0 250 250" fill="none" xmlns="http://www.w3.org/2000/svg">
<circle cx="125" cy="125" r="125" fill="#18191C"/>
<path d="M122 45C77.8219 45 42 80.8215 42 125C42 169.178 77.8219 205 122 205C166.182 205 202 169.178 202 125C202 80.8223 166.181 45 122 45ZM137.827 196.607C132.63 197.629 126.163 198.218 120.904 198.319C115.922 198.248 110.961 197.669 106.097 196.591C105.223 196.366 104.351 196.138 103.479 195.907L94.0881 170.74L101.644 155.769H142.357L142.576 156.183L150.015 171.126L140.931 195.85C139.902 196.125 138.867 196.378 137.827 196.607V196.607ZM96.4531 56.2615L118.538 71.3754V93.7396L91.2319 116.842L72.2308 108.185L70.6281 107.454L62.0388 82.8315C70.5038 70.83 82.4765 61.4731 96.4531 56.2615ZM181.832 82.7181L173.205 107.519L152.438 116.899L125.077 93.7396V71.3754L147.229 56.2158C161.215 61.4015 173.347 70.7358 181.832 82.7181V82.7181ZM48.9785 131.698L69.6538 113.806L88.7073 122.498L88.9223 122.596L96.5062 152.322L88.6473 167.141L61.7781 166.789C54.7212 156.65 50.1573 144.656 48.9785 131.698ZM155.353 167.14L147.494 152.322L155.091 122.546L174.321 113.784L195.022 131.698C193.843 144.656 189.278 156.65 182.223 166.788L155.353 167.14Z" fill="white"/>
</svg>
