<svg width="250" height="250" viewBox="0 0 250 250" fill="none" xmlns="http://www.w3.org/2000/svg">
<circle cx="125" cy="124.999" r="125" fill="#18191C"/>
<path d="M71.3415 184.413L59.4023 49.6162H190.597L178.646 184.392L124.92 199.385L71.3415 184.413V184.413Z" fill="#1572B6"/>
<path d="M125.001 187.926L168.415 175.81L178.628 60.6367H125.001V187.926Z" fill="#33A9DC"/>
<path d="M125.001 109.474H146.735L148.236 92.5446H125.001V76.0122H166.186L165.792 80.448L161.754 126.006H125.001V109.474V109.474Z" fill="white"/>
<path d="M125.098 152.409L125.026 152.431L106.735 147.459L105.565 134.274H89.0801L91.3803 160.233L125.023 169.631L125.098 169.61V152.409V152.409Z" fill="#EBEBEB"/>
<path d="M145.339 125.307L143.36 147.446L125.042 152.423V169.624L158.712 160.231L158.959 157.438L161.816 125.307H145.339Z" fill="white"/>
<path d="M125.057 76.0122V92.5446H85.3852L85.0562 88.8295L84.3081 80.448L83.915 76.0122H125.057V76.0122ZM125.001 109.476V126.009H106.941L106.612 122.293L105.862 113.912L105.471 109.476H125.001V109.476Z" fill="#EBEBEB"/>
</svg>
