<svg width="250" height="250" viewBox="0 0 250 250" fill="none" xmlns="http://www.w3.org/2000/svg">
<circle cx="125" cy="124.999" r="125" fill="#18191C"/>
<path d="M70.8008 185.766L58.7891 51H190.918L178.906 185.766L124.707 201" fill="#E34F26"/>
<path d="M125 189.281L168.652 177.27L178.906 61.8398H125" fill="#EF652A"/>
<path d="M125 111.938H103.027L101.562 94.9453H125V78.5391H83.3984L87.793 128.637H125V111.938ZM124.707 155.004L106.25 150.023L105.078 136.84H88.6719L90.7227 162.914L124.707 172.289V155.004Z" fill="#EBEBEB"/>
<path d="M124.707 111.938V128.637H145.215L143.164 150.023L124.707 155.004V172.289L158.691 162.914L163.379 111.938H124.707ZM124.707 78.5391V94.9453H164.844L166.309 78.5391H124.707Z" fill="white"/>
</svg>
