<svg width="250" height="250" viewBox="0 0 250 250" fill="none" xmlns="http://www.w3.org/2000/svg">
<circle cx="125" cy="124.999" r="125" fill="#18191C"/>
<path d="M100.666 198C114.098 198 125 187.099 125 173.667V149.333H100.666C87.2343 149.333 76.333 160.235 76.333 173.667C76.333 187.099 87.2343 198 100.666 198Z" fill="#0ACF83"/>
<path d="M76.333 125C76.333 111.568 87.2343 100.667 100.666 100.667H125V149.333H100.666C87.2343 149.333 76.333 138.432 76.333 125Z" fill="#A259FF"/>
<path d="M76.333 76.3333C76.333 62.9013 87.2343 52 100.666 52H125V100.667H100.666C87.2343 100.667 76.333 89.7653 76.333 76.3333Z" fill="#F24E1E"/>
<path d="M125 52H149.333C162.765 52 173.667 62.9013 173.667 76.3333C173.667 89.7653 162.765 100.667 149.333 100.667H125V52Z" fill="#FF7262"/>
<path d="M173.667 125C173.667 138.432 162.765 149.333 149.333 149.333C135.901 149.333 125 138.432 125 125C125 111.568 135.901 100.667 149.333 100.667C162.765 100.667 173.667 111.568 173.667 125Z" fill="#1ABCFE"/>
</svg>
