<svg width="496" height="152" viewBox="0 0 496 152" fill="none" xmlns="http://www.w3.org/2000/svg">
<path opacity="0.1" d="M248.387 119.949C373.184 119.949 474.351 115.715 474.351 110.494C474.351 105.272 373.184 101.039 248.387 101.039C123.59 101.039 22.4229 105.272 22.4229 110.494C22.4229 115.715 123.59 119.949 248.387 119.949Z" fill="#2A94F4"/>
<path d="M427.645 108.581H64.997C39.6028 108.581 19.0137 87.9923 19.0137 62.5981C19.0137 37.2039 39.6028 16.6147 64.997 16.6147H427.645C453.04 16.6147 473.629 37.2039 473.629 62.5981C473.629 87.9923 453.04 108.581 427.645 108.581Z" fill="white"/>
<path d="M31 62C31 42.1177 47.1178 26 67 26H427C446.882 26 463 42.1177 463 62V62C463 81.8823 446.882 98 427 98H67C47.1177 98 31 81.8823 31 62V62Z" fill="black"/>
<path opacity="0.15" d="M426.56 98.584H66.0815C46.2157 98.584 30.0957 82.464 30.0957 62.5981C30.0957 42.7323 46.2157 26.6123 66.0815 26.6123H426.586C446.452 26.6123 462.572 42.7323 462.572 62.5981C462.572 82.464 446.452 98.584 426.56 98.584Z" fill="#0E538C"/>
<path d="M119.583 123.9L124.698 137.618L132.81 138.315L136.969 137.695L128.263 134.931L124.233 122.247L119.583 123.9Z" fill="#FCD2B1"/>
<path d="M88.6348 94.7347L107.855 95.3806L123.071 134.286L128.108 133.097L114.623 86.6231C114.623 86.6231 113.667 84.0656 107.855 83.7039C102.223 83.3422 79.5156 81.2756 76.8806 81.8697C70.6548 83.3164 90.004 89.3614 88.6348 94.7347ZM83.029 34.1556C81.2465 37.4881 75.5631 36.1706 75.5631 36.1706C72.3856 34.2847 71.249 30.0739 73.0573 26.7414L74.2715 24.4681C76.054 21.1356 80.084 19.9472 83.2615 21.8331L84.7081 22.6856C87.8856 24.5714 89.4098 29.8156 85.664 33.3031L83.029 34.1556Z" fill="#0E538C"/>
<path d="M86.903 27C86.593 27.5425 86.2572 28.085 85.8439 28.6275C83.183 32.1408 79.3597 33.7683 76.7247 32.6833C75.7172 34.3883 74.5289 35.7833 73.3922 36.8683C72.1264 38.1342 69.543 38.7283 69.543 38.7283C67.683 41.1825 68.2255 48.6483 74.348 49.785C78.0164 50.4825 77.4997 46.3233 76.3372 43.6883C75.7947 42.4483 75.8205 41.7508 75.9755 41.105C76.5697 38.78 77.603 37.7467 78.9722 37.0233C79.7472 36.7133 80.4705 36.6875 81.0905 36.7392C82.4855 36.8942 83.8289 36.2483 84.5264 35.0342L86.6705 31.3142C87.4197 29.945 87.4455 28.3433 86.903 27Z" fill="#FFE3CA"/>
<path d="M100.492 125.632L100.26 135.009L101.965 137.36L106.615 140.589L105.917 136.017L104.212 134.802L104.29 124.96L100.492 125.632Z" fill="#FCD2B1"/>
<path d="M65.3322 73.9905L67.3213 79.8805L71.2738 80.6296L103.255 84.7629C103.255 84.7629 106.175 84.0138 107.75 88.8963C109.972 95.8454 105.038 133.795 105.038 133.795L100.285 133.433L99.1222 97.0079C99.1222 97.0079 67.9672 100.754 59.2355 97.3438C55.8772 96.0263 53.6297 89.5421 54.4822 83.2129C55.1538 78.2271 58.5897 73.8354 58.5897 73.8354L65.3322 73.9905Z" fill="#0E538C"/>
<path d="M80.3158 72.8799C80.6 64.3807 79.98 42.2932 76.0533 42.2932C75.6658 42.2932 75.3042 42.3966 74.9942 42.6032C73.78 42.3449 71.8425 40.9499 70.1375 38.5732H70.1117C70.1117 38.5732 63.7308 40.2007 61.3283 41.2082C59.675 41.9057 59.4425 64.4582 59.2358 65.6466C58.5125 69.8832 56.5492 74.6624 55.2833 77.9691C54.2758 80.6041 54.25 85.4349 54.25 85.4349C54.25 85.4349 59.0033 81.7407 64.5058 80.7591C67.0117 80.1907 75.5367 80.9916 76.1308 81.3016C76.6733 81.5858 76.0017 78.5374 75.9242 77.1424C76.5183 78.0466 77.8875 78.4599 79.1533 78.8216C82.7442 79.8291 98.5025 82.8257 98.5025 82.8257L101.215 81.8441L80.3158 72.8799Z" fill="#2A94F4"/>
<path d="M79.2829 75.1791C83.4679 76.0316 84.2946 78.8474 85.8187 79.8033C87.3687 80.7591 89.4096 81.5599 89.4096 81.5341C90.0554 81.0949 87.9629 79.8291 87.3946 79.1316C86.8262 78.4341 87.0846 78.2274 88.4279 78.9507C89.7196 79.6482 90.2879 81.0949 91.2179 82.1024C92.0187 82.9807 92.3287 82.3349 92.3287 82.3349C92.3287 82.3349 92.3804 79.9582 91.2179 78.5374C89.8229 76.8066 87.1362 75.9541 86.6712 75.6699C85.8446 75.1533 83.0804 74.5074 81.0396 74.3524C78.7404 74.1716 76.2862 74.5849 79.2829 75.1791Z" fill="#FCD2B1"/>
<path d="M62.1038 68.798L65.6171 48.7255C65.6171 48.7255 66.8055 44.0755 65.643 42.5513C64.248 40.743 61.4063 41.0788 61.4063 41.0788C61.4063 41.0788 57.9963 42.8872 56.8596 59.1105C56.0588 70.2189 55.5163 73.5255 60.0371 74.3005C64.2738 75.0239 82.1246 77.168 82.1246 77.168L83.1321 74.3005L62.1038 68.798Z" fill="#2A94F4"/>
<path d="M87.3418 81.9218L115.345 83.6527L115.371 83.0585L87.3676 81.3276L87.3418 81.9218Z" fill="white"/>
<path d="M99.7173 82.0507C99.6915 82.5157 100.001 82.9033 100.389 82.9291L114.752 83.8333C115.14 83.8591 115.682 83.6007 116.225 82.4382L124.078 69.2632C124.104 68.6691 123.691 68.2816 123.303 68.3591L108.552 67.9199C108.165 67.9974 107.829 68.2816 107.571 68.9016L99.7173 82.0507Z" fill="white"/>
<path d="M101.422 82.7997H101.267L87.2393 81.9214C87.7301 82.2314 88.5568 82.4639 89.5126 82.5156L101.241 83.2389H101.396L113.124 83.9622C114.08 84.0139 114.933 83.8847 115.449 83.6522L101.422 82.7997Z" fill="#B1DFFC"/>
<path d="M81.6852 23.3057C81.7885 23.3316 86.7227 18.294 80.8585 16.744C75.8985 15.4265 74.0127 22.1949 81.6852 23.3057Z" fill="#0E538C"/>
<path d="M100.259 135.009C100.259 135.009 100.827 136.456 105.916 136.017C105.916 136.017 107.88 137.954 110.489 137.748C113.098 137.541 113.279 139.943 113.279 139.943L113.305 141.442L99.1738 140.615V136.12C99.1738 135.5 99.6647 135.009 100.259 135.009ZM123.922 135.578C123.922 135.578 124.801 136.869 129.683 135.345C129.683 135.345 132.008 136.818 134.514 136.068C137.02 135.293 137.717 137.618 137.717 137.618L138.053 139.091L124.077 141.261L123.121 136.869C122.966 136.275 123.354 135.707 123.922 135.578Z" fill="#1C4454"/>
<path opacity="0.1" d="M62.1038 68.7985L65.6171 48.726C65.6171 48.726 66.8055 44.076 65.643 42.5518C64.248 40.7435 61.4063 41.0793 61.4063 41.0793C61.4063 41.0793 57.9963 42.8876 56.8596 59.111C56.0588 70.2193 55.5163 73.526 60.0371 74.301C64.2738 75.0243 82.1246 77.1685 82.1246 77.1685L83.1321 74.301L62.1038 68.7985Z" fill="#F7F7F7"/>
</svg>
