<svg width="146" height="114" viewBox="0 0 146 114" fill="none" xmlns="http://www.w3.org/2000/svg">
<path d="M131.297 0H14.5886C6.56486 0 0.0729428 6.3836 0.0729428 14.1858L0 99.3004C0 107.103 6.56486 113.486 14.5886 113.486H131.297C139.321 113.486 145.886 107.103 145.886 99.3004V14.1858C145.886 6.3836 139.321 0 131.297 0ZM124.003 99.3004H21.8829C17.871 99.3004 14.5886 96.1086 14.5886 92.2075V28.3715L65.2109 59.1547C69.9522 62.0627 75.9335 62.0627 80.6748 59.1547L131.297 28.3715V92.2075C131.297 96.1086 128.015 99.3004 124.003 99.3004ZM72.9429 49.6502L14.5886 14.1858H131.297L72.9429 49.6502Z" fill="white"/>
<rect x="20.5732" y="72.8252" width="18.7033" height="4.24811" rx="2" fill="#FF0000"/>
<rect x="20.5732" y="66.7568" width="12.4689" height="4.24811" rx="2" fill="#FFFF00"/>
<rect x="20.5732" y="84.9629" width="38.03" height="4.24811" rx="2" fill="#00FF00"/>
<rect x="20.5732" y="91.0317" width="47.3817" height="4.24811" rx="2" fill="#A020F0"/>
<rect x="20.5732" y="78.8945" width="27.4315" height="4.24811" rx="2" fill="#0000FF"/>
</svg>
