<svg width="250" height="250" viewBox="0 0 250 250" fill="none" xmlns="http://www.w3.org/2000/svg">
<circle cx="125" cy="125" r="125" fill="#18191C"/>
<path fill-rule="evenodd" clip-rule="evenodd" d="M124.5 217C172.824 217 212 177.824 212 129.5C212 81.1751 172.824 42 124.5 42C76.1751 42 37 81.1751 37 129.5C37 177.824 76.1751 217 124.5 217ZM150.75 112C150.75 126.498 138.998 138.25 124.5 138.25C110.002 138.25 98.25 126.498 98.25 112C98.25 97.5026 110.002 85.75 124.5 85.75C138.998 85.75 150.75 97.5026 150.75 112ZM71.9936 173.25C83.9663 157.31 103.028 147 124.498 147C145.968 147 165.031 157.31 177.004 173.25C165.031 189.19 145.968 199.5 124.498 199.5C103.028 199.5 83.9663 189.19 71.9936 173.25Z" fill="white"/>
</svg>
