<svg width="239" height="231" viewBox="0 0 239 231" fill="none" xmlns="http://www.w3.org/2000/svg">
<path d="M151.844 26.3623H140.054V38.1602H151.844V26.3623Z" fill="#C7A0F6"/>
<path d="M48.9149 68.535H31.8494C30.3653 72.046 29.228 75.35 28.367 78.3396C25.9582 86.7031 24.3438 94.8118 25.0481 103.374H48.9149V68.535Z" fill="url(#paint0_linear_172_269)"/>
<path d="M147.909 26.3623H143.989V30.2846H147.909V26.3623Z" fill="#FDE1A7"/>
<path d="M147.909 34.2382H143.989V38.1605H147.909V34.2382Z" fill="#FF57BC"/>
<path d="M143.974 30.3002H140.054V34.2225H143.974V30.3002Z" fill="#FF9BBB"/>
<path d="M151.845 30.3002H147.925V34.2225H151.845V30.3002Z" fill="#1AA9E8"/>
<path d="M157.316 63.7516V46.6911C157.316 46.5151 157.173 46.3722 156.997 46.3722H154.872C154.696 46.3722 154.554 46.5151 154.554 46.6911V63.7516H157.316Z" fill="#05C5DA"/>
<path d="M154.553 63.7517V45.0967C154.553 44.0402 153.697 43.1833 152.641 43.1833H150.729C149.674 43.1833 148.817 44.0402 148.817 45.0967V63.7517H154.553Z" fill="#FDE1A7"/>
<path d="M154.553 47.1162H148.817V48.9234H154.553V47.1162Z" fill="#C7A0F6"/>
<path d="M141.21 63.539H147.03L141.244 41.4509C141.11 40.9397 140.587 40.6339 140.076 40.7678L136.481 41.7111C135.97 41.845 135.664 42.368 135.798 42.8792L141.21 63.539Z" fill="#1AA9E8"/>
<path d="M141.21 63.539L135.206 40.6173C135.161 40.447 134.987 40.3449 134.816 40.3899L131.426 41.2796C131.255 41.3242 131.153 41.4987 131.198 41.669L136.927 63.5393H141.21V63.539Z" fill="#FF9BBB"/>
<path d="M142.61 46.6663L137.164 48.0952L139.441 56.7833L144.886 55.3545L142.61 46.6663Z" fill="#0090B2"/>
<path d="M41.2669 80.4933C38.0799 81.6251 33.3799 82.0878 31.2289 86.3928C28.9303 90.993 31.7069 93.1293 31.8662 95.8C32.0058 98.1387 30.3417 99.9946 28.3545 101.062H46.4452V77.1769C45.3942 78.3096 43.8917 79.5612 41.2669 80.4933Z" fill="url(#paint1_linear_172_269)"/>
<path opacity="0.3" d="M125.13 177.967C134.046 178.299 159.413 180.624 157.634 192.636C156.079 203.136 141.993 205.967 128.741 207.518C114.594 209.174 110.02 207.969 100.911 214.533C92.1581 220.841 84.2873 225.269 70.9565 219.21C60.9969 214.683 61.3589 203.04 63.1756 200.794C68.2479 194.523 75.4733 195.187 79.8792 193.274C83.4907 191.706 89.6737 184.288 97.7245 181.156C105.775 178.025 119.848 177.77 125.13 177.967Z" fill="url(#paint2_linear_172_269)"/>
<path d="M131.078 63.8314V5.62841C130.412 5.61247 129.739 5.60513 129.06 5.60449V63.8314H131.078Z" fill="url(#paint3_linear_172_269)"/>
<path d="M38.6783 77.6632C40.9886 76.4275 36.7663 72.4414 40.7098 70.8469H30.9108C30.3298 72.3345 29.8107 73.7791 29.3496 75.1701C29.6616 75.0355 29.9927 74.9405 30.3531 74.9128C33.9779 74.6337 34.5617 79.8651 38.6783 77.6632Z" fill="#1AA9E8"/>
<path d="M126.803 15.8651V15.9713H161.907C161.274 15.2124 160.622 14.5376 159.971 13.9518H128.715C127.659 13.9518 126.803 14.8086 126.803 15.8651Z" fill="url(#paint4_linear_172_269)"/>
<path d="M126.803 38.8783V38.9845H166.132C166.202 38.6516 166.272 38.3158 166.344 37.9749C166.416 37.6346 166.48 37.2985 166.54 36.965H128.715C127.659 36.965 126.803 37.8218 126.803 38.8783Z" fill="url(#paint5_linear_172_269)"/>
<path d="M126.803 64.8413V64.9475H166.052C165.692 64.4098 165.393 63.8865 165.175 63.3795C165.111 63.2296 165.051 63.0788 164.991 62.9276H128.715C127.659 62.9279 126.803 63.7848 126.803 64.8413Z" fill="url(#paint6_linear_172_269)"/>
<path d="M31.8666 95.8C31.7073 93.1293 28.9308 90.9931 31.2293 86.3928C33.3803 82.0878 38.0803 81.6251 41.2673 80.4933C43.8922 79.5612 45.3947 78.3096 46.4456 77.1769V70.8469H40.7096C36.7661 72.4414 40.9885 76.4275 38.6781 77.6632C34.5616 79.8651 33.9778 74.6337 30.353 74.9128C29.9922 74.9405 29.6611 75.0355 29.3495 75.1701C28.9881 76.2601 28.6615 77.3185 28.3674 78.3392C26.1765 85.9463 24.6425 93.343 24.9127 101.061H28.3549C30.3421 99.9947 32.0062 98.1387 31.8666 95.8Z" fill="url(#paint7_linear_172_269)"/>
<path d="M38.5584 94.0993C40.4357 94.0993 41.9576 92.5764 41.9576 90.6977C41.9576 88.8191 40.4357 87.2961 38.5584 87.2961C36.6811 87.2961 35.1592 88.8191 35.1592 90.6977C35.1592 92.5764 36.6811 94.0993 38.5584 94.0993Z" fill="url(#paint8_linear_172_269)"/>
<path d="M41.0283 199.565C43.0633 206.681 47.2407 214.508 55.4483 221.602C57.1443 223.067 58.91 224.419 60.7312 225.669L65.2757 199.566H41.0283V199.565Z" fill="url(#paint9_linear_172_269)"/>
<path d="M65.3061 200.085C65.3061 195.803 59.254 192.334 51.7889 192.334C46.8604 192.334 42.5495 193.846 40.1875 196.105C40.835 199.318 41.8873 202.741 43.5383 206.223C45.8215 207.234 48.6816 207.836 51.7889 207.836C59.254 207.836 65.3061 204.368 65.3061 200.085Z" fill="#FF9BBB"/>
<path d="M62.7244 199.731C62.7244 196.369 57.7895 193.646 51.7043 193.646C46.2 193.646 41.6389 195.873 40.8164 198.786C41.1551 200.056 41.5621 201.352 42.0455 202.663C43.9209 204.543 47.5425 205.817 51.7043 205.817C57.7899 205.817 62.7244 203.094 62.7244 199.731Z" fill="url(#paint10_linear_172_269)"/>
<path d="M45.9762 140.316C45.5635 141.201 46.1782 142.072 47.3379 142.547C48.6552 143.086 49.6571 142.995 50.1045 144.184C50.5519 145.373 50.2307 146.739 51.0188 146.731C51.8072 146.722 53.1197 143.469 51.6647 141.086C50.1979 138.682 46.9185 138.292 45.9762 140.316Z" fill="url(#paint11_linear_172_269)"/>
<path d="M53.5353 187.839C54.1727 186.085 60.6655 176.917 72.0578 176.04C82.3488 175.248 86.4144 179.973 85.402 182.059C84.7248 183.454 82.295 183.056 81.2991 182.777C80.3033 182.498 78.5561 181.498 77.3955 182.099C76.2403 182.697 76.378 184.228 75.2047 184.81C73.1011 185.853 70.9358 184.11 69.15 183.415C66.999 182.577 63.3742 181.82 60.785 184.212C57.6152 187.14 56.9524 189.671 55.9607 194.117C54.969 198.562 54.5002 200.761 54.2922 201.033C54.0331 201.372 53.615 201.751 52.4997 201.312C51.3843 200.874 52.8183 195.174 52.6988 192.862C52.5793 190.55 53.5353 187.839 53.5353 187.839Z" fill="url(#paint12_linear_172_269)"/>
<path d="M56.1644 201.113C56.1743 200.704 57.5984 198.031 57.8772 195.492C58.2405 192.185 59.8896 188.7 61.3826 187.361C63.1751 185.753 65.486 184.979 66.4812 186.205C67.3442 187.268 66.4946 189.208 65.4854 190.191C64.1935 191.449 58.2698 194.924 59.2978 196.835C59.8555 197.871 60.873 196.339 61.3427 195.612C62.1659 194.337 63.5546 193.084 64.4233 193.646C65.3261 194.23 65.0342 196.037 63.069 197.18C61.1455 198.298 59.4349 199.224 58.6076 200.157C57.8253 201.039 58.5812 201.007 58.1561 201.512C57.6669 202.093 56.138 202.203 56.1644 201.113Z" fill="url(#paint13_linear_172_269)"/>
<path d="M47.7997 201.073C48.3214 200.763 47.8396 197.964 46.8437 196.569C45.8479 195.174 43.9757 194.496 43.9757 193.5C43.9757 192.503 44.4687 191.624 43.8961 190.39C43.3782 189.274 41.3467 189.713 41.2671 187.919C41.1874 186.125 42.0988 183.914 42.7954 180.009C43.4181 176.519 42.8509 175.316 41.9442 174.765C40.8289 174.087 40.5899 172.453 41.4264 170.141C42.0089 168.531 41.6782 158.4 38.1202 158.143C35.0929 157.923 33.8453 163.32 33.8182 166.075C33.7784 170.121 35.3386 171.128 34.7344 173.21C34.0174 175.682 33.035 176.027 32.8224 178.751C32.6475 180.995 32.6631 184.052 37.3634 189.792C41.8114 195.224 44.7402 197.556 45.5292 198.681C46.4986 200.064 46.8836 201.618 47.7997 201.073Z" fill="url(#paint14_linear_172_269)"/>
<path d="M51.7033 200.874C51.7033 198.881 52.5797 192.423 50.7473 188.995C48.915 185.567 47.8793 182.059 48.7557 178.233C49.632 174.406 53.934 167.032 53.6153 164.481C53.2967 161.929 51.9822 157.624 54.3323 149.293C56.1121 142.985 60.1509 138.702 62.9363 140.444C64.8483 141.64 63.972 146.105 63.016 147.779C62.06 149.453 60.3988 152.374 60.7175 154.048C61.0361 155.723 62.0849 155.905 61.996 158.177C61.8213 162.647 55.5675 169.503 54.0937 175.602C52.8706 180.662 52.4207 186.763 53.6953 187.002C54.97 187.241 53.609 199.247 53.0147 200.479C52.4203 201.711 51.7033 200.874 51.7033 200.874Z" fill="url(#paint15_linear_172_269)"/>
<path d="M47.8525 147.514C49.0475 148.31 49.1804 150.224 48.7024 151.553C48.2244 152.881 47.7843 153.494 47.9057 154.37C48.0386 155.326 49.871 155.645 50.4551 157.611C51.0392 159.578 50.0832 163.511 49.0743 166.328C48.0654 169.145 48.3308 171.217 49.3397 171.377C50.3486 171.536 51.2517 170.154 51.5704 168.454C51.8891 166.753 51.7368 159.262 56.2443 160.588C58.0502 161.119 57.9173 164.175 56.7755 166.328C55.895 167.987 52.9251 171.616 51.4114 176.532C50.0112 181.08 48.9095 184.689 51.6768 185.249C54.0404 185.727 55.3415 183.069 55.6602 181.369C55.9788 179.668 57.0614 173.818 62.299 174.831C64.7686 175.309 63.2263 181.311 59.5903 184.451C57.1111 186.593 53.9623 189.259 53.0576 192.955C52.0752 196.967 53.4824 201.087 52.8983 201.884C52.3142 202.681 50.0303 202.203 50.0835 201.671C50.1367 201.14 50.7208 200.077 49.6055 199.173C48.4902 198.27 45.8962 197.02 44.135 195.772C42.3737 194.524 42.5416 192.583 43.4444 191.892C44.3472 191.201 45.3899 192.071 45.7812 192.53C46.5514 193.433 48.3305 198.921 50.4551 197.473C51.8072 196.551 49.6415 192.035 48.1183 189.979C45.8344 186.896 40.7093 185.727 37.8148 181.847C35.7744 179.112 36.9732 176.045 38.3461 175.522C40.2316 174.805 41.9597 176.514 42.3364 178.24C42.8408 180.551 43.8584 184.225 46.5782 182.166C49.7384 179.774 44.9807 175.27 42.6481 172.706C38.3196 167.949 36.2483 160.481 39.9926 159.313C41.6595 158.792 43.0464 161.119 43.4447 163.777C43.902 166.827 46.1435 176.587 48.1186 175.47C49.3401 174.778 46.6314 172.44 46.5253 170.474C46.4192 168.507 46.6846 165.69 45.7286 163.192C44.7726 160.694 42.2622 154.084 43.6041 150.171C44.8252 146.609 47.3207 147.159 47.8525 147.514Z" fill="url(#paint16_linear_172_269)"/>
<path d="M74.189 187.102C75.2846 187.62 74.906 189.275 72.9003 190.743C71.0027 192.133 68.2813 192.187 68.214 191.458C68.1471 190.728 69.6745 190.684 70.9227 189.494C72.1709 188.303 72.7305 186.412 74.189 187.102Z" fill="url(#paint17_linear_172_269)"/>
<path d="M193.106 76.1938L191.625 76.1989V113.551H194.174C195.23 113.551 196.086 112.695 196.086 111.638V78.7794C196.086 77.464 195.263 76.1938 193.106 76.1938Z" fill="#9180E6"/>
<path d="M168.416 122.507C172.798 118.601 170.487 113.552 169.85 112.861H159.772C160.409 113.552 162.72 118.601 158.338 122.507H168.416Z" fill="url(#paint18_linear_172_269)"/>
<path d="M168.807 123.079L167.991 122.031C169.489 120.696 170.294 119.094 170.382 117.271C170.483 115.211 169.621 113.554 169.381 113.293L170.317 112.428C170.84 112.995 171.769 115.015 171.655 117.333C171.551 119.48 170.546 121.53 168.807 123.079Z" fill="#9180E6"/>
<path d="M168.8 123.07C168.8 123.07 168.555 122.069 168.325 121.707H150.982C149.927 121.707 149.07 122.564 149.07 123.621V123.727H168.8V123.07Z" fill="#9180E6"/>
<path d="M132.672 111.638C132.672 112.695 133.528 113.552 134.584 113.552H192.9C193.956 113.552 194.812 112.695 194.812 111.638V78.0485C194.812 76.992 193.956 76.1351 192.9 76.1351L134.584 78.5268C133.528 78.5268 132.672 79.3837 132.672 80.4401V111.638Z" fill="url(#paint19_linear_172_269)"/>
<path d="M135.115 108.874L191.413 107.918V79.324L135.115 81.7156V108.874Z" fill="url(#paint20_linear_172_269)"/>
<path d="M188.16 84.0296C188.183 84.6553 187.631 85.1837 186.928 85.2095L155.405 86.4104C154.701 86.4366 154.112 85.95 154.089 85.3243L154.063 84.616C154.04 83.9904 154.592 83.462 155.295 83.4358L186.818 82.2349C187.522 82.209 188.111 82.6954 188.134 83.321L188.16 84.0296Z" fill="url(#paint21_linear_172_269)"/>
<path d="M178.374 102.576C178.374 102.928 178.089 103.214 177.737 103.214L149.774 103.693C149.422 103.693 149.137 103.407 149.137 103.055V90.4586C149.137 90.1066 149.422 89.8209 149.774 89.8209L177.737 89.3425C178.089 89.3425 178.374 89.6283 178.374 89.9803V102.576Z" fill="#FF9BBB"/>
<path d="M140.11 86.7877C140.932 86.7877 141.597 86.1213 141.597 85.2994C141.597 84.4775 140.932 83.8112 140.11 83.8112C139.289 83.8112 138.623 84.4775 138.623 85.2994C138.623 86.1213 139.289 86.7877 140.11 86.7877Z" fill="#FBBB6C"/>
<path d="M145.112 86.676C145.934 86.676 146.599 86.0097 146.599 85.1877C146.599 84.3658 145.934 83.6995 145.112 83.6995C144.291 83.6995 143.625 84.3658 143.625 85.1877C143.625 86.0097 144.291 86.676 145.112 86.676Z" fill="#5265F9"/>
<path d="M150.114 86.5644C150.936 86.5644 151.601 85.8981 151.601 85.0761C151.601 84.2542 150.936 83.5879 150.114 83.5879C149.293 83.5879 148.627 84.2542 148.627 85.0761C148.627 85.8981 149.293 86.5644 150.114 86.5644Z" fill="#EA4D81"/>
<path d="M174.814 93.0744C170.407 93.0097 154.872 93.4083 149.614 92.7705C144.356 92.1327 138.308 89.8823 136.151 88.0669C135.99 87.932 135.856 87.8025 135.738 87.6753C136.124 89.0503 136.668 90.2991 136.284 92.2922C135.977 93.878 134.38 96.1376 132.196 97.0867C133.132 97.5197 134.126 97.9416 135.115 98.2978C139.098 99.7328 147.067 100.477 152.376 100.477C157.685 100.477 174.895 100.477 174.895 100.477L174.814 93.0744Z" fill="url(#paint22_linear_172_269)"/>
<path d="M174.814 93.0745C173.498 93.055 171.186 93.077 168.456 93.1006C169.133 93.6874 171.005 96.6636 168.655 100.477C172.22 100.477 174.895 100.477 174.895 100.477L174.814 93.0745Z" fill="url(#paint23_linear_172_269)"/>
<path d="M136.283 92.2922C136.668 90.2992 136.124 89.0501 135.738 87.6753C134.999 86.8756 134.978 86.1628 134.119 84.7186C133.22 83.208 132.749 81.8907 132.671 81.0514C132.512 79.3239 133.57 77.9304 133.437 76.8143C133.311 75.7508 130.532 75.3397 129.618 76.9058C128.794 78.3143 129.215 80.4196 129.339 81.171C129.511 82.2207 129.379 82.6458 129.379 82.6458C129.379 82.6458 126.75 85.9543 126.63 88.625C126.511 91.2957 127.068 94.365 127.068 94.365C127.068 94.365 129.364 95.7764 132.196 97.0867C134.38 96.1377 135.977 93.878 136.283 92.2922Z" fill="url(#paint24_linear_172_269)"/>
<path d="M162.684 100.477C161.653 97.7442 159.016 95.7999 155.925 95.7999C152.876 95.7999 150.27 97.6916 149.21 100.365C150.594 100.439 151.919 100.477 153.11 100.477C155.121 100.477 158.839 100.477 162.684 100.477Z" fill="url(#paint25_linear_172_269)"/>
<path d="M162.684 100.716C162.588 100.716 162.497 100.657 162.461 100.562C161.441 97.8568 158.815 96.0391 155.926 96.0391C153.044 96.0391 150.496 97.7716 149.433 100.453C149.384 100.576 149.246 100.636 149.123 100.587C149 100.539 148.94 100.4 148.988 100.277C150.124 97.4119 152.847 95.5608 155.926 95.5608C159.012 95.5608 161.818 97.5025 162.908 100.393C162.955 100.516 162.892 100.654 162.769 100.701C162.741 100.711 162.712 100.716 162.684 100.716Z" fill="#AD7CF7"/>
<path d="M157.65 100.716C157.547 100.716 157.453 100.65 157.421 100.547C157.204 99.8307 156.556 99.3498 155.808 99.3498C155.06 99.3498 154.412 99.8307 154.194 100.547C154.156 100.673 154.021 100.744 153.896 100.706C153.77 100.667 153.699 100.534 153.737 100.408C154.016 99.4888 154.848 98.8715 155.808 98.8715C156.767 98.8715 157.599 99.4888 157.878 100.408C157.916 100.534 157.845 100.667 157.719 100.706C157.696 100.713 157.673 100.716 157.65 100.716Z" fill="#AD7CF7"/>
<path d="M124.957 87.1702C124.798 86.8513 124.061 84.6191 125.575 83.4829C127.012 82.4041 128.846 82.2341 129.857 82.9647C130.623 83.5183 131.82 84.556 131.849 86.034C131.869 87.0704 131.072 87.9872 131.072 87.9872C131.072 87.9872 131.809 88.7844 131.769 89.781C131.721 90.9765 130.933 91.6943 130.933 91.6943C130.933 91.6943 131.351 93.827 130.156 94.2853C129.189 94.6561 128.463 94.0659 127.825 94.086C127.266 94.1035 127.297 94.5024 127.297 94.5024C127.297 94.5024 125.97 94.5786 125.555 93.8867C125.017 92.9896 125.435 91.6544 125.435 91.6544C125.435 91.6544 124.484 90.3384 124.44 88.9439C124.4 87.6884 124.957 87.1702 124.957 87.1702Z" fill="url(#paint26_linear_172_269)"/>
<path d="M130.156 94.2852C131.351 93.8266 130.933 91.6942 130.933 91.6942C130.933 91.6942 131.721 90.9764 131.769 89.7809C131.809 88.7844 131.072 87.9871 131.072 87.9871C131.072 87.9871 131.869 87.0703 131.849 86.034C131.82 84.5559 130.623 83.5182 129.857 82.9647C129.448 82.669 128.903 82.5233 128.305 82.5233C128.743 83.0466 129.18 84.0616 128.961 85.0173C128.663 86.3178 127.547 86.4865 127.547 86.4865C127.547 86.4865 128.463 87.2298 128.383 88.5851C128.304 89.9403 127.467 90.485 127.467 90.485C127.467 90.485 128.582 91.1362 128.463 92.2921C128.343 93.4481 127.501 94.1621 127.501 94.1621V94.1624C127.577 94.1206 127.681 94.09 127.826 94.0856C128.463 94.0661 129.188 94.6561 130.156 94.2852Z" fill="url(#paint27_linear_172_269)"/>
<path d="M132.67 81.031C132.521 79.3132 133.569 77.9263 133.437 76.8147C133.311 75.7512 130.533 75.3401 129.618 76.9062C128.801 78.3036 129.208 80.3846 129.335 81.1516C129.851 81.5502 130.612 81.8821 131.317 81.9022C131.844 81.9169 132.349 81.4261 132.67 81.031Z" fill="url(#paint28_linear_172_269)"/>
<path d="M141.522 94.8726C141.724 93.0046 141.119 91.2896 140.539 90.4152C138.627 89.6556 137.05 88.8236 136.151 88.0669C135.99 87.932 135.856 87.8025 135.738 87.6753C136.124 89.0503 136.668 90.2991 136.284 92.2922C135.977 93.878 134.38 96.1377 132.196 97.0867C133.132 97.5197 134.126 97.9416 135.115 98.2978C136.197 98.6875 137.573 99.0255 139.109 99.3122C139.519 98.9369 141.271 97.2069 141.522 94.8726Z" fill="url(#paint29_linear_172_269)"/>
<path d="M168.654 100.716C168.611 100.716 168.568 100.705 168.529 100.681C168.416 100.611 168.381 100.464 168.451 100.352C170.741 96.6346 168.882 93.7869 168.299 93.2814C168.199 93.195 168.188 93.0439 168.275 92.9441C168.362 92.8442 168.513 92.8334 168.612 92.9198C169.256 93.4785 171.324 96.6011 168.858 100.602C168.813 100.676 168.734 100.716 168.654 100.716ZM131.251 88.2564C131.182 88.2564 131.114 88.2267 131.066 88.1696C130.523 87.5115 128.727 86.778 127.93 86.6836C127.209 86.5998 126.271 86.8294 125.057 87.3877C124.937 87.4426 124.795 87.3906 124.74 87.2704C124.685 87.1505 124.737 87.0083 124.857 86.9531C126.153 86.3564 127.175 86.1131 127.986 86.2088C128.896 86.3163 130.804 87.1014 131.435 87.8651C131.519 87.9668 131.504 88.1177 131.402 88.2019C131.358 88.2385 131.305 88.2564 131.251 88.2564ZM131.042 92.063C130.944 92.063 130.853 92.003 130.817 91.9064C130.648 91.4453 129.28 90.7498 128.114 90.6707C126.915 90.591 125.594 91.8936 125.581 91.9067C125.488 92.0001 125.337 92.0005 125.243 91.907C125.15 91.8136 125.15 91.6621 125.243 91.5687C125.303 91.5087 126.73 90.0967 128.147 90.1933C129.331 90.2737 130.987 90.9819 131.266 91.7412C131.312 91.8653 131.248 92.0027 131.124 92.0483C131.097 92.0585 131.069 92.063 131.042 92.063ZM135.512 98.6735C135.426 98.6735 135.342 98.6266 135.3 98.5444C135.239 98.4273 135.285 98.2829 135.402 98.222C135.426 98.2092 137.866 96.9097 138.587 93.9495C138.99 92.2919 138.645 90.5422 138.124 89.5434C138.063 89.4264 138.108 89.2819 138.225 89.2207C138.342 89.1598 138.486 89.2051 138.548 89.3221C139.069 90.3212 139.514 92.1625 139.051 94.063C138.277 97.2414 135.729 98.5912 135.621 98.6471C135.586 98.6649 135.549 98.6735 135.512 98.6735Z" fill="#AD7CF7"/>
<path d="M177.099 105.272C180.56 105.272 183.366 102.464 183.366 99.0004C183.366 95.5369 180.56 92.7291 177.099 92.7291C173.638 92.7291 170.832 95.5369 170.832 99.0004C170.832 102.464 173.638 105.272 177.099 105.272Z" fill="url(#paint30_linear_172_269)"/>
<path d="M180.786 95.5899C180.419 95.3345 179.914 95.4251 179.659 95.7924L176.668 100.093L173.352 97.2491C173.121 97.0508 172.774 97.0402 172.531 97.2396C172.257 97.4634 172.217 97.8668 172.44 98.1407L176.069 102.58C176.152 102.681 176.258 102.772 176.379 102.839C176.898 103.126 177.55 102.939 177.837 102.421L177.857 102.385L181.032 96.6477C181.229 96.2893 181.129 95.8291 180.786 95.5899Z" fill="url(#paint31_linear_172_269)"/>
<path d="M205.673 112.347C203.546 112.347 201.822 113.869 201.822 115.748C201.822 117.627 203.546 119.15 205.673 119.15C207.799 119.15 209.523 117.627 209.523 115.748C209.523 113.869 207.799 112.347 205.673 112.347ZM205.453 117.237C204.632 117.237 203.966 116.57 203.966 115.748C203.966 114.926 204.632 114.26 205.453 114.26C206.275 114.26 206.941 114.926 206.941 115.748C206.941 116.57 206.275 117.237 205.453 117.237Z" fill="url(#paint32_linear_172_269)"/>
<path d="M203.535 123.384H194.758L192.368 109.655H205.925L203.535 123.384Z" fill="url(#paint33_linear_172_269)"/>
<path d="M199.154 113.286C202.902 113.286 205.94 111.66 205.94 109.655C205.94 107.65 202.902 106.025 199.154 106.025C195.406 106.025 192.368 107.65 192.368 109.655C192.368 111.66 195.406 113.286 199.154 113.286Z" fill="#FF9BBB"/>
<path d="M199.154 111.691C201.914 111.691 204.152 110.662 204.152 109.393C204.152 108.123 201.914 107.094 199.154 107.094C196.394 107.094 194.156 108.123 194.156 109.393C194.156 110.662 196.394 111.691 199.154 111.691Z" fill="url(#paint34_linear_172_269)"/>
<path d="M200.68 108.901C200.693 108.423 199.193 108.183 199.538 106.828C199.883 105.473 201.45 104.622 203.707 104.091C205.545 103.659 207.831 103 207.903 101.088C207.956 99.6796 206.682 99.4404 205.885 99.281C205.088 99.1215 204.159 98.6432 204.398 97.8195C204.637 96.9958 205.543 95.5041 204.348 94.6539C202.835 93.5777 198.449 93.674 197.228 96.5704C196.006 99.4669 198.874 99.9187 199.458 100.078C200.043 100.238 201.3 100.574 200.76 101.726C200.149 103.028 196.77 104.596 196.723 106.802C196.67 109.313 200.648 110.066 200.68 108.901Z" fill="url(#paint35_linear_172_269)"/>
<path d="M192.262 92.5313C193.232 92.6509 193.643 93.6341 193.431 94.8697C193.189 96.2735 192.581 97.0755 193.351 98.0851C194.121 99.0947 195.449 99.5466 195.024 100.211C194.599 100.876 191.147 100.264 189.899 97.7662C188.64 95.247 190.048 92.2584 192.262 92.5313Z" fill="url(#paint36_linear_172_269)"/>
<path d="M189.215 101.38C189.882 101.709 190.419 102.855 191.127 102.995C191.621 103.093 192.313 103.154 192.302 103.733C192.292 104.241 191.405 104.53 189.942 104.42C188.524 104.314 187.255 103.11 187.721 101.989C188.04 101.221 188.922 101.236 189.215 101.38Z" fill="url(#paint37_linear_172_269)"/>
<path d="M217.955 124.606H177.444V128.38C177.444 131.021 179.585 133.163 182.224 133.163H218.135C218.223 132.012 218.276 130.827 218.287 129.602C218.301 127.904 218.182 126.24 217.955 124.606Z" fill="url(#paint38_linear_172_269)"/>
<path d="M193.749 131.09C194.57 131.09 195.236 130.424 195.236 129.602C195.236 128.78 194.57 128.114 193.749 128.114C192.928 128.114 192.262 128.78 192.262 129.602C192.262 130.424 192.928 131.09 193.749 131.09Z" fill="#5265F9"/>
<path d="M209.576 133.402C209.444 133.402 209.337 133.295 209.337 133.163V126.079C209.337 125.947 209.444 125.839 209.576 125.839C209.708 125.839 209.815 125.947 209.815 126.079V133.163C209.815 133.295 209.708 133.402 209.576 133.402Z" fill="#FFA2BA"/>
<path d="M140.943 123.065V126.079H218.126C218.029 125.062 217.888 124.058 217.704 123.065H140.943Z" fill="url(#paint39_linear_172_269)"/>
<path d="M101.296 162.408C101.366 165.637 101.23 187.639 100.964 190.775C101.977 192.043 103.779 190.669 103.779 190.669C103.779 190.669 105.239 184.69 105.903 176.585C106.478 169.573 106.647 162.607 106.647 162.607L101.296 162.408Z" fill="url(#paint40_linear_172_269)"/>
<path d="M102.329 177.592C101.782 177.592 101.348 177.556 101.164 177.504C100.995 177.456 100.896 177.28 100.944 177.11C100.991 176.941 101.168 176.842 101.337 176.89C101.815 177.026 104.716 177.01 105.723 176.322C105.869 176.223 106.067 176.26 106.166 176.406C106.266 176.551 106.228 176.749 106.083 176.849C105.249 177.418 103.521 177.592 102.329 177.592Z" fill="#7B7BEF"/>
<path d="M73.9306 114.295C70.8938 114.707 60.6703 118.077 59.4412 125.093C59.402 125.317 59.7978 125.874 59.8695 126.094C62.3392 133.708 73.4925 143.952 77.7546 144.67C77.9427 144.701 78.2103 144.9 78.399 144.827C81.3368 143.689 84.396 138.042 86.9163 136.219C88.0119 135.427 73.9306 114.295 73.9306 114.295Z" fill="url(#paint41_linear_172_269)"/>
<path d="M60.621 122.064C59.933 123.174 59.4719 124.409 59.3515 125.776C58.7938 132.1 73.4206 145.781 77.8341 144.989C78.3322 144.899 78.8351 144.662 79.3395 144.32C70.2161 140.751 61.9346 127.431 60.621 122.064Z" fill="url(#paint42_linear_172_269)"/>
<path d="M100.46 150.17C103.328 150.165 117.835 150.433 120.297 151.924C122.315 153.147 122.751 155.174 121.548 157.088C120.345 159.001 114.641 162.567 103.169 162.647C91.6965 162.727 84.3672 160.295 84.2875 157.505C84.2079 154.715 85.5048 150.541 92.5729 149.852C96.9281 149.426 98.8665 150.174 100.46 150.17Z" fill="url(#paint43_linear_172_269)"/>
<path d="M103.407 163.803C114.879 163.723 120.344 159.001 121.548 157.088C122.075 156.248 122.287 155.387 122.189 154.582C119.099 156.738 112.234 158.937 103.089 159.312C94.1062 159.681 86.6051 158.327 84.2871 157.479C84.2871 157.487 84.2871 157.497 84.2874 157.505C84.3668 160.295 91.9351 163.883 103.407 163.803Z" fill="url(#paint44_linear_172_269)"/>
<path d="M77.3105 206.946C78.1796 204.435 83.6103 195.293 94.8034 191.254C105.359 187.445 113.693 190.654 115.853 192.283C118.013 193.912 114.459 196.822 112.645 195.355C110.697 193.779 105.598 192.224 99.7055 193.858C91.9622 196.004 84.9649 202.469 84.919 207.33C79.5074 210.653 77.3105 206.946 77.3105 206.946Z" fill="url(#paint45_linear_172_269)"/>
<path d="M99.6254 192.75C92.8075 194.533 83.6325 199.495 82.209 208.528C83.0037 208.328 83.9046 207.952 84.9183 207.329C84.9642 202.468 91.9615 196.003 99.7047 193.857C105.598 192.224 110.697 193.779 112.644 195.354C113.348 195.924 114.313 195.832 115.106 195.414C111.71 191.786 106.239 191.021 99.6254 192.75Z" fill="#665EDB"/>
<path d="M81.0473 212.513C83.2766 212.513 85.0838 210.705 85.0838 208.474C85.0838 206.243 83.2766 204.435 81.0473 204.435C78.818 204.435 77.0107 206.243 77.0107 208.474C77.0107 210.705 78.818 212.513 81.0473 212.513Z" fill="url(#paint46_linear_172_269)"/>
<path d="M115.853 198.718C117.629 198.718 119.068 197.277 119.068 195.5C119.068 193.723 117.629 192.283 115.853 192.283C114.077 192.283 112.638 193.723 112.638 195.5C112.638 197.277 114.077 198.718 115.853 198.718Z" fill="url(#paint47_linear_172_269)"/>
<path d="M81.047 209.723C80.3587 209.723 79.7988 209.163 79.7988 208.474C79.7988 207.785 80.3587 207.225 81.047 207.225C81.7354 207.225 82.2953 207.785 82.2953 208.474C82.2953 209.163 81.7354 209.723 81.047 209.723ZM81.047 207.703C80.6223 207.703 80.2768 208.049 80.2768 208.474C80.2768 208.899 80.6223 209.244 81.047 209.244C81.4718 209.244 81.8173 208.899 81.8173 208.474C81.8173 208.049 81.4718 207.703 81.047 207.703ZM115.852 196.749C115.164 196.749 114.604 196.189 114.604 195.5C114.604 194.811 115.164 194.251 115.852 194.251C116.541 194.251 117.101 194.811 117.101 195.5C117.101 196.189 116.541 196.749 115.852 196.749ZM115.852 194.729C115.428 194.729 115.082 195.075 115.082 195.5C115.082 195.925 115.428 196.271 115.852 196.271C116.277 196.271 116.623 195.925 116.623 195.5C116.623 195.075 116.277 194.729 115.852 194.729Z" fill="#7B7BEF"/>
<path d="M84.0037 87.4158C84.1548 89.449 83.5971 97.926 80.6494 102.072C81.6943 104.43 87.321 104.627 89.227 104.463C93.5554 104.091 96.6095 101.699 96.6095 101.699C96.6095 101.699 94.963 92.9833 93.1042 90.06C91.6664 89.6024 89.7317 89.3958 87.9258 88.8109C86.12 88.2261 84.0037 87.4158 84.0037 87.4158Z" fill="url(#paint48_linear_172_269)"/>
<path d="M95.6538 77.4107C93.3674 73.5633 89.9822 70.7006 89.4398 70.1295C89.4398 70.1295 79.601 68.2672 76.9057 75.7633C75.3388 80.1216 80.0392 84.9579 80.0392 84.9579C80.0392 84.9579 80.4691 85.1215 81.1226 85.463C80.6443 85.8677 80.34 86.4716 80.34 87.1474C80.34 88.3655 81.3269 89.3531 82.5442 89.3531C83.4757 89.3531 84.2704 88.7743 84.5929 87.9573C84.6302 87.9937 84.6681 88.0275 84.7051 88.0645C86.3061 89.6618 92.4286 92.8931 96.033 89.5827C99.1591 86.7117 97.62 80.7198 95.6538 77.4107Z" fill="url(#paint49_linear_172_269)"/>
<path d="M94.857 61.1208C93.6613 60.323 91.1127 61.7586 89.7583 63.1404C88.404 64.5221 86.5449 65.5585 86.0404 65.0004C85.536 64.4424 86.8275 63.8569 86.2262 63.0871C85.5624 62.2366 81.8978 63.2998 80.2248 66.1698C78.5518 69.0398 77.2242 72.8929 75.8167 73.3183C74.4091 73.7437 74.8074 71.538 73.347 71.4847C71.8865 71.4315 70.0274 73.3183 69.5762 74.8066C68.9054 77.0184 69.5498 78.6068 70.5854 78.6865C72.4496 78.83 73.5331 75.9495 74.8342 76.6137C75.7233 77.0675 75.1264 78.9786 74.6484 80.6263C74.1704 82.274 74.7813 84.4795 76.6933 85.9942C78.1235 87.1272 79.4915 87.3641 80.3519 87.3759C80.3443 87.3007 80.3401 87.2241 80.3401 87.147C80.3401 85.977 81.2509 85.0225 82.4016 84.9482C82.5412 84.3892 82.5743 83.804 82.3761 83.2833C81.7388 81.6091 77.2615 77.9556 78.1005 76.055C78.605 74.9125 79.9593 74.8857 82.4025 74.806C84.8458 74.7262 86.3489 74.9348 86.5984 73.9823C86.8906 72.8662 84.6969 73.2753 84.8458 72.6802C85.0848 71.7236 89.1111 72.4844 92.547 68.8536C95.8659 65.3461 96.052 61.9181 94.857 61.1208Z" fill="url(#paint50_linear_172_269)"/>
<path d="M90.2627 84.8516C90.2627 84.8516 91.9092 84.7186 92.812 84.6124C93.7148 84.5062 95.9722 84.3468 95.9722 84.3468C95.9722 84.3468 95.1756 86.8446 93.3432 87.0573C91.5109 87.27 90.2627 84.8516 90.2627 84.8516Z" fill="white"/>
<path d="M85.7972 81.0852C85.7415 81.0852 85.6876 81.0559 85.6583 81.0039C85.26 80.2959 85.3495 79.4627 85.8807 78.9308C86.3581 78.4531 87.0971 78.329 87.764 78.6154C87.845 78.6502 87.8826 78.7439 87.8478 78.8246C87.8131 78.9056 87.7188 78.9432 87.6388 78.9085C87.0923 78.6738 86.4906 78.7713 86.106 79.1562C85.6768 79.5858 85.6086 80.2656 85.9358 80.8476C85.9792 80.9245 85.9518 81.0214 85.8753 81.0648C85.8504 81.0788 85.8237 81.0852 85.7972 81.0852ZM91.9963 76.3076C91.9249 76.3076 91.8602 76.2594 91.842 76.1871C91.7101 75.6638 91.8207 75.1771 92.1451 74.8525C92.5268 74.4705 93.1406 74.3882 93.746 74.6382C93.8273 74.6717 93.8662 74.7648 93.8327 74.8465C93.7993 74.9281 93.7065 74.9664 93.6246 74.9332C93.1399 74.7332 92.6594 74.7891 92.37 75.0783C92.1269 75.3216 92.0469 75.6976 92.1508 76.1096C92.1722 76.195 92.1205 76.2818 92.0351 76.3031C92.0224 76.306 92.0093 76.3076 91.9963 76.3076Z" fill="#212F66"/>
<path d="M85.5892 38.6772C85.6555 38.9304 85.6816 39.0936 85.708 39.269C85.7345 39.4399 85.7498 39.6042 85.7654 39.7671C85.7919 40.0927 85.8052 40.4119 85.8056 40.7311C85.8046 41.3689 85.7769 42.0022 85.7472 42.6346C85.6854 43.899 85.5672 45.1608 85.4869 46.4201C85.3843 47.6803 85.3355 48.9371 85.3215 50.1916C85.3167 50.5054 85.3186 50.8189 85.3295 51.1317C85.3336 51.4448 85.3505 51.7573 85.369 52.0699C85.3865 52.382 85.4149 52.6942 85.4487 53.0045C85.484 53.3087 85.5248 53.6388 85.5914 53.9067C85.6848 54.282 85.4563 54.6621 85.0812 54.7555C84.7062 54.849 84.326 54.6203 84.2326 54.2447C84.2164 54.179 84.21 54.113 84.2125 54.0486L84.2132 54.0374C84.2285 53.6806 84.2428 53.3846 84.2457 53.0632C84.2489 52.7478 84.2485 52.4337 84.238 52.1202C84.2285 51.8068 84.218 51.4933 84.195 51.1805C84.1788 50.8676 84.1539 50.5548 84.1224 50.2426C84.0013 48.9932 83.8467 47.7457 83.6332 46.5021L83.0156 42.7771C82.9203 42.1581 82.8235 41.5401 82.7428 40.9272C82.703 40.6211 82.674 40.3153 82.6504 40.0165C82.6409 39.8669 82.6294 39.719 82.6246 39.5783C82.6182 39.4425 82.6131 39.2936 82.6217 39.2387L82.6855 38.8267C82.811 38.0158 83.5698 37.46 84.3805 37.5856C84.9821 37.6793 85.4432 38.1232 85.5892 38.6772Z" fill="url(#paint51_linear_172_269)"/>
<path d="M75.0206 45.7523C75.07 45.9861 75.2041 46.3968 75.3351 46.7817L75.7653 47.989C76.0604 48.8079 76.3797 49.6316 76.6423 50.4863L77.0629 51.7605C77.2133 52.1811 77.3749 52.5976 77.5553 53.0029C77.7324 53.4101 77.9198 53.8123 78.1269 54.1978C78.2305 54.3901 78.3322 54.5833 78.4443 54.7632C78.5559 54.9392 78.6744 55.1238 78.784 55.2428L78.7885 55.2476C78.9985 55.4753 78.9845 55.8308 78.7566 56.041C78.5288 56.2514 78.1738 56.2371 77.9638 56.0091C77.9609 56.0062 77.9565 56.0011 77.9539 55.9979C77.764 55.7808 77.6279 55.5926 77.4896 55.3949C77.3535 55.1997 77.2197 55.0094 77.0926 54.8155L76.3389 53.6589C76.0932 53.2721 75.8402 52.8894 75.5853 52.5067C75.3259 52.1266 75.0662 51.7452 74.8176 51.3571C74.3071 50.5864 73.8849 49.7697 73.4942 48.9247C73.2998 48.5008 73.1191 48.0678 72.9575 47.6118C72.8766 47.3831 72.8011 47.1484 72.7348 46.8962C72.7 46.7706 72.6707 46.6392 72.6427 46.497C72.6283 46.4262 72.6162 46.3525 72.6051 46.2705L72.5869 46.1213L72.5815 46.0365C72.5394 45.3588 73.0541 44.7746 73.7316 44.7325C74.3482 44.694 74.8867 45.1178 75.0104 45.7052L75.0206 45.7523Z" fill="url(#paint52_linear_172_269)"/>
<path d="M94.4096 42.4155L94.155 43.8301C94.0619 44.3087 93.9641 44.7887 93.8561 45.2683C93.6356 46.2269 93.3542 47.1807 92.968 48.1211C92.8701 48.3558 92.7621 48.5885 92.6426 48.8188C92.5846 48.9339 92.5186 49.0484 92.4552 49.1613L92.2755 49.4652C92.0381 49.8711 91.793 50.272 91.5709 50.6801C91.3463 51.0864 91.1347 51.4971 90.9658 51.9085C90.7975 52.3125 90.6681 52.7443 90.6869 53.0587C90.7096 53.4408 90.4186 53.7686 90.0372 53.7915C89.6554 53.8142 89.3275 53.523 89.3049 53.141C89.3023 53.0948 89.3039 53.0495 89.31 53.0055L89.3148 52.9726C89.4046 52.3435 89.6194 51.8808 89.81 51.4187C90.0095 50.9633 90.2137 50.5284 90.4132 50.0937L91.0069 48.7993L91.1547 48.4779C91.1968 48.3803 91.2398 48.2859 91.2781 48.1861C91.3568 47.989 91.4275 47.7859 91.4903 47.5777C91.75 46.7473 91.8816 45.8544 91.9705 44.9561C92.0633 44.0504 92.0709 43.155 92.0709 42.1971C92.0709 41.5452 92.5993 41.0168 93.2506 41.0168C93.902 41.0168 94.43 41.5456 94.43 42.1974C94.43 42.2666 94.4239 42.3345 94.4125 42.4002L94.4096 42.4155Z" fill="url(#paint53_linear_172_269)"/>
<path d="M98.3449 50.2917C98.0708 50.8708 97.6961 51.2544 97.3388 51.6157C96.9771 51.9744 96.6018 52.2921 96.2407 52.6125C95.8803 52.9327 95.5196 53.2436 95.1945 53.5695C95.0333 53.7325 94.8803 53.8989 94.7497 54.0679C94.6216 54.2354 94.5189 54.4149 94.4947 54.5571L94.4887 54.5925C94.4609 54.7548 94.307 54.8639 94.1448 54.8362C94.0046 54.8122 93.9039 54.6936 93.8972 54.5571C93.88 54.2102 93.9951 53.9353 94.1072 53.6878C94.2245 53.4404 94.3638 53.2194 94.5081 53.0076C94.7978 52.5851 95.1078 52.197 95.4176 51.8195C95.7273 51.4425 96.0294 51.0685 96.3105 50.7033C96.5868 50.3379 96.8487 49.9728 96.9781 49.6676C97.1397 49.2852 97.5807 49.1063 97.9628 49.2683C98.3449 49.4303 98.5236 49.8717 98.3618 50.2537C98.3579 50.2626 98.3541 50.2713 98.3503 50.2799L98.3449 50.2917Z" fill="url(#paint54_linear_172_269)"/>
<path d="M95.4249 73.3575C94.697 72.3269 93.5769 71.6869 92.5014 71.6869C91.9855 71.6869 91.5021 71.8358 91.1031 72.118C89.969 72.92 89.7539 74.6165 90.5193 76.0968C89.837 76.217 89.2529 76.7524 88.888 77.2254C88.2469 76.5295 87.332 76.0904 86.3138 76.0904C84.3808 76.0904 82.8085 77.6641 82.8085 79.5982C82.8085 80.3932 83.0771 81.1247 83.5242 81.7134C82.7862 82.4899 81.342 84.3997 80.7314 85.7575L80.8082 85.792C81.067 85.4606 81.4175 85.2062 81.8222 85.0655C82.5016 83.9341 83.449 82.7297 83.9557 82.1857C84.5793 82.7552 85.4057 83.106 86.3145 83.106C88.2475 83.106 89.8198 81.5323 89.8198 79.5982C89.8198 78.9215 89.6242 78.2914 89.2915 77.7553C89.583 77.3389 90.2344 76.6335 90.9154 76.7196C91.6436 77.6826 92.7162 78.2796 93.7512 78.2796C94.2671 78.2796 94.7506 78.1303 95.1495 77.8481C96.4162 76.9517 96.5399 74.9373 95.4249 73.3575ZM86.3138 82.4679C84.7323 82.4679 83.4458 81.1802 83.4458 79.5979C83.4458 78.0155 84.7326 76.7279 86.3138 76.7279C87.8951 76.7279 89.1818 78.0155 89.1818 79.5979C89.1818 81.1802 87.8954 82.4679 86.3138 82.4679ZM94.7811 77.3268C94.4902 77.5324 94.1339 77.6412 93.7506 77.6412C92.8787 77.6412 91.9581 77.1042 91.3478 76.24C90.4352 74.9475 90.4906 73.3317 91.4708 72.6388C91.7656 72.4302 92.1123 72.3247 92.5011 72.3247C93.373 72.3247 94.2936 72.8617 94.9038 73.7259C95.8168 75.018 95.7614 76.6335 94.7811 77.3268Z" fill="url(#paint55_linear_172_269)"/>
<path d="M74.666 77.1865C74.6587 77.1865 74.6517 77.1865 74.6444 77.1862C74.2925 77.1744 74.0169 76.8794 74.0287 76.5274C74.072 75.2301 74.4512 73.3863 74.9882 72.6698C75.1998 72.3882 75.5991 72.3311 75.8805 72.5422C76.1618 72.7537 76.2192 73.1535 76.0079 73.4351C75.723 73.8149 75.3451 75.2981 75.3027 76.5698C75.2912 76.9149 75.0079 77.1865 74.666 77.1865Z" fill="#FF57BC"/>
<path d="M90.9142 76.7173C92.3303 77.2534 95.5785 79.3258 95.7598 80.4136C95.8927 81.2108 93.423 82.0345 93.2369 81.7688C93.0508 81.5032 92.387 80.0682 91.5375 78.8456C90.9052 77.9358 90.2434 77.291 90.1621 76.9087C90.2915 76.8392 90.6414 76.6599 90.9142 76.7173Z" fill="url(#paint56_linear_172_269)"/>
<path d="M64.9652 68.7534C63.7781 60.7467 64.5075 55.8011 64.6098 54.0654C64.7692 51.3548 66.482 49.0961 67.2388 47.0897C67.8618 45.4388 68.7391 44.3791 68.155 43.9805C67.2911 43.3912 65.7252 45.442 65.7252 45.442C65.7252 45.442 65.9776 40.1006 64.809 40.1538C63.8132 40.1991 64.4505 43.3029 63.8928 43.4623C63.3352 43.6218 62.3926 40.5524 61.5427 40.672C61.0825 40.7368 61.0115 41.8545 61.0115 41.8545C61.0115 41.8545 60.7645 41.6469 60.507 41.8679C60.1351 42.1868 60.4611 44.0679 60.1485 44.8176C60.0172 44.632 59.9175 44.4971 59.7237 44.5386C58.2298 44.8574 58.4892 52.6052 58.2633 54.3444C57.901 57.1299 57.6193 62.6514 57.964 69.2897C59.3789 69.4489 62.0105 69.5407 64.9652 68.7534Z" fill="url(#paint57_linear_172_269)"/>
<path d="M115.161 64.0753C114.858 61.152 114.607 58.9549 114.56 58.224C114.401 55.7261 114.295 53.6534 114.029 51.3146C113.763 48.9759 112.861 46.4251 112.701 45.5746C112.542 44.7241 112.839 43.5663 112.429 42.6048C112.084 41.7942 111.666 42.1198 111.666 42.1198C111.666 42.1198 111.638 40.9644 111.134 41.0037C110.537 41.0502 109.74 44.7175 109.329 44.7771C109.092 44.8115 109.382 40.5917 108.665 40.5119C108.15 40.4545 107.768 41.1698 107.271 43.4818C106.841 45.4767 107.472 49.0027 107.151 49.0027C106.793 49.0027 106.593 47.4082 106.235 46.3718C105.876 45.3355 105.458 44.3188 104.92 44.3788C104.386 44.4384 104.295 45.7003 104.534 47.494C104.724 48.9185 106.992 56.098 107.948 59.3666C108.32 60.6405 108.559 62.6664 108.68 64.9653C110.004 65.1535 112.393 65.1987 115.161 64.0753Z" fill="url(#paint58_linear_172_269)"/>
<path d="M60.1034 44.6119C60.2398 44.801 60.3351 45.0283 60.3797 45.2653C60.402 45.3839 60.4141 45.5051 60.4147 45.6272C60.4144 45.7516 60.408 45.8667 60.38 46.0019C60.3618 46.0883 60.2771 46.1441 60.1904 46.1259C60.104 46.1078 60.0483 46.0229 60.0664 45.9362C60.0683 45.927 60.0712 45.9177 60.0747 45.9091L60.0763 45.9053C60.1107 45.8214 60.1391 45.7101 60.1566 45.6074C60.1748 45.5022 60.1831 45.3947 60.1818 45.2866C60.1786 45.0704 60.1318 44.8539 60.0342 44.6514C60.0247 44.6313 60.033 44.6077 60.0527 44.5981C60.0706 44.5895 60.0926 44.5966 60.1034 44.6119ZM61.0639 41.4826C61.0183 41.9045 61.0747 42.3293 61.1493 42.7476C61.1875 42.9571 61.2331 43.1657 61.2812 43.3746C61.3287 43.5847 61.3822 43.7894 61.4224 44.0139C61.438 44.1007 61.3803 44.1836 61.2936 44.1992C61.2069 44.2148 61.1241 44.1571 61.1085 44.0704C61.1075 44.0656 61.1069 44.0611 61.1066 44.0567L61.1062 44.0538C61.0884 43.8519 61.0527 43.6354 61.0237 43.4224C60.9938 43.2084 60.9663 42.9925 60.946 42.776C60.9077 42.3442 60.888 41.901 60.973 41.4698C60.9778 41.445 61.0014 41.4284 61.0266 41.4329C61.0502 41.4367 61.0661 41.459 61.0639 41.4826ZM64.1584 42.5866C64.1664 42.9594 64.1454 43.3318 64.118 43.7033C64.1036 43.8893 64.0864 44.0749 64.0663 44.2604C64.045 44.4476 64.0255 44.6288 63.9873 44.8252C63.9704 44.9116 63.8866 44.9684 63.8002 44.9515C63.7139 44.9346 63.6572 44.8507 63.6741 44.7643C63.675 44.7582 63.6766 44.7525 63.6785 44.7468L63.6798 44.7429C63.7311 44.5803 63.7732 44.396 63.8136 44.2184C63.8538 44.0388 63.8911 43.8583 63.9261 43.6775C63.9946 43.3153 64.0565 42.9511 64.0899 42.5837C64.0915 42.5646 64.1084 42.5506 64.1275 42.5525C64.1447 42.5544 64.1581 42.5691 64.1584 42.5866ZM66.1992 44.8679C65.9175 45.1619 65.7381 45.5465 65.543 45.9104L64.9793 47.0259C64.7868 47.3967 64.5867 47.7657 64.3528 48.1203C64.1132 48.4679 63.8611 48.8279 63.4472 49.0658C63.371 49.1098 63.2735 49.0833 63.2295 49.0068C63.1855 48.9303 63.212 48.833 63.2885 48.789C63.291 48.7874 63.2942 48.7858 63.2968 48.7845L63.3028 48.7817C63.6288 48.6206 63.9019 48.2963 64.1435 47.9739C64.3856 47.6448 64.6017 47.2912 64.8111 46.9334L65.4299 45.8488C65.6453 45.4929 65.8419 45.1163 66.1539 44.8207C66.1673 44.8083 66.1877 44.8089 66.2001 44.822C66.2122 44.8348 66.2119 44.8545 66.2001 44.867L66.1992 44.8679ZM106.959 48.4832C107.043 48.7469 107.218 48.9663 107.413 49.1672C107.61 49.3671 107.829 49.5479 108.054 49.724C108.279 49.9006 108.51 50.0706 108.737 50.2578C108.85 50.3522 108.962 50.4498 109.067 50.5646C109.168 50.6813 109.281 50.8095 109.315 51.0193C109.33 51.1064 109.271 51.1886 109.184 51.203C109.097 51.2173 109.015 51.1587 109.001 51.0716C109 51.0659 108.999 51.0604 108.999 51.055V51.0525C108.994 50.9731 108.926 50.8589 108.843 50.7591C108.76 50.657 108.66 50.5595 108.557 50.4641C108.35 50.2734 108.126 50.0907 107.909 49.9C107.691 49.7099 107.475 49.5126 107.279 49.2919C107.087 49.0728 106.905 48.819 106.828 48.5262L106.826 48.5218C106.817 48.4848 106.839 48.4471 106.875 48.4373C106.911 48.428 106.947 48.4484 106.959 48.4832ZM111.761 41.922C111.789 42.1845 111.786 42.4421 111.787 42.7004C111.786 42.9587 111.781 43.2164 111.773 43.4741C111.755 43.9907 111.736 44.5018 111.692 45.0239C111.685 45.1116 111.607 45.1766 111.52 45.1693C111.432 45.1619 111.367 45.0845 111.374 44.9968C111.374 44.9936 111.375 44.9901 111.375 44.9872L111.376 44.983C111.45 44.484 111.504 43.9693 111.554 43.4604C111.578 43.2052 111.6 42.9495 111.617 42.6944C111.633 42.4396 111.652 42.1822 111.64 41.9319C111.639 41.8988 111.664 41.8704 111.697 41.8681C111.729 41.8665 111.756 41.8908 111.761 41.922Z" fill="#C66C50"/>
<path d="M105.798 128.486C105.081 122.507 105.531 114.362 107.949 108.077C109.728 103.453 114.986 95.2154 116.155 87.5886C116.94 82.4612 115.896 71.1438 115.162 64.0753C112.394 65.1984 110.005 65.1532 108.681 64.9657C108.87 68.5653 108.767 72.8355 108.427 75.9491C107.869 81.0514 104.523 90.7775 100.301 96.1986C96.0786 101.62 92.1749 102.098 88.9086 102.098C84.0888 102.098 75.0865 101.221 69.231 85.1172C66.9009 78.7094 65.6323 73.2504 64.9656 68.7534C62.0109 69.5407 59.3794 69.4492 57.9639 69.2898C58.2503 74.8101 58.9699 81.1021 60.4405 87.2432C62.2977 94.9973 65.6985 102.975 68.8852 108.981C71.7608 114.4 73.2599 123.731 76.3207 131.516C78.2693 136.471 80.8919 143.808 85.6853 148.729C86.1745 141.666 95.3887 134.598 105.798 128.486Z" fill="url(#paint59_linear_172_269)"/>
<path d="M59.7573 79.3631C59.4507 79.3631 59.1547 79.3459 58.8717 79.3105C58.7408 79.2942 58.6477 79.175 58.664 79.0439C58.6802 78.9128 58.8007 78.8194 58.9304 78.836C61.0575 79.1003 63.9707 78.2916 66.5344 76.7272C66.6472 76.6583 66.7941 76.694 66.8629 76.8069C66.9318 76.9198 66.8961 77.0668 66.7833 77.1357C64.4688 78.5483 61.8643 79.3631 59.7573 79.3631ZM61.7391 92.185C61.624 92.185 61.5227 92.1014 61.5036 91.9844C61.4826 91.854 61.5708 91.7312 61.7012 91.7098C63.1297 91.4774 68.3164 88.491 69.7166 86.7189C69.7985 86.6153 69.9489 86.5981 70.0525 86.6797C70.156 86.7616 70.1736 86.9122 70.0917 87.0158C68.6067 88.8947 63.3018 91.934 61.778 92.1821C61.7646 92.184 61.7518 92.185 61.7391 92.185ZM65.238 101.598C65.1217 101.598 65.0198 101.512 65.0019 101.394C64.9825 101.263 65.0723 101.141 65.203 101.122C66.7109 100.896 72.9565 96.2881 73.8889 94.4606C73.9488 94.3429 74.0932 94.296 74.2104 94.3563C74.328 94.4163 74.3749 94.5604 74.3146 94.6781C73.3143 96.6389 66.8935 101.353 65.2737 101.595C65.2616 101.597 65.2498 101.598 65.238 101.598ZM68.8855 109.22C68.7759 109.22 68.6771 109.144 68.6526 109.033C68.6239 108.904 68.7051 108.776 68.8339 108.747C70.1837 108.447 78.443 102.772 79.8926 99.92C79.9525 99.802 80.0962 99.7551 80.2138 99.815C80.3314 99.875 80.3785 100.019 80.3186 100.136C78.8116 103.101 70.4549 108.876 68.9378 109.214C68.9199 109.218 68.9027 109.22 68.8855 109.22ZM112.002 76.2482C110.535 76.2482 109.129 76.0929 108.391 75.8761C108.264 75.8387 108.192 75.7058 108.229 75.5792C108.266 75.4522 108.4 75.3802 108.526 75.4172C110.034 75.8607 114.371 76.0081 116.043 75.1369C116.159 75.076 116.304 75.1216 116.365 75.2386C116.426 75.3556 116.381 75.5001 116.263 75.561C115.304 76.0604 113.616 76.2482 112.002 76.2482ZM114.545 86.2932C111.41 86.2932 107.326 84.9255 106.276 84.3961C106.158 84.3365 106.111 84.1927 106.17 84.075C106.229 83.957 106.374 83.9098 106.491 83.9688C107.654 84.5556 112.639 86.202 115.719 85.7345C115.848 85.7157 115.971 85.8047 115.991 85.9351C116.011 86.0655 115.921 86.1876 115.79 86.2074C115.401 86.2667 114.982 86.2932 114.545 86.2932ZM113.539 96.3835C113.538 96.3835 113.536 96.3835 113.535 96.3835C108.306 96.3006 104.185 92.5616 103.276 91.2089C103.202 91.0992 103.231 90.9506 103.34 90.8769C103.45 90.8032 103.599 90.8323 103.672 90.9416C104.545 92.2389 108.505 95.8251 113.542 95.9048C113.675 95.9071 113.78 96.0158 113.778 96.1478C113.776 96.2786 113.669 96.3835 113.539 96.3835ZM108.553 106.883C108.546 106.883 108.538 106.883 108.53 106.882C103.985 106.446 97.5435 101.302 96.8434 99.6043C96.793 99.4821 96.851 99.3424 96.9731 99.2921C97.0955 99.2417 97.2347 99.3 97.2851 99.4219C97.9374 101.004 104.272 105.994 108.576 106.406C108.707 106.419 108.804 106.536 108.791 106.667C108.779 106.791 108.675 106.883 108.553 106.883ZM82.2564 110.719C75.711 110.719 70.4396 110.377 69.2207 110.015C69.0942 109.977 69.0219 109.844 69.0598 109.718C69.0977 109.591 69.2313 109.519 69.3568 109.556C72.1283 110.379 96.0617 111.09 107.886 107.846C108.014 107.81 108.144 107.886 108.179 108.014C108.214 108.141 108.139 108.273 108.012 108.307C101.307 110.147 90.718 110.719 82.2564 110.719ZM73.2261 122.077C73.1413 122.077 73.0591 122.032 73.0157 121.952C72.9526 121.836 72.9957 121.691 73.112 121.628C77.5978 119.193 90.2601 114.704 106.074 115.148C106.206 115.152 106.31 115.262 106.307 115.394C106.303 115.526 106.195 115.64 106.061 115.627C90.3477 115.189 77.7865 119.635 73.3395 122.049C73.3035 122.068 73.2646 122.077 73.2261 122.077ZM75.8108 130.404C75.7381 130.404 75.6664 130.371 75.6196 130.309C75.5402 130.203 75.5612 130.053 75.6667 129.974C83.0024 124.45 93.0414 121.545 105.505 121.338C105.643 121.339 105.746 121.442 105.748 121.574C105.75 121.706 105.645 121.815 105.512 121.817C93.1523 122.022 83.2073 124.895 75.9538 130.356C75.9111 130.389 75.8608 130.404 75.8108 130.404ZM79.0191 138.403C78.9637 138.403 78.9076 138.384 78.8623 138.344C78.7626 138.258 78.7521 138.107 78.8387 138.007C79.7361 136.974 93.6019 127.646 105.588 126.329C105.719 126.309 105.837 126.409 105.852 126.54C105.866 126.672 105.771 126.79 105.64 126.804C94.3489 128.045 80.3084 137.044 79.1995 138.321C79.1526 138.375 79.086 138.403 79.0191 138.403Z" fill="#FFA2BA"/>
<path d="M116.431 82.1404C111.877 85.4339 114.294 91.0135 115.034 92.1659C115.528 90.6378 115.922 89.1014 116.154 87.5886C116.371 86.1721 116.448 84.2817 116.431 82.1404Z" fill="url(#paint60_linear_172_269)"/>
<path d="M59.5293 82.9114C59.7957 84.3556 60.0956 85.8037 60.4404 87.2432C60.8148 88.8073 61.2549 90.3798 61.7405 91.9442C65.5903 88.5713 62.8849 83.2076 59.5293 82.9114Z" fill="url(#paint61_linear_172_269)"/>
<path d="M124.095 139.327C124.095 139.327 102.292 149.267 104.682 150.755C107.072 152.243 113.473 154.196 118.65 156.017C124.503 158.076 129.857 160.641 129.857 160.641C129.857 160.641 126.073 164.321 122.421 168.666C122.129 169.014 121.821 169.397 121.503 169.806C122.753 171.601 125.901 174.69 130.519 175.768C136.072 171.951 145.47 165.155 146.029 159.498C146.793 151.762 125.812 140.087 124.095 139.327Z" fill="url(#paint62_linear_172_269)"/>
<path d="M143.206 153.238C141.855 155.094 140.077 160.188 143.702 164.501C144.997 162.804 145.87 161.105 146.029 159.498C146.218 157.578 145.068 155.416 143.206 153.238Z" fill="url(#paint63_linear_172_269)"/>
<path d="M121.504 169.806C118.329 173.886 114.149 180.543 113.956 181.219C113.744 181.963 114.136 184.239 114.827 185.94C115.517 187.64 119.341 192.862 120.031 192.211C120.962 191.333 119.872 184.823 120.244 183.601C120.616 182.378 123.563 180.625 127.626 177.755C128.337 177.253 129.342 176.577 130.519 175.768C125.901 174.69 122.753 171.601 121.504 169.806Z" fill="url(#paint64_linear_172_269)"/>
<path d="M132.332 174.745C132.319 174.745 132.306 174.744 132.292 174.742C129.114 174.199 123.615 169.897 122.537 168.444C122.459 168.338 122.481 168.188 122.587 168.109C122.693 168.031 122.843 168.053 122.921 168.159C123.857 169.421 129.274 173.741 132.372 174.27C132.502 174.292 132.59 174.416 132.568 174.546C132.548 174.663 132.447 174.745 132.332 174.745Z" fill="#6022B6"/>
<path d="M126.293 171.645C126.226 171.645 126.16 171.617 126.113 171.563C126.026 171.464 126.036 171.313 126.136 171.226C126.213 171.158 133.867 164.417 133.867 160.163C133.867 154.659 114.337 148.151 109.503 146.835C109.375 146.8 109.3 146.669 109.335 146.541C109.369 146.414 109.501 146.339 109.628 146.373C109.875 146.441 134.345 153.406 134.345 160.163C134.345 164.634 126.772 171.304 126.45 171.586C126.405 171.626 126.349 171.645 126.293 171.645Z" fill="#6022B6"/>
<path d="M115.047 179.267C114.421 180.293 114.013 181.019 113.956 181.219C113.824 181.684 113.927 182.745 114.191 183.891C115.84 182.668 115.495 180.468 115.047 179.267Z" fill="url(#paint65_linear_172_269)"/>
<path d="M114.959 186.843C115.437 186.604 120.205 185.752 121.04 186.657C121.379 187.024 121.199 192.689 120.297 193.114C119.509 193.485 117.116 190.817 116.538 189.997C115.961 189.177 114.959 186.843 114.959 186.843Z" fill="url(#paint66_linear_172_269)"/>
<path d="M119.818 193.579C119.713 193.579 119.606 193.554 119.508 193.498C113.676 190.238 112.348 181.594 112.336 181.508C112.289 181.159 112.533 180.837 112.881 180.79C113.23 180.741 113.551 180.986 113.599 181.335C113.61 181.415 114.924 189.474 120.129 192.384C120.436 192.556 120.547 192.945 120.375 193.252C120.259 193.462 120.042 193.579 119.818 193.579Z" fill="url(#paint67_linear_172_269)"/>
<path d="M156.095 132.936C150.118 126.966 141.724 120.457 132.645 120.275C120.721 120.036 108.771 127.211 105.797 128.486C95.3877 134.598 86.1734 141.666 85.6846 148.729C88.812 151.94 92.8629 154.123 98.255 153.944C115.888 153.36 121.412 137.893 133.892 137.787C138.87 137.745 143.816 139.616 148.188 141.861C149.905 140.557 153.802 136.114 156.095 132.936Z" fill="url(#paint68_linear_172_269)"/>
<path d="M97.8695 148.423C91.5729 148.423 87.6584 144.44 87.1932 143.941C87.103 143.845 87.1084 143.693 87.205 143.603C87.3012 143.513 87.4523 143.518 87.5428 143.615C88.0399 144.148 92.6086 148.794 99.8704 147.808C103.627 147.298 107.328 144.786 111.615 141.877C117.496 137.887 124.16 133.365 132.821 132.977C143.454 132.5 150.275 137.545 150.342 137.596C150.448 137.675 150.469 137.825 150.389 137.931C150.31 138.036 150.16 138.057 150.055 137.978C149.988 137.928 143.297 132.989 132.842 133.455C124.316 133.837 117.711 138.319 111.883 142.273C107.546 145.216 103.801 147.756 99.9338 148.281C99.2203 148.379 98.5314 148.423 97.8695 148.423Z" fill="#00E2EC"/>
<path d="M93.5457 147.761C93.4677 147.761 93.3912 147.723 93.3453 147.653C93.2733 147.542 93.3048 147.393 93.4154 147.322C94.0499 146.909 94.4539 145.867 94.5839 144.308C94.8271 141.394 94.0269 137.593 93.4247 137.039C93.3275 136.95 93.3211 136.798 93.4106 136.701C93.5002 136.604 93.6512 136.598 93.7484 136.687C94.5062 137.384 95.3086 141.374 95.0607 144.347C94.9157 146.083 94.4498 147.219 93.6764 147.723C93.6356 147.749 93.5904 147.761 93.5457 147.761Z" fill="#00E2EC"/>
<path d="M173.726 143.049C173.195 142.411 166.702 143.554 164.989 142.756C164.337 142.453 161.044 137.879 156.095 132.936C153.802 136.114 149.904 140.556 148.188 141.861C154.584 145.145 159.754 149.23 162.003 149.295C166.064 149.413 174.257 143.687 173.726 143.049Z" fill="url(#paint69_linear_172_269)"/>
<path d="M146.7 141.364C146.617 141.364 146.536 141.32 146.492 141.242C146.427 141.127 146.468 140.981 146.582 140.916C147.656 140.309 153.108 134.944 154.395 131.419C154.44 131.295 154.578 131.231 154.702 131.277C154.826 131.322 154.889 131.459 154.844 131.584C153.495 135.278 147.957 140.689 146.817 141.333C146.78 141.354 146.74 141.364 146.7 141.364Z" fill="#00E2EC"/>
<path d="M133.84 124.925C136.889 124.889 139.069 122.991 140.144 121.793C137.725 120.885 135.212 120.326 132.645 120.275C130.494 120.232 128.343 120.432 126.243 120.794C127.385 122.569 130.086 124.97 133.84 124.925Z" fill="url(#paint70_linear_172_269)"/>
<path d="M162.572 147.301C161.194 147.24 160.227 147.972 159.84 148.59C160.72 149.021 161.45 149.28 162.003 149.296C162.818 149.32 163.8 149.105 164.844 148.746C164.517 148.146 163.848 147.357 162.572 147.301Z" fill="url(#paint71_linear_172_269)"/>
<path d="M170.407 141.202C169.722 141.419 168.463 145.251 170.55 148.169C171.143 147.598 173.317 145.415 173.96 144.673C174.604 143.931 176.82 140.883 176.978 140.618C177.135 140.354 173.175 140.325 170.407 141.202Z" fill="url(#paint72_linear_172_269)"/>
<path d="M165.627 153.12C165.429 153.12 165.233 153.027 165.108 152.853C164.903 152.567 164.97 152.168 165.257 151.963C165.868 151.526 173.651 145.087 176.148 140.725C176.322 140.42 176.712 140.314 177.017 140.489C177.322 140.664 177.428 141.054 177.253 141.359C174.605 145.986 166.655 152.531 165.997 153.002C165.885 153.082 165.756 153.12 165.627 153.12Z" fill="url(#paint73_linear_172_269)"/>
<path d="M111.641 169.743L111.668 169.734C111.885 169.651 111.995 169.404 111.912 169.184C111.849 169.02 111.689 168.91 111.514 168.91C111.462 168.91 111.411 168.92 111.361 168.938C110.377 169.315 109.304 169.661 107.883 170.06C106.822 170.349 105.689 170.612 104.315 170.887C102.076 171.337 99.7003 171.658 97.0531 171.865C95.1844 172.003 93.3161 172.072 91.4984 172.072C88.4048 172.072 85.3654 171.871 82.4649 171.475C79.847 171.116 77.5427 170.626 75.4204 169.975C74.1627 169.588 73.0954 169.172 72.1576 168.704C71.6175 168.433 71.1305 168.148 70.7102 167.856C70.5984 167.778 70.4887 167.698 70.3845 167.618L70.2386 167.502L70.0758 167.368C69.8556 167.184 69.6452 166.996 69.4499 166.809C68.5956 165.991 67.9706 165.128 67.5927 164.243C67.1941 163.314 67.0554 162.336 67.1816 161.337C67.3002 160.394 67.6775 159.41 68.2727 158.492C68.5605 158.044 68.8865 157.634 69.2412 157.274C69.5439 156.965 69.9894 156.591 70.3007 156.454L70.3323 156.44C70.6608 156.286 70.9094 156.013 71.0327 155.672C71.156 155.331 71.1391 154.962 70.9852 154.634C70.7625 154.159 70.2797 153.852 69.7555 153.852C69.5563 153.852 69.3629 153.895 69.1806 153.981C68.3323 154.379 67.8056 154.865 67.2967 155.369C66.8094 155.868 66.3789 156.412 65.9847 157.028C65.1836 158.295 64.6995 159.642 64.5472 161.032C64.4663 161.78 64.4873 162.518 64.6103 163.226C64.7355 163.941 64.9592 164.64 65.2754 165.305C65.8327 166.48 66.6864 167.586 67.8126 168.592C68.0592 168.811 68.3189 169.027 68.5844 169.233L68.7852 169.384L69.006 169.541C69.1465 169.637 69.2887 169.73 69.4349 169.82C69.97 170.151 70.5518 170.453 71.2131 170.743C72.3007 171.216 73.4638 171.602 74.873 171.958C77.0345 172.493 79.3955 172.843 82.3027 173.06C83.8775 173.176 85.5183 173.232 87.3182 173.232C88.0951 173.232 88.8866 173.222 89.7381 173.201C92.0465 173.149 94.4646 172.982 97.1305 172.691C102.57 172.088 107.317 171.125 111.641 169.743Z" fill="url(#paint74_linear_172_269)"/>
<path d="M126.309 199.426C128.269 198.781 129.986 197.995 131.561 197.02C133.481 195.814 134.902 194.442 135.902 192.827C137.083 190.922 137.606 188.544 137.302 186.466C137.216 185.909 137.069 185.357 136.867 184.827C136.668 184.287 136.398 183.757 136.063 183.248C135.684 182.687 135.265 182.225 134.786 181.84C134.517 181.623 134.226 181.432 133.92 181.273C133.771 181.196 133.61 181.123 133.426 181.051C133.346 181.021 133.259 180.99 133.145 180.955L133.061 180.929L133.025 180.92L132.945 180.9C132.805 180.865 132.661 180.848 132.516 180.848C131.754 180.848 131.07 181.327 130.813 182.039C130.477 182.974 130.964 184.008 131.898 184.345L131.981 184.375C132.022 184.389 132.074 184.408 132.124 184.454C132.15 184.468 132.174 184.484 132.2 184.501C132.286 184.552 132.367 184.617 132.452 184.686L132.456 184.689L132.47 184.7C132.675 184.876 132.872 185.093 133.04 185.329C133.386 185.793 133.692 186.434 133.921 187.174C134.174 187.958 134.297 188.691 134.284 189.35C134.275 189.548 134.265 189.733 134.23 189.923C134.215 190.009 134.198 190.1 134.179 190.189L134.15 190.31L134.148 190.319L134.145 190.328L134.099 190.486C134 190.826 133.85 191.214 133.675 191.575C133.032 192.912 131.907 194.226 130.422 195.374C129.173 196.351 127.655 197.212 125.784 198.003C122.666 199.289 119.09 200.131 115.153 200.507C113.632 200.649 112.08 200.722 110.54 200.722C108.405 200.722 106.245 200.583 104.12 200.311C104.105 200.309 104.092 200.308 104.079 200.308C103.924 200.308 103.793 200.425 103.774 200.58C103.764 200.662 103.786 200.743 103.837 200.808C103.888 200.874 103.961 200.915 104.043 200.925C106.875 201.271 109.625 201.447 112.216 201.447C113.226 201.447 114.235 201.42 115.215 201.368C117.242 201.259 119.07 201.063 120.804 200.767C122.747 200.446 124.599 199.994 126.309 199.426Z" fill="url(#paint75_linear_172_269)"/>
<path d="M142.644 189.006C142.564 189.006 142.496 189.069 142.489 189.15C142.438 189.771 142.325 190.375 142.154 190.953C141.997 191.478 141.776 192.023 141.479 192.619C140.983 193.598 140.277 194.565 139.379 195.494C138.538 196.354 137.614 197.085 136.63 197.667C136.133 197.959 135.619 198.205 135.136 198.426C134.866 198.547 134.605 198.656 134.407 198.737L134.05 198.876L133.902 198.935C133.874 198.947 133.833 198.964 133.78 198.981L133.674 199.016C133.263 199.156 132.984 199.556 132.995 199.989C133.01 200.535 133.448 200.962 133.993 200.962L134.02 200.962L134.139 200.958C134.171 200.958 134.203 200.957 134.241 200.951L134.244 200.951L134.262 200.949C134.358 200.937 134.45 200.926 134.531 200.912C134.727 200.879 134.898 200.842 135.055 200.799C135.379 200.712 135.711 200.593 136.044 200.441C136.597 200.194 137.135 199.864 137.789 199.369C138.851 198.562 139.795 197.6 140.596 196.511C141.396 195.424 142.008 194.242 142.416 192.999C142.836 191.699 142.969 190.365 142.801 189.142C142.791 189.069 142.73 189.013 142.658 189.007L142.651 188.849C142.649 188.848 142.647 188.847 142.645 188.847V189.006H142.644Z" fill="url(#paint76_linear_172_269)"/>
<path d="M185.903 145.716C185.259 145.716 184.73 146.24 184.725 146.885C184.719 147.619 184.587 148.472 184.321 149.494C184.09 150.371 183.787 151.248 183.419 152.1C182.667 153.842 181.722 155.469 180.613 156.937C179.477 158.44 178.167 159.823 176.723 161.049C175.159 162.385 173.527 163.409 171.874 164.091C171.868 164.093 171.86 164.097 171.853 164.101C171.808 164.126 171.776 164.167 171.762 164.216C171.748 164.265 171.755 164.317 171.78 164.361C171.813 164.422 171.878 164.46 171.947 164.46C171.98 164.46 172.011 164.452 172.04 164.435C173.845 163.425 175.464 162.501 177.011 161.422C178.601 160.311 180.074 159.019 181.387 157.584C182.78 156.054 183.953 154.453 184.87 152.826C185.409 151.865 185.84 150.981 186.184 150.126C186.637 148.988 186.907 148.065 187.057 147.136L187.067 147.075C187.075 147.022 187.08 146.964 187.081 146.905C187.086 146.255 186.562 145.722 185.913 145.716L185.908 145.557C185.906 145.557 185.904 145.557 185.902 145.557V145.716H185.903Z" fill="url(#paint77_linear_172_269)"/>
<path d="M63.1136 115.871L63.1311 115.86C63.2831 115.762 63.3271 115.559 63.2293 115.408C63.169 115.314 63.0661 115.258 62.9542 115.258C62.8918 115.258 62.8306 115.276 62.7777 115.31C61.981 115.824 61.1509 116.311 60.3479 116.783C60.069 116.947 59.7896 117.111 59.5104 117.277C58.2217 118.03 57.2013 118.696 56.297 119.376C55.2546 120.181 54.2457 121.004 53.3974 122.188C52.913 122.879 52.5944 123.562 52.4258 124.273C52.1989 125.182 52.3044 126.164 52.3872 126.669L52.4054 126.782C52.4217 126.877 52.4494 126.974 52.487 127.069C52.7043 127.613 53.2231 127.964 53.8082 127.964C53.9889 127.964 54.1664 127.93 54.3359 127.862C55.064 127.571 55.4197 126.74 55.1284 126.011C54.9423 125.546 54.8266 125.163 54.8247 124.691C54.8206 124.26 54.9423 123.767 55.1765 123.265C55.5854 122.387 56.281 121.444 57.2444 120.461C58.0098 119.674 58.9097 118.865 59.9945 117.988C61.0789 117.129 62.0983 116.437 63.1136 115.871Z" fill="url(#paint78_linear_172_269)"/>
<path d="M193.966 144.421C193.85 144.281 193.722 144.216 193.563 144.216C193.526 144.216 193.486 144.219 193.446 144.226C192.799 144.34 192.762 145.027 192.836 146.458C192.865 147.029 192.896 147.62 192.831 148.174C192.722 149.114 192.262 149.84 191.926 150.37C191.743 150.658 191.516 151.017 191.582 151.098C191.583 151.098 191.583 151.098 191.584 151.098C191.588 151.098 191.597 151.099 191.611 151.099C192.174 151.099 193.83 149.636 194.193 147.719C194.477 146.225 194.387 144.93 193.966 144.421Z" fill="url(#paint79_linear_172_269)"/>
<path d="M154.347 155.228C154.138 154.938 153.863 154.797 153.507 154.797C153.448 154.797 153.385 154.801 153.321 154.809C152.329 154.936 152.38 156.071 152.545 157.912C152.615 158.69 152.688 159.495 152.629 160.235C152.53 161.477 151.955 162.462 151.535 163.181C151.181 163.787 150.972 164.166 151.133 164.316C151.16 164.341 151.186 164.35 151.226 164.35C151.819 164.35 153.307 162.576 154.198 159.902C154.884 157.844 154.941 156.053 154.347 155.228Z" fill="url(#paint80_linear_172_269)"/>
<path d="M60.1229 110.918C60.1235 110.646 60.0483 110.432 59.8989 110.282C59.6997 110.083 59.3568 109.977 58.9068 109.977C57.8546 109.977 56.39 110.543 54.9888 111.491C53.2068 112.696 51.9816 113.799 51.4121 114.444C51.4347 114.431 51.4574 114.418 51.4797 114.404C52.2416 113.951 53.3926 113.266 54.8085 112.891C55.6147 112.677 56.441 112.559 57.1695 112.456C59.0534 112.187 60.1197 111.983 60.1229 110.918Z" fill="url(#paint81_linear_172_269)"/>
<path d="M83.9082 164.506C83.6475 164.167 82.9783 163.934 82.1176 163.882C81.9838 163.874 81.8235 163.87 81.6425 163.866C80.4229 163.835 78.3816 163.785 76.9074 162.488C75.0607 160.863 74.8922 159.135 74.8112 158.304C74.8061 158.253 74.8007 158.197 74.795 158.145C74.7637 158.178 74.7306 158.226 74.6971 158.292C74.2861 159.113 74.5429 161.491 75.7398 163.094C76.7223 164.409 78.7162 165.78 80.9554 165.876C81.2241 165.888 81.4624 165.894 81.6842 165.894C83.5809 165.894 83.9263 165.449 84.014 165.013C84.0541 164.813 84.0207 164.652 83.9082 164.506Z" fill="url(#paint82_linear_172_269)"/>
<defs>
<linearGradient id="paint0_linear_172_269" x1="24.8817" y1="85.9543" x2="48.9149" y2="85.9543" gradientUnits="userSpaceOnUse">
<stop stop-color="#B0E1FF"/>
<stop offset="1" stop-color="white"/>
</linearGradient>
<linearGradient id="paint1_linear_172_269" x1="28.3548" y1="89.1193" x2="46.4452" y2="89.1193" gradientUnits="userSpaceOnUse">
<stop stop-color="#00E2EC"/>
<stop offset="1" stop-color="#0090B2"/>
</linearGradient>
<linearGradient id="paint2_linear_172_269" x1="109.946" y1="222.092" x2="109.946" y2="177.917" gradientUnits="userSpaceOnUse">
<stop stop-color="#6B49C0"/>
<stop offset="1" stop-color="#5E7ED9"/>
</linearGradient>
<linearGradient id="paint3_linear_172_269" x1="129.06" y1="34.7181" x2="131.078" y2="34.7181" gradientUnits="userSpaceOnUse">
<stop stop-color="white"/>
<stop offset="1" stop-color="#B0E1FF"/>
</linearGradient>
<linearGradient id="paint4_linear_172_269" x1="126.803" y1="14.9617" x2="161.907" y2="14.9617" gradientUnits="userSpaceOnUse">
<stop stop-color="white"/>
<stop offset="1" stop-color="#B0E1FF"/>
</linearGradient>
<linearGradient id="paint5_linear_172_269" x1="126.803" y1="37.9749" x2="166.54" y2="37.9749" gradientUnits="userSpaceOnUse">
<stop stop-color="white"/>
<stop offset="1" stop-color="#B0E1FF"/>
</linearGradient>
<linearGradient id="paint6_linear_172_269" x1="126.803" y1="63.9379" x2="166.052" y2="63.9379" gradientUnits="userSpaceOnUse">
<stop stop-color="white"/>
<stop offset="1" stop-color="#B0E1FF"/>
</linearGradient>
<linearGradient id="paint7_linear_172_269" x1="24.8818" y1="85.9543" x2="46.4456" y2="85.9543" gradientUnits="userSpaceOnUse">
<stop stop-color="#8C6AE2"/>
<stop offset="1" stop-color="#5A55F8"/>
</linearGradient>
<linearGradient id="paint8_linear_172_269" x1="35.1595" y1="90.6977" x2="41.9576" y2="90.6977" gradientUnits="userSpaceOnUse">
<stop stop-color="#C07EB0"/>
<stop offset="1" stop-color="#EE5C95"/>
</linearGradient>
<linearGradient id="paint9_linear_172_269" x1="38.2703" y1="212.617" x2="65.2757" y2="212.617" gradientUnits="userSpaceOnUse">
<stop stop-color="#C07EB0"/>
<stop offset="1" stop-color="#EE5C95"/>
</linearGradient>
<linearGradient id="paint10_linear_172_269" x1="45.41" y1="193.432" x2="58.008" y2="206.022" gradientUnits="userSpaceOnUse">
<stop stop-color="#8173CC"/>
<stop offset="1" stop-color="#271068"/>
</linearGradient>
<linearGradient id="paint11_linear_172_269" x1="45.8478" y1="142.871" x2="52.3196" y2="142.871" gradientUnits="userSpaceOnUse">
<stop stop-color="#FDE1A7"/>
<stop offset="1" stop-color="#F9A144"/>
</linearGradient>
<linearGradient id="paint12_linear_172_269" x1="52.0723" y1="188.731" x2="85.5524" y2="188.731" gradientUnits="userSpaceOnUse">
<stop stop-color="#00E2EC"/>
<stop offset="1" stop-color="#0090B2"/>
</linearGradient>
<linearGradient id="paint13_linear_172_269" x1="56.1641" y1="193.773" x2="66.8378" y2="193.773" gradientUnits="userSpaceOnUse">
<stop stop-color="#FDE1A7"/>
<stop offset="1" stop-color="#F9A144"/>
</linearGradient>
<linearGradient id="paint14_linear_172_269" x1="32.7714" y1="179.66" x2="48.0126" y2="179.66" gradientUnits="userSpaceOnUse">
<stop stop-color="#5A55F8"/>
<stop offset="0.31" stop-color="#6E5EEF"/>
<stop offset="0.729" stop-color="#8467E5"/>
<stop offset="1" stop-color="#8C6AE2"/>
</linearGradient>
<linearGradient id="paint15_linear_172_269" x1="48.4396" y1="170.602" x2="64.0717" y2="170.602" gradientUnits="userSpaceOnUse">
<stop stop-color="#5A55F8"/>
<stop offset="1" stop-color="#8C6AE2"/>
</linearGradient>
<linearGradient id="paint16_linear_172_269" x1="36.7231" y1="174.78" x2="63.5019" y2="174.78" gradientUnits="userSpaceOnUse">
<stop stop-color="#FF57BD"/>
<stop offset="1" stop-color="#FE6A77"/>
</linearGradient>
<linearGradient id="paint17_linear_172_269" x1="68.2118" y1="189.438" x2="74.7919" y2="189.438" gradientUnits="userSpaceOnUse">
<stop stop-color="#00E2EC"/>
<stop offset="1" stop-color="#0090B2"/>
</linearGradient>
<linearGradient id="paint18_linear_172_269" x1="164.684" y1="122.507" x2="164.684" y2="112.861" gradientUnits="userSpaceOnUse">
<stop stop-color="white"/>
<stop offset="1" stop-color="#E9B6F2"/>
</linearGradient>
<linearGradient id="paint19_linear_172_269" x1="132.672" y1="94.8434" x2="194.812" y2="94.8434" gradientUnits="userSpaceOnUse">
<stop stop-color="white"/>
<stop offset="1" stop-color="#F1D1F8"/>
</linearGradient>
<linearGradient id="paint20_linear_172_269" x1="135.115" y1="94.0994" x2="191.413" y2="94.0994" gradientUnits="userSpaceOnUse">
<stop stop-color="#00E2EC"/>
<stop offset="1" stop-color="#0090B2"/>
</linearGradient>
<linearGradient id="paint21_linear_172_269" x1="154.063" y1="84.323" x2="188.161" y2="84.323" gradientUnits="userSpaceOnUse">
<stop stop-color="#FDE1A7"/>
<stop offset="1" stop-color="#F9A144"/>
</linearGradient>
<linearGradient id="paint22_linear_172_269" x1="132.196" y1="94.076" x2="174.895" y2="94.076" gradientUnits="userSpaceOnUse">
<stop stop-color="#7523AF"/>
<stop offset="0.123" stop-color="#6D2EB2"/>
<stop offset="0.34" stop-color="#594CBA"/>
<stop offset="0.625" stop-color="#387CC7"/>
<stop offset="0.964" stop-color="#0ABED8"/>
<stop offset="1" stop-color="#05C5DA"/>
</linearGradient>
<linearGradient id="paint23_linear_172_269" x1="171.676" y1="100.477" x2="171.676" y2="83.8998" gradientUnits="userSpaceOnUse">
<stop stop-color="#170389"/>
<stop offset="0.422" stop-color="#3B0E9F"/>
<stop offset="0.777" stop-color="#5215AD"/>
<stop offset="1" stop-color="#5A18B2"/>
</linearGradient>
<linearGradient id="paint24_linear_172_269" x1="126.613" y1="86.4785" x2="136.415" y2="86.4785" gradientUnits="userSpaceOnUse">
<stop stop-color="#170389"/>
<stop offset="0.077" stop-color="#1C058C"/>
<stop offset="1" stop-color="#5A18B2"/>
</linearGradient>
<linearGradient id="paint25_linear_172_269" x1="149.21" y1="98.1383" x2="162.684" y2="98.1383" gradientUnits="userSpaceOnUse">
<stop stop-color="#170389"/>
<stop offset="0.077" stop-color="#1C058C"/>
<stop offset="1" stop-color="#5A18B2"/>
</linearGradient>
<linearGradient id="paint26_linear_172_269" x1="124.437" y1="88.5127" x2="131.849" y2="88.5127" gradientUnits="userSpaceOnUse">
<stop stop-color="#170389"/>
<stop offset="0.077" stop-color="#1C058C"/>
<stop offset="1" stop-color="#5A18B2"/>
</linearGradient>
<linearGradient id="paint27_linear_172_269" x1="127.466" y1="88.4655" x2="131.849" y2="88.4655" gradientUnits="userSpaceOnUse">
<stop stop-color="#F6E2FB"/>
<stop offset="1" stop-color="#FF9BBB"/>
</linearGradient>
<linearGradient id="paint28_linear_172_269" x1="129.121" y1="78.8862" x2="133.449" y2="78.8862" gradientUnits="userSpaceOnUse">
<stop stop-color="#F6E2FB"/>
<stop offset="1" stop-color="#FF9BBB"/>
</linearGradient>
<linearGradient id="paint29_linear_172_269" x1="127.786" y1="93.4941" x2="141.562" y2="93.4941" gradientUnits="userSpaceOnUse">
<stop stop-color="#FF9BBB"/>
<stop offset="1" stop-color="#F6E2FB"/>
</linearGradient>
<linearGradient id="paint30_linear_172_269" x1="172.668" y1="94.5662" x2="181.537" y2="103.429" gradientUnits="userSpaceOnUse">
<stop stop-color="#FDE1A7"/>
<stop offset="1" stop-color="#F9A144"/>
</linearGradient>
<linearGradient id="paint31_linear_172_269" x1="172.296" y1="99.2093" x2="181.132" y2="99.2093" gradientUnits="userSpaceOnUse">
<stop stop-color="#C91C91"/>
<stop offset="1" stop-color="#FE6A77"/>
</linearGradient>
<linearGradient id="paint32_linear_172_269" x1="201.822" y1="115.748" x2="209.523" y2="115.748" gradientUnits="userSpaceOnUse">
<stop stop-color="#FF57BD"/>
<stop offset="1" stop-color="#FE6A77"/>
</linearGradient>
<linearGradient id="paint33_linear_172_269" x1="192.368" y1="116.52" x2="205.925" y2="116.52" gradientUnits="userSpaceOnUse">
<stop stop-color="#C07EB0"/>
<stop offset="1" stop-color="#EE5C95"/>
</linearGradient>
<linearGradient id="paint34_linear_172_269" x1="196.403" y1="106.64" x2="201.909" y2="112.142" gradientUnits="userSpaceOnUse">
<stop stop-color="#994574"/>
<stop offset="1" stop-color="#43256F"/>
</linearGradient>
<linearGradient id="paint35_linear_172_269" x1="196.723" y1="101.73" x2="207.905" y2="101.73" gradientUnits="userSpaceOnUse">
<stop stop-color="white"/>
<stop offset="1" stop-color="#FDE1A7"/>
</linearGradient>
<linearGradient id="paint36_linear_172_269" x1="189.425" y1="96.4875" x2="195.106" y2="96.4875" gradientUnits="userSpaceOnUse">
<stop stop-color="white"/>
<stop offset="1" stop-color="#FDE1A7"/>
</linearGradient>
<linearGradient id="paint37_linear_172_269" x1="187.623" y1="102.873" x2="192.302" y2="102.873" gradientUnits="userSpaceOnUse">
<stop stop-color="white"/>
<stop offset="1" stop-color="#FDE1A7"/>
</linearGradient>
<linearGradient id="paint38_linear_172_269" x1="197.866" y1="133.163" x2="197.866" y2="124.607" gradientUnits="userSpaceOnUse">
<stop stop-color="#FFE2A8"/>
<stop offset="1" stop-color="#A482FF"/>
</linearGradient>
<linearGradient id="paint39_linear_172_269" x1="140.943" y1="124.572" x2="226.997" y2="124.572" gradientUnits="userSpaceOnUse">
<stop stop-color="#F9A144"/>
<stop offset="1" stop-color="#FDE1A7"/>
</linearGradient>
<linearGradient id="paint40_linear_172_269" x1="103.805" y1="191.313" x2="103.805" y2="162.408" gradientUnits="userSpaceOnUse">
<stop stop-color="#8173CC"/>
<stop offset="1" stop-color="#271068"/>
</linearGradient>
<linearGradient id="paint41_linear_172_269" x1="59.4387" y1="129.569" x2="86.9772" y2="129.569" gradientUnits="userSpaceOnUse">
<stop stop-color="#994574"/>
<stop offset="1" stop-color="#43256F"/>
</linearGradient>
<linearGradient id="paint42_linear_172_269" x1="59.3358" y1="133.543" x2="79.3395" y2="133.543" gradientUnits="userSpaceOnUse">
<stop stop-color="#8173CC"/>
<stop offset="1" stop-color="#271068"/>
</linearGradient>
<linearGradient id="paint43_linear_172_269" x1="84.284" y1="156.185" x2="122.213" y2="156.185" gradientUnits="userSpaceOnUse">
<stop stop-color="#994574"/>
<stop offset="1" stop-color="#43256F"/>
</linearGradient>
<linearGradient id="paint44_linear_172_269" x1="84.2868" y1="159.193" x2="122.213" y2="159.193" gradientUnits="userSpaceOnUse">
<stop stop-color="#8173CC"/>
<stop offset="1" stop-color="#271068"/>
</linearGradient>
<linearGradient id="paint45_linear_172_269" x1="77.3105" y1="199.089" x2="116.528" y2="199.089" gradientUnits="userSpaceOnUse">
<stop stop-color="#271068"/>
<stop offset="1" stop-color="#8173CC"/>
</linearGradient>
<linearGradient id="paint46_linear_172_269" x1="77.0111" y1="208.474" x2="85.0838" y2="208.474" gradientUnits="userSpaceOnUse">
<stop stop-color="#994574"/>
<stop offset="1" stop-color="#43256F"/>
</linearGradient>
<linearGradient id="paint47_linear_172_269" x1="112.638" y1="195.5" x2="119.069" y2="195.5" gradientUnits="userSpaceOnUse">
<stop stop-color="#994574"/>
<stop offset="1" stop-color="#43256F"/>
</linearGradient>
<linearGradient id="paint48_linear_172_269" x1="88.6295" y1="104.507" x2="88.6295" y2="87.4155" gradientUnits="userSpaceOnUse">
<stop stop-color="#E8878E"/>
<stop offset="0.219" stop-color="#E58589"/>
<stop offset="0.469" stop-color="#DE7F7B"/>
<stop offset="0.735" stop-color="#D27565"/>
<stop offset="1" stop-color="#C16846"/>
</linearGradient>
<linearGradient id="paint49_linear_172_269" x1="76.5858" y1="80.4717" x2="97.8176" y2="80.4717" gradientUnits="userSpaceOnUse">
<stop stop-color="#E8878E"/>
<stop offset="1" stop-color="#F4BEA3"/>
</linearGradient>
<linearGradient id="paint50_linear_172_269" x1="69.3015" y1="74.1341" x2="95.5291" y2="74.1341" gradientUnits="userSpaceOnUse">
<stop stop-color="#994574"/>
<stop offset="1" stop-color="#43256F"/>
</linearGradient>
<linearGradient id="paint51_linear_172_269" x1="84.2113" y1="54.7769" x2="84.2113" y2="37.5684" gradientUnits="userSpaceOnUse">
<stop stop-color="#FDE1A7"/>
<stop offset="1" stop-color="white"/>
</linearGradient>
<linearGradient id="paint52_linear_172_269" x1="75.758" y1="56.1896" x2="75.758" y2="44.729" gradientUnits="userSpaceOnUse">
<stop stop-color="#FDE1A7"/>
<stop offset="1" stop-color="white"/>
</linearGradient>
<linearGradient id="paint53_linear_172_269" x1="91.8666" y1="53.7928" x2="91.8666" y2="41.0172" gradientUnits="userSpaceOnUse">
<stop stop-color="#FDE1A7"/>
<stop offset="1" stop-color="white"/>
</linearGradient>
<linearGradient id="paint54_linear_172_269" x1="96.1588" y1="54.8406" x2="96.1588" y2="49.2084" gradientUnits="userSpaceOnUse">
<stop stop-color="#FDE1A7"/>
<stop offset="1" stop-color="white"/>
</linearGradient>
<linearGradient id="paint55_linear_172_269" x1="80.7311" y1="78.7391" x2="96.1865" y2="78.7391" gradientUnits="userSpaceOnUse">
<stop stop-color="#5A55F8"/>
<stop offset="1" stop-color="#8C6AE2"/>
</linearGradient>
<linearGradient id="paint56_linear_172_269" x1="90.1621" y1="79.263" x2="95.7649" y2="79.263" gradientUnits="userSpaceOnUse">
<stop stop-color="#FF57BD"/>
<stop offset="1" stop-color="#FE6A77"/>
</linearGradient>
<linearGradient id="paint57_linear_172_269" x1="57.8073" y1="54.7755" x2="68.3468" y2="54.7755" gradientUnits="userSpaceOnUse">
<stop stop-color="#E8878E"/>
<stop offset="1" stop-color="#F4BEA3"/>
</linearGradient>
<linearGradient id="paint58_linear_172_269" x1="104.41" y1="52.7889" x2="115.161" y2="52.7889" gradientUnits="userSpaceOnUse">
<stop stop-color="#E8878E"/>
<stop offset="1" stop-color="#F4BEA3"/>
</linearGradient>
<linearGradient id="paint59_linear_172_269" x1="57.9642" y1="106.402" x2="116.434" y2="106.402" gradientUnits="userSpaceOnUse">
<stop stop-color="#FE6A77"/>
<stop offset="1" stop-color="#C91C91"/>
</linearGradient>
<linearGradient id="paint60_linear_172_269" x1="113.729" y1="87.1533" x2="116.433" y2="87.1533" gradientUnits="userSpaceOnUse">
<stop stop-color="#F9A144"/>
<stop offset="1" stop-color="#FDE1A7"/>
</linearGradient>
<linearGradient id="paint61_linear_172_269" x1="60.3342" y1="87.4807" x2="63.5172" y2="86.9199" gradientUnits="userSpaceOnUse">
<stop stop-color="#FDE1A7"/>
<stop offset="1" stop-color="#F9A144"/>
</linearGradient>
<linearGradient id="paint62_linear_172_269" x1="104.499" y1="157.547" x2="146.049" y2="157.547" gradientUnits="userSpaceOnUse">
<stop stop-color="#00E2EC"/>
<stop offset="0.3" stop-color="#20B5DF"/>
<stop offset="1" stop-color="#6A4EC2"/>
</linearGradient>
<linearGradient id="paint63_linear_172_269" x1="141.558" y1="158.87" x2="146.049" y2="158.87" gradientUnits="userSpaceOnUse">
<stop stop-color="#5A18B2"/>
<stop offset="1" stop-color="#7A50C9"/>
</linearGradient>
<linearGradient id="paint64_linear_172_269" x1="113.899" y1="181.036" x2="130.519" y2="181.036" gradientUnits="userSpaceOnUse">
<stop stop-color="#E8878E"/>
<stop offset="0.219" stop-color="#E58589"/>
<stop offset="0.469" stop-color="#DE7F7B"/>
<stop offset="0.735" stop-color="#D27565"/>
<stop offset="1" stop-color="#C16846"/>
</linearGradient>
<linearGradient id="paint65_linear_172_269" x1="113.898" y1="181.579" x2="115.418" y2="181.579" gradientUnits="userSpaceOnUse">
<stop stop-color="#F4BEA3"/>
<stop offset="1" stop-color="#E8878E"/>
</linearGradient>
<linearGradient id="paint66_linear_172_269" x1="114.959" y1="189.7" x2="121.2" y2="189.7" gradientUnits="userSpaceOnUse">
<stop stop-color="#FE6A77"/>
<stop offset="1" stop-color="#C91C91"/>
</linearGradient>
<linearGradient id="paint67_linear_172_269" x1="112.33" y1="187.182" x2="120.457" y2="187.182" gradientUnits="userSpaceOnUse">
<stop stop-color="#994574"/>
<stop offset="1" stop-color="#43256F"/>
</linearGradient>
<linearGradient id="paint68_linear_172_269" x1="85.6846" y1="137.112" x2="156.095" y2="137.112" gradientUnits="userSpaceOnUse">
<stop stop-color="#05C5DA"/>
<stop offset="0.036" stop-color="#0ABED8"/>
<stop offset="0.375" stop-color="#387CC7"/>
<stop offset="0.66" stop-color="#594CBA"/>
<stop offset="0.877" stop-color="#6D2EB2"/>
<stop offset="1" stop-color="#7523AF"/>
</linearGradient>
<linearGradient id="paint69_linear_172_269" x1="148.187" y1="141.116" x2="173.75" y2="141.116" gradientUnits="userSpaceOnUse">
<stop stop-color="#E8878E"/>
<stop offset="0.219" stop-color="#E58589"/>
<stop offset="0.469" stop-color="#DE7F7B"/>
<stop offset="0.735" stop-color="#D27565"/>
<stop offset="1" stop-color="#C16846"/>
</linearGradient>
<linearGradient id="paint70_linear_172_269" x1="133.194" y1="124.926" x2="133.194" y2="120.269" gradientUnits="userSpaceOnUse">
<stop stop-color="#170389"/>
<stop offset="0.077" stop-color="#1C058C"/>
<stop offset="1" stop-color="#5A18B2"/>
</linearGradient>
<linearGradient id="paint71_linear_172_269" x1="162.101" y1="147.299" x2="162.458" y2="149.323" gradientUnits="userSpaceOnUse">
<stop stop-color="#E8878E"/>
<stop offset="1" stop-color="#F4BEA3"/>
</linearGradient>
<linearGradient id="paint72_linear_172_269" x1="169.401" y1="144.312" x2="176.982" y2="144.312" gradientUnits="userSpaceOnUse">
<stop stop-color="#FE6A77"/>
<stop offset="1" stop-color="#C91C91"/>
</linearGradient>
<linearGradient id="paint73_linear_172_269" x1="164.989" y1="146.763" x2="177.338" y2="146.763" gradientUnits="userSpaceOnUse">
<stop stop-color="#43256F"/>
<stop offset="1" stop-color="#994574"/>
</linearGradient>
<linearGradient id="paint74_linear_172_269" x1="75.6279" y1="176.441" x2="97.437" y2="154.647" gradientUnits="userSpaceOnUse">
<stop stop-color="white"/>
<stop offset="1" stop-color="#FDE1A7"/>
</linearGradient>
<linearGradient id="paint75_linear_172_269" x1="116.133" y1="188.121" x2="128.591" y2="200.57" gradientUnits="userSpaceOnUse">
<stop stop-color="#FDE1A7"/>
<stop offset="1" stop-color="white"/>
</linearGradient>
<linearGradient id="paint76_linear_172_269" x1="132.995" y1="194.904" x2="142.871" y2="194.904" gradientUnits="userSpaceOnUse">
<stop stop-color="white"/>
<stop offset="1" stop-color="#FDE1A7"/>
</linearGradient>
<linearGradient id="paint77_linear_172_269" x1="171.755" y1="155.008" x2="187.081" y2="155.008" gradientUnits="userSpaceOnUse">
<stop stop-color="white"/>
<stop offset="1" stop-color="#FDE1A7"/>
</linearGradient>
<linearGradient id="paint78_linear_172_269" x1="52.2881" y1="121.611" x2="63.2812" y2="121.611" gradientUnits="userSpaceOnUse">
<stop stop-color="white"/>
<stop offset="0.453" stop-color="#FEEFD0"/>
<stop offset="0.802" stop-color="#FDE5B2"/>
<stop offset="1" stop-color="#FDE1A7"/>
</linearGradient>
<linearGradient id="paint79_linear_172_269" x1="191.57" y1="147.657" x2="194.357" y2="147.657" gradientUnits="userSpaceOnUse">
<stop stop-color="white"/>
<stop offset="1" stop-color="#FDE1A7"/>
</linearGradient>
<linearGradient id="paint80_linear_172_269" x1="151.078" y1="159.574" x2="154.756" y2="159.574" gradientUnits="userSpaceOnUse">
<stop stop-color="white"/>
<stop offset="1" stop-color="#FDE1A7"/>
</linearGradient>
<linearGradient id="paint81_linear_172_269" x1="51.4121" y1="112.211" x2="60.1229" y2="112.211" gradientUnits="userSpaceOnUse">
<stop stop-color="white"/>
<stop offset="1" stop-color="#FDE1A7"/>
</linearGradient>
<linearGradient id="paint82_linear_172_269" x1="74.5145" y1="162.019" x2="84.0302" y2="162.019" gradientUnits="userSpaceOnUse">
<stop stop-color="white"/>
<stop offset="1" stop-color="#FDE1A7"/>
</linearGradient>
</defs>
</svg>
