<svg width="311" height="225" viewBox="0 0 311 225" fill="none" xmlns="http://www.w3.org/2000/svg">
<path opacity="0.2" d="M227.435 53.2979H268.854C271.105 52.1369 272.646 49.7797 272.646 47.0605C272.646 43.5424 270.063 40.629 266.7 40.1258C266.704 40.011 266.709 39.8962 266.709 39.7815C266.709 35.663 263.305 32.3258 259.107 32.3258C258.67 32.3258 258.238 32.3611 257.818 32.4318C256.008 29.2888 252.477 27.1567 248.416 27.1567C243.684 27.1567 239.671 30.0525 238.263 34.065C237.817 33.9767 237.362 33.9282 236.895 33.9282C232.86 33.9282 229.589 37.3978 229.589 41.6796C229.589 42.1607 229.629 42.6331 229.708 43.0877C226.653 43.2819 224.243 45.6215 224.243 48.4775C224.239 50.5831 225.537 52.4018 227.435 53.2979Z" fill="white"/>
<path opacity="0.8" d="M77.6204 28.958C85.6169 28.958 92.0992 22.4757 92.0992 14.4794C92.0992 6.48304 85.6169 0.000732422 77.6204 0.000732422C69.624 0.000732422 63.1416 6.48304 63.1416 14.4794C63.1416 22.4757 69.624 28.958 77.6204 28.958Z" fill="url(#paint0_linear_255_252)"/>
<path opacity="0.2" d="M81.0051 30.7405H108.541C110.038 29.968 111.062 28.4009 111.062 26.5955C111.062 24.2559 109.345 22.3181 107.107 21.987C107.111 21.912 107.111 21.8369 107.111 21.7575C107.111 19.0206 104.847 16.8003 102.057 16.8003C101.765 16.8003 101.479 16.8267 101.2 16.8709C99.9954 14.7829 97.647 13.366 94.9498 13.366C91.8025 13.366 89.1362 15.2906 88.2004 17.9568C87.9046 17.8994 87.6001 17.8641 87.2911 17.8641C84.6072 17.8641 82.4354 20.1727 82.4354 23.0155C82.4354 23.3378 82.4618 23.6468 82.5148 23.9514C80.4843 24.0794 78.8819 25.6376 78.8819 27.5357C78.8775 28.9351 79.7427 30.1446 81.0051 30.7405Z" fill="white"/>
<path d="M84.3004 179.542C84.3004 179.542 74.6905 187.836 49.8911 181.577C31.8147 177.017 16.9209 159.165 16.9209 159.165C16.9209 159.165 52.4029 145.728 84.3004 179.542Z" fill="#00759F"/>
<path d="M83.4942 180.654C83.4942 180.654 64.3892 178.429 45.9596 144.338C32.527 119.489 37.1796 84.572 37.1796 84.572C37.1796 84.572 88.5441 110.405 83.4942 180.654Z" fill="#741AAC"/>
<path d="M82.764 179.952C82.764 179.952 67.5656 168.161 69.4417 129.449C70.8057 101.233 92.8594 73.7676 92.8594 73.7676C92.8594 73.7676 123.442 122.457 82.764 179.952Z" fill="#741AAC"/>
<path d="M243.607 178.099C243.607 178.099 253.098 186.292 277.589 180.107C295.44 175.6 310.148 157.978 310.148 157.978C310.148 157.978 275.103 144.704 243.607 178.099Z" fill="#00759F"/>
<path d="M244.999 180.654C244.999 180.654 264.104 178.429 282.534 144.338C295.966 119.489 291.314 84.572 291.314 84.572C291.314 84.572 239.954 110.405 244.999 180.654Z" fill="#741AAC"/>
<path d="M245.732 179.952C245.732 179.952 260.93 168.161 259.054 129.449C257.686 101.233 235.636 73.7676 235.636 73.7676C235.636 73.7676 205.054 122.457 245.732 179.952Z" fill="#741AAC"/>
<path d="M235.287 124.252C235.164 123.197 241.216 102.133 247.952 92.7656C254.688 83.3987 262.258 66.0818 262.258 66.0818C262.258 66.0818 264.805 81.4785 257.804 91.5915C250.803 101.704 247.828 106.697 247.828 106.697C247.828 106.697 252.719 96.8355 264.417 96.1557C276.11 95.476 273.104 106.185 273.104 106.185C273.104 106.185 260.201 87.7379 233.411 129.47" fill="url(#paint1_linear_255_252)"/>
<path d="M219.285 144.682C219.285 144.682 200.895 148.959 188.447 141.34C175.999 133.721 167.837 122.906 167.837 122.906C167.837 122.906 181.746 118.227 190.712 120.081C199.677 121.935 207.526 132.083 207.548 131.262C207.57 130.441 197.982 117.468 197.201 108.93C196.424 100.393 200.476 84.4003 200.476 84.4003C200.476 84.4003 212.284 93.4981 215.224 100.614C218.168 107.73 220.455 123.087 220.455 123.087C220.455 123.087 218.892 109.654 224.331 98.5083C229.778 87.3667 243.608 78.3528 243.608 78.3528C243.608 78.3528 248.755 92.2577 244.526 105.823C240.302 119.388 230.515 128.305 230.515 128.305C230.515 128.305 244.054 118.536 252.406 117.194C260.762 115.852 272.349 123.109 272.349 123.109C272.349 123.109 260.506 136.299 251.342 138.669C242.178 141.04 232.961 139.826 232.961 139.826C232.961 139.826 245.669 140.042 253.152 145.105C260.634 150.164 266.999 160.608 266.999 160.608C266.999 160.608 249.289 162.71 238.121 157.033C226.953 151.356 219.285 144.682 219.285 144.682Z" fill="url(#paint2_linear_255_252)"/>
<path d="M236.787 140.096C234.492 139.853 232.96 139.822 232.96 139.822C232.96 139.822 234.443 140.012 236.787 140.096Z" fill="url(#paint3_linear_255_252)"/>
<path d="M203.154 94.2266C203.154 94.2266 205.406 124.01 219.425 139.963C217.47 135.5 212.212 127.855 209.295 117.265C206.381 106.675 203.154 94.2266 203.154 94.2266Z" fill="url(#paint4_linear_255_252)"/>
<path d="M219.047 141.212C219.047 141.212 192.689 133.576 182.506 128.835C174.944 125.533 171.417 123.851 171.417 123.851C171.417 123.851 177.129 128.508 193.444 134.798C209.759 141.089 219.047 141.212 219.047 141.212Z" fill="url(#paint5_linear_255_252)"/>
<path d="M222.347 141.781C222.347 141.781 238.512 146.076 252.108 153.037C258.539 156.383 262.587 158.793 262.587 158.793C262.587 158.793 251.556 153.85 243.955 150.835C236.358 147.82 222.347 141.781 222.347 141.781Z" fill="url(#paint6_linear_255_252)"/>
<path d="M97.1608 115.654C97.2844 114.599 91.2324 93.5336 84.4962 84.1664C77.7601 74.7992 70.1896 57.4819 70.1896 57.4819C70.1896 57.4819 67.6425 72.879 74.6436 82.9922C81.6446 93.1054 84.6198 98.0979 84.6198 98.0979C84.6198 98.0979 79.7288 88.2364 68.031 87.5566C56.3376 86.8768 59.3437 97.5859 59.3437 97.5859C59.3437 97.5859 72.2466 79.1385 99.0369 120.871" fill="url(#paint7_linear_255_252)"/>
<path d="M225.673 70.0771C225.673 70.0771 218.103 81.413 213.366 97.887C208.625 114.361 210.506 132.852 210.506 132.852" stroke="black" stroke-width="2.31"/>
<path d="M213.752 121.561C213.752 121.561 211.209 123.066 210.137 124.483C208.234 121.622 203.188 116.281 203.188 116.281M222.942 88.9699C222.942 88.9699 216.859 90.9078 214.67 93.6667C214.736 90.6341 215.659 79.6558 215.659 79.6558L222.942 88.9699ZM219.089 106.556C219.089 106.556 213.24 107.545 210.984 109.73C209.576 106.451 208.269 97.9 208.269 97.9L219.089 106.556Z" stroke="black" stroke-width="2.31"/>
<path d="M224.745 71.1318C224.745 71.1318 232.192 70.9067 235.437 65.7685C238.681 60.6259 239.33 56.1499 239.33 56.1499C239.33 56.1499 232.444 57.1917 228.391 60.8069C224.339 64.4222 224.745 71.1318 224.745 71.1318ZM222.944 88.9697C222.944 88.9697 227.01 82.6573 232.523 80.0529C237.405 78.0842 244.089 81.7392 244.089 81.7392C244.089 81.7392 243.281 86.7184 235.816 89.5303C230.846 91.4019 225.791 90.1571 222.944 88.9697ZM208.651 99.3961C208.651 99.3961 211.255 88.8108 206.377 84.6349C201.5 80.4591 199.597 79.4791 199.597 79.4791C199.597 79.4791 197.659 87.6675 199.8 92.095C201.941 96.5136 208.651 99.3961 208.651 99.3961ZM217.625 106.803C217.625 106.803 224.065 100.619 228.89 100.614C233.715 100.61 238.708 102.764 238.708 102.764C238.708 102.764 235.684 108.935 228.202 109.121C220.719 109.306 217.625 106.803 217.625 106.803ZM204.051 117.177C204.051 117.177 202.74 108.979 196.6 107.351C191.373 106.062 189.131 107.267 189.131 107.267C189.131 107.267 189.382 111.275 192.459 114.634C195.54 117.993 204.051 117.177 204.051 117.177ZM213.003 122.006C213.003 122.006 214.279 117.247 218.318 116.016C222.49 114.811 226.07 116.96 226.07 116.96C226.07 116.96 225.544 121.931 220.87 123.07C216.19 124.213 213.003 122.006 213.003 122.006ZM215.903 80.4855C215.903 80.4855 218.645 72.7033 216.928 68.9379C215.21 65.1726 211.436 63.4996 211.436 63.4996C211.436 63.4996 208.505 67.8476 209.565 72.0367C210.624 76.217 215.903 80.4855 215.903 80.4855Z" fill="#00759F"/>
<path d="M96.2246 71.7805C96.2246 71.7805 106.85 80.3177 116.323 94.6068C125.796 108.896 129.561 127.096 129.561 127.096" stroke="black" stroke-width="2.31"/>
<path d="M123.063 117.3C123.063 117.3 125.937 117.971 127.394 119C128.352 115.698 131.557 109.09 131.557 109.09M104.506 88.9783C104.506 88.9783 110.889 88.996 113.807 90.9692C112.831 88.0955 108.651 77.9028 108.651 77.9028L104.506 88.9783ZM113.467 104.596C113.467 104.596 119.347 103.779 122.15 105.188C122.507 101.639 121.183 93.088 121.183 93.088L113.467 104.596Z" stroke="black" stroke-width="2.31"/>
<path d="M97.4198 72.5087C97.4198 72.5087 90.251 74.5349 85.6116 70.6062C80.9722 66.6775 79.0078 62.6031 79.0078 62.6031C79.0078 62.6031 85.8897 61.526 90.8425 63.7552C95.7909 65.9888 97.4198 72.5087 97.4198 72.5087ZM104.505 88.9784C104.505 88.9784 98.7264 84.1801 92.6877 83.3546C87.4435 82.9441 82.164 88.4399 82.164 88.4399C82.164 88.4399 84.433 92.9425 92.3963 93.3839C97.6979 93.6752 102.143 90.9693 104.505 88.9784ZM121.266 94.6287C121.266 94.6287 115.602 85.3146 118.997 79.8673C122.391 74.4201 123.914 72.9104 123.914 72.9104C123.914 72.9104 128.223 80.141 127.516 85.0012C126.801 89.8613 121.266 94.6287 121.266 94.6287ZM114.94 104.389C114.94 104.389 106.937 100.429 102.337 101.873C97.7332 103.316 93.6191 106.874 93.6191 106.874C93.6191 106.874 98.3556 111.853 105.546 109.779C112.737 107.704 114.94 104.389 114.94 104.389ZM130.999 110.202C130.999 110.202 129.785 101.992 135.153 98.5927C139.753 95.7941 142.251 96.2708 142.251 96.2708C142.251 96.2708 143.218 100.169 141.293 104.3C139.364 108.423 130.999 110.202 130.999 110.202ZM123.919 117.499C123.919 117.499 121.27 113.345 117.05 113.381C112.706 113.487 109.943 116.612 109.943 116.612C109.943 116.612 111.938 121.194 116.737 120.876C121.535 120.563 123.919 117.499 123.919 117.499ZM108.667 78.7682C108.667 78.7682 103.715 72.1733 104.222 68.0636C104.73 63.9539 107.824 61.2258 107.824 61.2258C107.824 61.2258 111.925 64.4924 112.172 68.8052C112.419 73.1135 108.667 78.7682 108.667 78.7682Z" fill="#00759F"/>
<path d="M210.394 181.903C210.394 181.903 194.502 192.1 180.218 189.089C165.933 186.083 154.619 178.632 154.619 178.632C154.619 178.632 166.154 169.561 175.225 168.303C184.292 167.045 195.089 173.971 194.833 173.194C194.577 172.417 181.197 163.403 177.6 155.62C174.007 147.838 172.466 131.413 172.466 131.413C172.466 131.413 186.64 136.026 191.796 141.742C196.952 147.459 204.258 161.16 204.258 161.16C204.258 161.16 198.281 149.03 199.671 136.705C201.066 124.385 211.078 111.257 211.078 111.257C211.078 111.257 220.586 122.633 221.151 136.829C221.721 151.025 215.488 162.705 215.488 162.705C215.488 162.705 224.969 148.964 232.39 144.903C239.815 140.842 253.163 143.79 253.163 143.79C253.163 143.79 246.418 160.185 238.574 165.486C230.734 170.792 221.646 172.735 221.646 172.735C221.646 172.735 233.692 168.678 242.441 170.938C251.186 173.198 260.685 180.901 260.685 180.901C260.685 180.901 244.701 188.816 232.28 187.213C219.858 185.615 210.394 181.903 210.394 181.903Z" fill="url(#paint8_linear_255_252)"/>
<path d="M225.349 171.715C223.106 172.253 221.649 172.739 221.649 172.739C221.649 172.739 223.111 172.421 225.349 171.715Z" fill="url(#paint9_linear_255_252)"/>
<path d="M178.288 139.769C178.288 139.769 190.392 167.076 208.95 177.405C205.612 173.856 198.091 168.413 191.796 159.417C185.501 150.416 178.288 139.769 178.288 139.769Z" fill="url(#paint10_linear_255_252)"/>
<path d="M209.008 178.712C209.008 178.712 181.613 180.354 170.432 179.299C162.199 178.725 158.314 178.319 158.314 178.319C158.314 178.319 165.258 180.791 182.739 181.25C200.219 181.709 209.008 178.712 209.008 178.712Z" fill="url(#paint11_linear_255_252)"/>
<path d="M117.069 143.482C117.069 143.482 134.558 136.375 140.337 122.969C146.115 109.563 146.548 96.024 146.548 96.024C146.548 96.024 132.484 100.218 126.229 106.905C119.969 113.588 119.409 126.403 118.919 125.75C118.429 125.092 118.782 108.967 114.496 101.537C110.209 94.1127 97.6772 83.386 97.6772 83.386C97.6772 83.386 93.2761 97.6264 94.9756 105.135C96.6751 112.644 103.658 126.513 103.658 126.513C103.658 126.513 97.1916 114.635 86.3192 108.667C75.4469 102.703 58.9463 103.316 58.9463 103.316C58.9463 103.316 62.7602 117.645 74.0343 126.293C85.3039 134.94 98.4452 136.587 98.4452 136.587C98.4452 136.587 81.7504 136.41 74.1535 140.131C66.5565 143.853 61.2682 156.464 61.2682 156.464C61.2682 156.464 78.5545 160.402 87.4095 157.051C96.2646 153.705 103.093 147.397 103.093 147.397C103.093 147.397 92.8347 154.902 89.6388 163.355C86.4428 171.804 87.2639 184.005 87.2639 184.005C87.2639 184.005 102.943 175.507 108.801 164.432C114.65 153.357 117.069 143.482 117.069 143.482Z" fill="url(#paint12_linear_255_252)"/>
<path d="M100.124 149.829C101.859 148.311 103.09 147.398 103.09 147.398C103.09 147.398 101.996 148.408 100.124 149.829Z" fill="url(#paint13_linear_255_252)"/>
<path d="M132.069 181.215C132.069 181.215 148.808 189.947 162.766 185.669C176.724 181.392 187.322 172.956 187.322 172.956C187.322 172.956 175.02 164.953 165.873 164.516C156.727 164.074 146.596 171.945 146.782 171.146C146.967 170.347 159.486 160.177 162.368 152.098C165.251 144.025 165.313 127.524 165.313 127.524C165.313 127.524 151.611 133.391 146.989 139.549C142.363 145.707 136.32 160.009 136.32 160.009C136.32 160.009 141.184 147.388 138.695 135.24C136.2 123.092 125.05 110.913 125.05 110.913C125.05 110.913 116.601 123.097 117.307 137.284C118.014 151.472 125.266 162.551 125.266 162.551C125.266 162.551 114.593 149.715 106.837 146.333C99.0808 142.952 86.0455 147.088 86.0455 147.088C86.0455 147.088 94.234 162.812 102.52 167.389C110.805 171.972 120.031 173.093 120.031 173.093C120.031 173.093 107.667 170.135 99.1603 173.168C90.654 176.205 81.8828 184.729 81.8828 184.729C81.8828 184.729 98.5114 191.178 110.743 188.468C122.98 185.766 132.069 181.215 132.069 181.215Z" fill="url(#paint14_linear_255_252)"/>
<path opacity="0.3" d="M125.051 110.917C125.051 110.917 136.201 123.096 138.695 135.244C141.185 147.392 136.32 160.013 136.32 160.013C136.32 160.013 142.364 145.711 146.99 139.553C151.611 133.395 165.313 127.528 165.313 127.528C165.313 127.528 165.252 144.024 162.369 152.102C159.487 160.176 146.968 170.351 146.782 171.15C146.597 171.949 156.732 164.078 165.874 164.52C175.02 164.961 187.323 172.96 187.323 172.96C187.323 172.96 176.72 181.395 162.766 185.673C148.808 189.95 132.069 181.219 132.069 181.219C132.069 181.219 131.911 181.298 131.619 181.435C133.041 150.46 125.051 110.917 125.051 110.917Z" fill="#00759F"/>
<path d="M116.262 172.409C118.544 172.744 120.036 173.097 120.036 173.097C120.036 173.097 118.553 172.912 116.262 172.409Z" fill="url(#paint15_linear_255_252)"/>
<path d="M160.268 136.379C160.268 136.379 150.658 164.661 133.103 176.61C136.109 172.778 143.11 166.682 148.575 157.156C154.044 147.626 160.268 136.379 160.268 136.379Z" fill="url(#paint16_linear_255_252)"/>
<path d="M133.163 177.913C133.163 177.913 160.593 177.092 171.638 175.04C179.787 173.728 183.618 172.978 183.618 172.978C183.618 172.978 176.926 176.064 159.556 178.085C142.19 180.112 133.163 177.913 133.163 177.913Z" fill="url(#paint17_linear_255_252)"/>
<path d="M130.617 177.295C130.617 177.295 120.266 166.555 110.634 159.524C101.006 152.492 90.0322 148.607 90.0322 148.607C90.0322 148.607 104.449 157.241 109.852 161.126C115.255 165.006 130.617 177.295 130.617 177.295Z" fill="url(#paint18_linear_255_252)"/>
<path d="M129.49 48.1992C129.49 48.1992 131.357 57.4296 121.822 62.4796C118.631 63.5832 112.689 63.6891 109.383 60.5329C114.23 62.8901 118.551 63.283 121.743 62.0382C123.553 60.5285 128.761 58.5508 129.49 48.1992Z" fill="black"/>
<path d="M124.383 49.1526C124.383 49.1526 126.467 57.0541 121.699 62.2805C116.967 61.2343 113.043 57.6191 111.899 55.05C113.431 56.8157 117.62 60.9827 121.478 61.9186C123.284 58.8727 125.072 55.0323 124.383 49.1526Z" fill="black"/>
<path d="M121.145 53.5097C121.145 53.5097 123.556 58.9923 121.861 62.0867C120.96 61.5614 116.608 57.6194 115.376 51.6028C117.181 54.962 117.817 57.9637 121.591 61.2126C122.072 59.1556 121.304 54.3308 121.145 53.5097Z" fill="black"/>
<path d="M129.604 50.2078C129.604 50.2078 130.986 49.3956 131.141 47.3167C131.295 45.2378 130.063 44.4963 129.415 45.3834C129.136 44.7567 128.854 45.0657 128.85 45.4761C128.461 45.0833 127.693 45.0612 127.596 45.9705C127.499 46.8709 128.289 50.018 129.604 50.2078Z" fill="url(#paint19_linear_255_252)"/>
<path d="M124.517 50.772C124.517 50.772 126.097 49.779 125.373 47.4576C124.923 46.2616 124.31 46.1689 124.168 46.4866C123.992 46.3454 123.259 46.2351 123.219 46.8662C122.853 46.672 122.217 47.1928 122.389 47.9342C122.553 48.6668 122.963 50.4101 124.517 50.772Z" fill="url(#paint20_linear_255_252)"/>
<path d="M121.596 55.4036C121.596 55.4036 122.85 54.5693 122.122 52.5785C121.654 51.2277 120.996 51.6824 120.987 51.9649C120.736 51.5853 120.308 51.6559 120.259 51.9958C119.893 51.8192 119.434 52.3445 119.606 53.0773C119.769 53.81 120.316 55.3065 121.596 55.4036Z" fill="url(#paint21_linear_255_252)"/>
<path d="M116.089 53.4783C116.089 53.4783 117.298 52.9001 116.963 51.0373C116.632 49.1789 115.608 48.0003 115.228 48.7463C114.857 48.4638 114.226 47.9209 113.661 48.9935C112.981 49.1524 113.091 50.2074 113.392 50.9799C113.692 51.7568 114.795 53.5313 116.089 53.4783Z" fill="url(#paint22_linear_255_252)"/>
<path d="M111.594 61.8436C111.594 61.8436 111.951 60.5548 110.335 59.5793C108.715 58.6038 107.157 58.5994 107.471 59.3763C107.011 59.469 106.19 59.5881 106.623 60.7225C106.296 61.3404 107.162 61.9495 107.943 62.232C108.724 62.5189 110.79 62.8544 111.594 61.8436Z" fill="url(#paint23_linear_255_252)"/>
<path d="M112.93 56.2994C112.93 56.2994 113.513 55.7079 112.789 54.4365C112.321 53.483 110.856 51.8762 110.626 53.1078C109.946 53.121 109.169 52.94 109.492 54.3217C108.874 54.6837 109.421 55.337 110.052 55.9727C110.688 56.6084 112.321 56.8247 112.93 56.2994Z" fill="url(#paint24_linear_255_252)"/>
<path d="M122.124 61.4998C122.124 61.4998 122.151 61.5483 122.199 61.6454C123.038 63.2611 130.52 77.9436 127.514 82.4949C127.81 80.1773 127.448 77.277 125.391 71.4323C123.338 65.5875 121.471 61.9191 121.471 61.9191L122.151 61.5527" fill="black"/>
<path d="M195.511 51.3857C195.511 51.3857 193.644 60.6164 203.179 65.6666C206.37 66.7702 212.312 66.8762 215.618 63.7198C210.771 66.0771 206.45 66.47 203.258 65.2252C201.448 63.7154 196.24 61.7377 195.511 51.3857Z" fill="black"/>
<path d="M200.619 52.3391C200.619 52.3391 198.536 60.2359 203.303 65.4666C208.035 64.4204 211.96 60.8053 213.103 58.2363C211.571 60.0019 207.382 64.1688 203.524 65.1046C201.718 62.0589 199.926 58.2187 200.619 52.3391Z" fill="black"/>
<path d="M203.849 56.6963C203.849 56.6963 201.438 62.179 203.133 65.2734C204.034 64.7481 208.386 60.8061 209.618 54.7893C207.813 58.1486 207.177 61.1504 203.403 64.3994C202.922 62.3423 203.69 57.5174 203.849 56.6963Z" fill="black"/>
<path d="M195.396 53.394C195.396 53.394 194.014 52.5818 193.86 50.5027C193.705 48.4236 194.937 47.682 195.586 48.5693C195.864 47.9425 196.147 48.2514 196.151 48.662C196.539 48.2691 197.308 48.247 197.405 49.1564C197.502 50.0569 196.712 53.2042 195.396 53.394Z" fill="url(#paint25_linear_255_252)"/>
<path d="M200.487 53.9556C200.487 53.9556 198.906 52.9623 199.63 50.6402C200.08 49.4439 200.694 49.3512 200.835 49.6691C201.012 49.5278 201.749 49.4174 201.784 50.0487C202.151 49.8545 202.786 50.3754 202.614 51.117C202.447 51.8542 202.04 53.598 200.487 53.9556Z" fill="url(#paint26_linear_255_252)"/>
<path d="M203.404 58.5898C203.404 58.5898 202.15 57.7556 202.879 55.7647C203.347 54.414 204.004 54.8686 204.013 55.1512C204.265 54.7715 204.693 54.8422 204.742 55.1821C205.108 55.0055 205.567 55.5308 205.395 56.2635C205.227 56.9963 204.684 58.4927 203.404 58.5898Z" fill="url(#paint27_linear_255_252)"/>
<path d="M208.913 56.6605C208.913 56.6605 207.704 56.0823 208.039 54.2197C208.37 52.3615 209.394 51.183 209.774 51.9289C210.145 51.6464 210.776 51.1035 211.341 52.1761C212.021 52.335 211.911 53.3899 211.61 54.1623C211.31 54.9435 210.207 56.7179 208.913 56.6605Z" fill="url(#paint28_linear_255_252)"/>
<path d="M213.402 65.0305C213.402 65.0305 213.044 63.7411 214.66 62.7652C216.28 61.7893 217.838 61.7849 217.525 62.5621C217.984 62.6548 218.805 62.774 218.372 63.9089C218.699 64.5271 217.834 65.1365 217.052 65.4191C216.271 65.7018 214.21 66.0418 213.402 65.0305Z" fill="url(#paint29_linear_255_252)"/>
<path d="M212.063 59.4811C212.063 59.4811 211.481 58.8896 212.205 57.6183C212.673 56.6649 214.138 55.0581 214.368 56.2897C215.048 56.3029 215.824 56.1219 215.502 57.5035C216.12 57.8655 215.568 58.5188 214.942 59.1544C214.31 59.7945 212.677 60.0108 212.063 59.4811Z" fill="url(#paint30_linear_255_252)"/>
<path d="M202.876 64.6868C202.876 64.6868 202.849 64.7353 202.8 64.8324C201.962 66.448 194.48 81.1296 197.486 85.6807C197.19 83.3632 197.552 80.4631 199.609 74.6187C201.662 68.7743 203.529 65.1061 203.529 65.1061L202.849 64.7397" fill="black"/>
<path opacity="0.5" d="M269.112 201.339H76.2041V187.161H254.934L269.112 201.339Z" fill="#000640"/>
<path opacity="0.5" fill-rule="evenodd" clip-rule="evenodd" d="M140.206 217.266C140.206 221.539 108.821 224.999 70.1031 224.999C31.3855 224.999 0 221.539 0 217.266C0 212.997 31.3855 209.532 70.1031 209.532C108.816 209.532 140.206 212.993 140.206 217.266Z" fill="#000640"/>
<path d="M260.448 183.175C260.448 185.625 258.462 187.616 256.007 187.616H81.8773C79.4274 187.616 77.4365 185.629 77.4365 183.175V77.0289C77.4365 74.579 79.4229 72.5881 81.8773 72.5881H256.007C258.457 72.5881 260.448 74.5746 260.448 77.0289V183.175Z" fill="url(#paint31_linear_255_252)"/>
<path d="M260.448 78.2517H77.4365V92.3201H260.448V78.2517Z" fill="url(#paint32_linear_255_252)"/>
<path d="M236.964 85.4114C236.964 87.2919 235.436 88.8193 233.556 88.8193H111.761C109.881 88.8193 108.354 87.2919 108.354 85.4114C108.354 83.5308 109.881 82.0034 111.761 82.0034H233.556C235.436 82.0034 236.964 83.5264 236.964 85.4114Z" fill="white"/>
<path d="M157.574 146.161C157.574 146.876 156.88 147.459 156.02 147.459C155.163 147.459 154.466 146.88 154.466 146.161V88.4936C154.466 87.7785 155.159 87.1958 156.02 87.1958C156.876 87.1958 157.574 87.7741 157.574 88.4936V146.161Z" fill="url(#paint33_linear_255_252)"/>
<path d="M156.554 149.529C156.554 149.529 154.951 132.815 138.693 126.86C122.436 120.905 110.53 137.623 110.53 137.623C110.53 137.623 120.145 142.66 127.472 143.348C134.804 144.033 152.665 146.094 156.554 149.529Z" fill="url(#paint34_linear_255_252)"/>
<path d="M155.751 149.529C155.751 149.529 157.353 132.815 173.611 126.86C189.869 120.905 201.774 137.623 201.774 137.623C201.774 137.623 192.16 142.66 184.832 143.348C177.5 144.033 159.644 146.094 155.751 149.529Z" fill="url(#paint35_linear_255_252)"/>
<path d="M133.356 159.143L139.943 196.054C139.943 196.054 146.224 199.272 156.792 199.272C169.964 199.272 174.405 196.054 174.405 196.054L182.064 159.297L133.356 159.143Z" fill="url(#paint36_linear_255_252)"/>
<path d="M186.195 155.736C186.195 157.7 184.602 159.298 182.633 159.298H132.169C130.2 159.298 128.606 157.704 128.606 155.736V148.615C128.606 146.646 130.2 145.052 132.169 145.052H182.637C184.606 145.052 186.2 146.646 186.2 148.615V155.736H186.195Z" fill="url(#paint37_linear_255_252)"/>
<path d="M156.024 89.7815C166.165 89.7815 174.387 81.5598 174.387 71.4177C174.387 61.2757 166.165 53.054 156.024 53.054C145.882 53.054 137.66 61.2757 137.66 71.4177C137.66 81.5598 145.882 89.7815 156.024 89.7815Z" fill="#A600A9"/>
<path d="M159.137 130.375C159.137 130.375 156.312 113.032 168.677 106.68C181.045 100.328 189.644 106.724 189.644 106.724C189.644 106.724 181.747 112.877 176.044 120.951C171.974 126.716 163.627 128.998 159.137 130.375Z" fill="url(#paint38_linear_255_252)"/>
<path d="M152.893 130.375C152.893 130.375 155.718 113.032 143.354 106.68C130.985 100.328 122.386 106.724 122.386 106.724C122.386 106.724 130.283 112.877 135.986 120.951C140.052 126.716 148.403 128.998 152.893 130.375Z" fill="url(#paint39_linear_255_252)"/>
<path d="M153.021 107.65C153.021 107.65 155.056 95.1491 146.148 90.5715C137.231 85.9939 131.038 90.6068 131.038 90.6068C131.038 90.6068 136.728 95.0432 140.838 100.861C143.769 105.011 149.786 106.657 153.021 107.65Z" fill="url(#paint40_linear_255_252)"/>
<path d="M158.897 108.13C158.897 108.13 156.726 94.8041 166.225 89.9265C175.729 85.0445 182.333 89.9619 182.333 89.9619C182.333 89.9619 176.268 94.6894 171.884 100.891C168.763 105.319 162.345 107.071 158.897 108.13Z" fill="url(#paint41_linear_255_252)"/>
<path d="M119.59 96.4514C119.59 96.4514 119.272 100.27 120.967 101.965C122.662 103.66 125.532 100.27 119.59 96.4514Z" fill="url(#paint42_linear_255_252)"/>
<path d="M120.385 106.295C120.385 106.295 118.69 109.73 119.644 111.932C120.601 114.131 124.508 112.025 120.385 106.295ZM127.925 112.025C127.925 112.025 125.484 116.964 126.861 120.129C128.234 123.294 133.857 120.266 127.925 112.025Z" fill="white"/>
<path d="M116.478 91.7896C116.478 91.7896 115.224 94.3326 115.931 95.9617C116.637 97.5864 119.528 96.0279 116.478 91.7896Z" fill="url(#paint43_linear_255_252)"/>
<path d="M72.9283 89.8213L76.164 88.1792L75.3165 84.4139C75.3165 84.4139 74.9986 82.7719 74.9986 82.3437C74.9986 81.9155 74.257 81.0724 73.9392 81.2313C73.6214 81.3903 73.9392 82.7675 73.7273 83.4075C73.5154 84.0432 72.0322 85.5837 72.0322 85.5837" fill="url(#paint44_linear_255_252)"/>
<path d="M99.3098 80.8071C99.1641 80.6967 83.0387 77.2712 83.0387 77.2712L78.8496 94.5487C78.8496 94.5487 78.62 96.6852 80.8272 97.4312C83.0343 98.1773 92.4102 99.8017 92.4102 99.8017C92.4102 99.8017 94.7101 100.062 95.721 97.3209C96.7407 94.5752 99.3098 80.8071 99.3098 80.8071Z" fill="black"/>
<path d="M97.0003 92.2805L112.022 85.6548L113.029 88.3563L95.7246 97.3215C95.7246 97.3215 96.9915 92.9912 97.0003 92.2805Z" fill="black"/>
<path d="M112.023 85.654L112.853 83.672C112.853 83.672 114.094 84.6564 114.584 86.091C115.418 88.541 114.668 89.9182 114.668 89.9182L113.03 88.3556L112.023 85.654ZM91.2852 78.8913L92.4285 73.656C92.4285 73.656 93.2583 75.4879 93.5718 76.9711C93.8808 78.4543 93.7174 79.5535 93.7174 79.5535L91.2852 78.8913Z" fill="black"/>
<path d="M92.4282 73.6604C92.4282 73.6604 88.9851 73.6869 86.6058 74.5433C84.2265 75.3996 83.0391 77.2713 83.0391 77.2713L91.2849 78.8914L92.4282 73.6604Z" fill="black"/>
<path d="M83.0405 77.2713C83.0405 77.2713 78.2378 76.2604 76.141 79.2753C74.0398 82.2901 74.5607 88.3241 75.6201 89.7278C76.6751 91.1359 79.4605 93.3032 79.4605 93.3032L80.0167 90.3281C80.0167 90.3281 77.0018 88.227 76.6884 86.9602C76.3749 85.6933 76.8075 81.5971 77.8758 80.3126C78.9396 79.0281 82.5505 79.699 82.5505 79.699L83.0405 77.2713Z" fill="black"/>
<path d="M57.9136 162.586H85.5867L84.3904 159.934H56.8232L57.9136 162.586Z" fill="black"/>
<path d="M109.833 219.954H106.553L83.0117 159.553H86.6005L109.833 219.954Z" fill="black"/>
<path d="M80.2532 219.954H76.9778L53.2334 159.553H56.8222L80.2532 219.954Z" fill="black"/>
<path d="M75.3945 207.634H103.068L101.871 204.981H74.2998L75.3945 207.634Z" fill="black"/>
<path d="M69.5654 192.551H97.2386L96.0423 189.897H68.4707L69.5654 192.551Z" fill="black"/>
<path d="M63.687 177.775H91.3601L90.1638 175.123H62.5967L63.687 177.775Z" fill="black"/>
<path d="M82.6282 162.587H54.9551L56.1513 159.935H83.7229L82.6282 162.587Z" fill="#0000B8"/>
<path d="M30.1445 221.681H33.4243L57.5351 159.554H53.9463L30.1445 221.681Z" fill="#0000B8"/>
<path d="M59.6406 221.681H62.916L87.3137 159.554H83.7249L59.6406 221.681Z" fill="#0000B8"/>
<path d="M65.1536 207.635H37.4805L38.6767 204.982H66.2439L65.1536 207.635Z" fill="#0000B8"/>
<path d="M70.9817 192.551H43.3086L44.5049 189.898H72.072L70.9817 192.551Z" fill="#0000B8"/>
<path d="M76.8557 177.776H49.1826L50.3789 175.124H77.9505L76.8557 177.776Z" fill="#0000B8"/>
<path d="M84.6416 91.6799C84.6416 91.6799 86.628 90.3292 87.1092 89.8525C87.5859 89.3757 89.9741 86.9082 90.2919 87.7028C90.6097 88.4973 89.4973 90.1703 89.4973 90.1703C89.4973 90.1703 91.9649 89.5347 92.9978 89.2168C94.0308 88.899 95.1476 89.6141 95.1476 90.647C95.1476 91.6799 92.7595 93.5913 91.0114 94.068C89.2634 94.5447 85.2066 94.8625 85.2066 94.8625" fill="url(#paint45_linear_255_252)"/>
<path d="M55.0526 78.9534C55.0526 78.9534 47.8926 97.8067 50.3602 100.349C52.8278 102.896 70.6438 97.1666 70.6438 97.1666L73.9059 95.3391L70.4849 90.0111L55.0526 78.9534Z" fill="url(#paint46_linear_255_252)"/>
<path d="M59.9492 77.5629L60.9645 75.4565C60.9645 75.4565 62.9156 76.0792 64.4738 76.1587C66.0365 76.2382 66.6589 76.5473 66.6589 76.5473L67.9081 78.5786C67.9081 78.5786 63.0745 79.5147 59.9492 77.5629Z" fill="url(#paint47_linear_255_252)"/>
<path d="M59.9456 77.5626C59.9456 77.5626 57.372 77.3287 56.0433 78.11C54.7191 78.8913 53.3109 83.8044 52.843 87.1592C52.3751 90.514 51.5938 103.545 51.5187 106.198C51.4393 108.851 51.5187 114.859 51.5187 114.859C51.5187 114.859 58.5418 116.342 63.3799 116.183C68.2179 116.028 72.0407 112.206 72.0407 112.206C72.0407 112.206 71.6522 106.666 71.0254 104.869C70.403 103.073 69.3877 99.7972 70.0101 97.0648C70.6325 94.3324 72.5086 86.4529 72.0407 83.4865C71.5728 80.5202 72.0407 79.9772 70.403 79.4298C68.7653 78.8825 67.9045 78.5735 67.9045 78.5735C67.9045 78.5735 63.7727 79.5137 59.9456 77.5626Z" fill="url(#paint48_linear_255_252)"/>
<path d="M65.8182 82.0124C65.8182 82.0124 64.8868 85.1817 65.6725 89.6135C66.4582 94.0452 67.8399 98.68 68.5639 99.6202C69.2878 100.56 71.3316 101.342 72.8016 100.962C74.2715 100.582 85.6868 95.1266 85.6868 95.1266C85.6868 95.1266 86.1945 94.0982 85.731 92.8181C85.2675 91.538 84.4111 91.1628 84.4111 91.1628L74.4304 94.1246C74.4304 94.1246 73.2253 84.2857 72.6868 82.4053C72.1482 80.5249 71.1506 79.6906 70.1795 79.4346C69.2127 79.183 66.5951 79.9731 65.8182 82.0124Z" fill="url(#paint49_linear_255_252)"/>
<path d="M71.6619 112.559C70.5804 113.508 67.3182 116.059 63.3807 116.187C58.5426 116.342 51.5195 114.863 51.5195 114.863C51.5195 114.863 52.3759 120.557 53.0822 122.822C53.7841 125.086 54.252 127.973 54.3314 128.909C54.4109 129.845 53.0071 145.529 52.7688 149.978C52.5348 154.428 53.1352 168.836 53.1352 168.836H57.5053C57.5053 168.836 59.09 151.462 60.4982 141.865C61.9019 132.268 62.6038 127.117 62.6038 127.117L63.6191 128.834C63.6191 128.834 64.087 145.688 64.4754 153.179C64.8639 160.67 65.6982 168.915 65.6982 168.915L70.3023 169.149C70.3023 169.149 72.121 140.616 72.3549 132.423C72.5756 124.689 71.7546 113.777 71.6619 112.559Z" fill="url(#paint50_linear_255_252)"/>
<path d="M53.3961 168.882C53.3961 168.882 52.7207 172.678 52.7207 173.199C52.7207 173.72 52.9282 175.49 52.9282 175.49C52.9282 175.49 56.102 175.596 58.2871 175.543C60.4722 175.49 63.0192 174.969 63.0192 174.969C63.0192 174.969 63.4342 173.565 62.8647 172.784C62.2909 172.003 60.0572 171.848 59.3774 171.067C58.7021 170.285 57.5058 168.829 57.5058 168.829C57.5058 168.829 54.0185 169.089 53.3961 168.882ZM66.0342 168.882C66.0342 168.882 65.3588 172.678 65.3588 173.199C65.3588 173.72 65.5663 175.49 65.5663 175.49C65.5663 175.49 68.7401 175.596 70.9252 175.543C73.1103 175.49 75.6573 174.969 75.6573 174.969C75.6573 174.969 76.0722 173.565 75.5028 172.784C74.9289 172.003 72.6953 171.848 72.0155 171.067C71.3401 170.285 70.1439 168.829 70.1439 168.829C70.1439 168.829 66.661 169.089 66.0342 168.882Z" fill="#4B00A9"/>
<path d="M60.9901 75.1968C60.9901 75.1968 60.3853 67.3657 61.043 65.313C61.8244 62.8674 63.3826 61.1502 65.8281 61.0487C68.2736 60.9428 72.3303 61.1546 73.4207 62.5055C74.511 63.8563 73.9416 65.8339 73.8356 66.4607C73.7297 67.0832 72.6923 67.763 72.6923 67.763C72.6923 67.763 71.1297 67.348 70.6618 67.71C70.1938 68.072 69.4655 69.6877 69.4655 69.6877C69.4655 69.6877 68.9358 68.147 68.2692 68.4384C66.605 69.1668 67.1259 71.3519 67.3864 71.8198C67.7174 72.4158 67.3864 71.9743 67.3864 71.9743L63.6916 75.9782C63.696 75.9738 62.1863 76.1327 60.9901 75.1968Z" fill="black"/>
<path d="M70.6655 67.7051C70.1975 68.0671 69.4692 69.6827 69.4692 69.6827C69.4692 69.6827 68.9395 68.1421 68.2729 68.4334C66.6087 69.1618 67.1296 71.3469 67.3901 71.8148C67.7211 72.4107 67.3901 71.9693 67.3901 71.9693L63.6953 75.973L66.6617 76.5469L66.7677 75.8185C66.7677 75.8185 67.9109 76.2335 68.5863 76.2335C69.2617 76.2335 70.043 74.8297 70.9259 73.32C71.8088 71.8104 72.696 67.7536 72.696 67.7536C72.696 67.7536 71.1334 67.3387 70.6655 67.7051Z" fill="url(#paint51_linear_255_252)"/>
<path d="M77.277 83.1963C77.277 83.1963 75.1008 83.7789 74.677 84.3085C74.2532 84.8382 74.0414 86.2682 74.5711 87.0671C75.1008 87.8615 75.1008 88.8149 76.1602 88.5501C77.2196 88.2853 78.2305 87.4908 78.2305 86.2152C78.2305 84.9397 77.9127 83.5141 77.277 83.1963Z" fill="url(#paint52_linear_255_252)"/>
<path d="M242.922 87.4428L233.903 90.5767C233.903 90.5767 233.312 88.6169 232.385 88.2726C231.458 87.9327 229.652 87.8356 229.652 87.8356C229.652 87.8356 229.749 86.2245 231.652 86.0788C233.555 85.9332 235.161 86.6174 235.161 86.6174C235.161 86.6174 239.893 84.6178 241.16 83.9337C242.427 83.2495 242.67 82.8611 242.67 82.8611L242.922 87.4428Z" fill="url(#paint53_linear_255_252)"/>
<path opacity="0.7" d="M200.892 113.164C200.892 113.164 191.737 113.247 182.277 120.641C168.439 131.461 161.438 147.528 161.438 147.528L179.254 147.687C179.254 147.687 185.778 123.665 203.351 116.355" fill="#68C1FF"/>
<path d="M210.694 101.797C210.756 101.616 222.582 89.1807 222.582 89.1807L236.35 101.554C236.35 101.554 237.807 103.254 236.35 105.192C234.893 107.134 227.8 114.047 227.8 114.047C227.8 114.047 225.981 115.623 223.491 113.866C221.006 112.109 210.694 101.797 210.694 101.797Z" fill="url(#paint54_linear_255_252)"/>
<path d="M219.427 110.285L202.626 113.441L203.354 116.355L223.492 113.87C223.492 113.865 219.855 110.895 219.427 110.285Z" fill="url(#paint55_linear_255_252)"/>
<path d="M202.627 113.441L200.746 112.228C200.746 112.228 200.261 113.803 200.684 115.322C201.408 117.918 202.869 118.659 202.869 118.659L203.355 116.355L202.627 113.441Z" fill="url(#paint56_linear_255_252)"/>
<path d="M216.457 95.4269L212.392 91.6038C212.392 91.6038 212.754 93.6654 213.363 95.1223C213.967 96.5791 214.758 97.4268 214.758 97.4268L216.457 95.4269Z" fill="black"/>
<path d="M212.392 91.6041C212.392 91.6041 215.362 89.6044 217.909 88.9334C220.456 88.2668 222.58 89.1762 222.58 89.1762L216.453 95.4226L212.392 91.6041Z" fill="url(#paint57_linear_255_252)"/>
<path d="M222.583 89.181C222.583 89.181 226.11 85.4863 229.69 86.837C233.27 88.1878 236.373 93.679 236.294 95.5065C236.214 97.334 235.102 100.834 235.102 100.834L232.873 98.6053C232.873 98.6053 234.223 95.0254 233.747 93.7541C233.27 92.4828 230.485 89.2207 228.816 88.744C227.147 88.2672 224.441 90.9731 224.441 90.9731L222.583 89.181Z" fill="url(#paint58_linear_255_252)"/>
<path d="M233.161 91.4064C233.324 91.3402 234.428 90.3822 234.428 89.6008C234.428 88.8195 234.428 88.3824 233.064 88.2368C231.7 88.0911 229.506 89.0667 229.506 89.0667C229.506 89.0667 229.457 89.4552 229.992 89.8481C230.526 90.2365 231.651 92.0377 233.161 91.4064Z" fill="url(#paint59_linear_255_252)"/>
<path d="M265.546 84.9568L250.233 89.2475C250.233 89.2475 249.16 94.4475 248.639 99.7137C248.118 104.98 248.705 110.639 249.094 112.912C249.482 115.19 250.136 117.984 250.136 117.984C250.136 117.984 250.039 120.602 250.626 122.893C251.213 125.184 251.698 128.354 251.698 130.989C251.698 133.624 249.941 143.327 249.941 143.327L255.649 144.642C255.649 144.642 259.061 135.814 259.454 131.62C259.843 127.427 258.284 122.743 258.624 121.233C258.964 119.724 265.206 106.604 266.72 102.751C268.23 98.8971 269.302 94.5093 267.841 90.2672C266.376 86.0295 265.546 84.9568 265.546 84.9568Z" fill="url(#paint60_linear_255_252)"/>
<path d="M255.646 144.646C255.646 144.646 256.083 147.277 256.233 148.937C256.379 150.596 256.524 151.863 256.524 151.863C256.524 151.863 253.064 153.523 247.307 153.572C241.551 153.62 241.454 153.037 241.454 153.037C241.454 153.037 240.624 151.281 241.648 150.795C242.672 150.309 245.206 149.382 246.526 148.601C247.842 147.82 250.428 145.529 250.817 145.092C251.205 144.655 251.792 143.776 251.792 143.776L255.646 144.646Z" fill="black"/>
<path d="M250.82 145.083C251.209 144.646 251.796 143.768 251.796 143.768L255.65 144.646C255.65 144.646 255.901 146.165 256.087 147.622C254.775 148.354 252.771 148.994 251.16 148.694C249.708 148.421 249.024 147.666 248.971 146.756C249.854 146.015 250.622 145.308 250.82 145.083Z" fill="url(#paint61_linear_255_252)"/>
<path d="M254.915 144.35C254.915 144.35 253.794 151.034 253.648 151.666C253.503 152.301 252.381 153.325 251.6 153.224C250.819 153.127 250.43 152.637 249.697 151.957C248.965 151.273 247.795 150.443 247.795 150.443C247.795 150.443 249.455 148.831 250.479 143.467L254.915 144.35Z" fill="url(#paint62_linear_255_252)"/>
<path d="M253.649 151.179L254.333 156.737C254.333 156.737 246.224 160.031 242.922 159.713C239.898 159.421 238.777 158.834 238.923 157.956C239.068 157.077 239.947 156.543 241.311 155.859C242.675 155.174 244.873 153.713 245.504 152.883C246.14 152.053 247.795 150.446 247.795 150.446C247.795 150.446 248.771 151.276 249.941 152.155C251.11 153.033 251.614 153.545 252.183 153.13C253.256 152.349 253.649 151.179 253.649 151.179Z" fill="black"/>
<path d="M242.918 159.713C239.894 159.421 238.773 158.834 238.919 157.956C238.989 157.541 239.223 157.201 239.594 156.888C240.879 157.651 242.64 157.921 246.33 157.373C249.769 156.861 252.797 155.497 254.095 154.849L254.329 156.738C254.329 156.738 246.224 160.035 242.918 159.713Z" fill="url(#paint63_linear_255_252)"/>
<path d="M248.637 99.7132C249.158 94.4471 250.231 89.2473 250.231 89.2473L252.769 88.5366C252.508 90.2096 252.102 93.3568 252.38 95.4889C252.769 98.5125 253.744 99.8765 253.744 99.8765L250.134 117.626C250.134 117.626 250.107 117.63 250.054 117.63C249.869 116.809 249.401 114.699 249.096 112.911C248.703 110.638 248.121 104.979 248.637 99.7132Z" fill="#650039"/>
<path d="M265.544 84.9562C265.544 84.9562 263.332 81.2482 261.121 76.8914C258.909 72.5345 256.049 67.9834 252.407 65.6439C248.765 63.3043 246.232 62.395 242.263 62.4568C238.295 62.523 237.58 62.9777 237.58 62.9777L236.277 68.6985C236.277 68.6985 241.544 73.8367 244.859 78.0611C248.174 82.2856 250.222 89.2468 250.222 89.2468L265.544 84.9562Z" fill="url(#paint64_linear_255_252)"/>
<path d="M247.275 69.6744C247.275 69.6744 247.796 72.014 248.316 76.437C248.837 80.8601 248.577 81.5752 248.577 81.5752C248.577 81.5752 247.407 82.1623 244.807 82.3566C242.207 82.5508 242.207 82.5508 242.207 82.5508C242.207 82.5508 241.36 77.8055 240.45 75.4615C239.541 73.1219 237.59 70.8442 237.784 68.178" fill="url(#paint65_linear_255_252)"/>
<path d="M248.432 81.637C248.622 81.584 248.53 89.6842 248.238 90.417C247.947 91.1498 244.729 95.052 241.021 98.0229C237.313 100.998 236.192 101.532 236.192 101.532C236.192 101.532 235.459 102.653 232.731 104.75C229.998 106.847 228.295 105.871 228.295 105.871C228.295 105.871 226.78 104.459 226.833 104.066C226.882 103.678 230.294 101.678 230.294 101.678C230.294 101.678 227.465 102.751 227.222 102.702C226.979 102.653 227.173 101.824 228.882 100.994C230.59 100.164 232.051 99.484 233.124 99.2854C234.196 99.0911 234.929 99.0911 234.929 99.0911L242.976 89.4856L242.734 82.4139C242.725 82.4183 245.312 82.5154 248.432 81.637Z" fill="url(#paint66_linear_255_252)"/>
<path d="M237.556 63.1408C237.556 63.1408 235.931 63.1717 234.986 62.8495C234.042 62.5228 233.393 61.5472 233.393 61.5472C233.393 61.5472 234.333 60.8983 234.108 59.6269C233.878 58.3599 232.996 57.221 232.126 57.3843C230.727 57.6448 230.435 59.6269 230.435 59.6269L222.631 59.2384C222.631 59.2384 222.922 60.832 223.443 61.8076C223.964 62.7832 224.97 63.335 224.97 63.335C224.97 63.335 224.679 66.4252 224.842 66.6194C225.006 66.8137 226.599 66.7165 226.599 66.7165C226.599 66.7165 226.666 67.2375 226.763 67.4317C226.86 67.6259 227.314 67.5288 227.314 67.5288C227.314 67.5288 227.151 67.8864 227.478 67.9835C227.804 68.0806 228.387 67.9835 228.55 68.244C228.714 68.5044 229.623 69.48 230.241 69.0871C230.859 68.6987 231.963 66.8755 232.453 66.8755C232.943 66.8755 236.222 68.5662 236.222 68.5662L237.684 63.1364" fill="url(#paint67_linear_255_252)"/>
<path d="M223.508 53.0942C225.914 50.0704 229.882 49.4215 232.743 50.6222C235.603 51.8229 238.009 56.6036 238.693 58.2281C239.377 59.8526 240.251 59.3008 241.262 59.9188C242.269 60.5368 242.922 62.4526 242.922 62.4526C242.922 62.4526 241.134 62.4879 240.353 62.5188C239.81 62.5409 237.819 62.9073 237.819 62.9073L237.559 63.1368C237.559 63.1368 235.934 63.1677 234.99 62.8455C234.045 62.5188 233.396 61.5433 233.396 61.5433C233.396 61.5433 234.336 60.8943 234.111 59.623C233.882 58.3561 232.999 57.2172 232.129 57.3805C230.73 57.641 230.439 59.623 230.439 59.623L222.634 59.2346C222.634 59.2346 222.643 59.2831 222.661 59.3582C222.625 59.3405 222.603 59.3317 222.603 59.3317L221.725 59.2346C221.72 59.239 221.102 56.118 223.508 53.0942ZM225.874 66.7389C226.258 66.7345 226.598 66.7168 226.598 66.7168C226.598 66.7168 226.664 67.2377 226.761 67.432C226.859 67.6262 227.313 67.5291 227.313 67.5291C227.313 67.5291 227.15 67.8866 227.477 67.9838C227.803 68.0809 228.386 67.9838 228.549 68.2442C228.713 68.5046 229.622 69.4802 230.24 69.0873C230.827 68.7165 231.86 67.0435 232.376 66.8934C232.403 66.889 232.425 66.8846 232.447 66.8802C232.937 66.8802 236.217 68.5709 236.217 68.5709L238.234 70.5882C238.234 70.5882 238.428 71.1753 239.792 74.0976C241.156 77.0243 241.611 79.8848 241.611 80.079C241.611 80.2732 238.945 81.3812 237.188 80.6661C235.431 79.951 233.546 79.951 231.467 79.951C229.388 79.951 227.825 78.1941 227.825 78.1941C227.825 78.1941 227.631 75.7883 227.697 73.2545C227.763 70.9723 226.192 67.432 225.874 66.7389Z" fill="black"/>
<path d="M225.794 141.664H253.468L252.271 139.011H224.704L225.794 141.664Z" fill="black"/>
<path d="M277.714 199.027H274.434L250.893 138.631H254.481L277.714 199.027Z" fill="black"/>
<path d="M248.138 199.027H244.859L221.114 138.631H224.703L248.138 199.027Z" fill="black"/>
<path d="M243.274 186.711H270.948L269.751 184.059H242.18L243.274 186.711Z" fill="black"/>
<path d="M237.446 171.623H265.119L263.923 168.97H236.352L237.446 171.623Z" fill="black"/>
<path d="M231.568 156.853H259.241L258.045 154.2H230.478L231.568 156.853Z" fill="black"/>
<path d="M249.3 141.721H221.627L222.823 139.068H250.395L249.3 141.721Z" fill="#A600A9"/>
<path d="M196.816 200.81H200.092L224.203 138.687H220.614L196.816 200.81Z" fill="#A600A9"/>
<path d="M226.312 200.81H229.588L253.986 138.687H250.397L226.312 200.81Z" fill="#A600A9"/>
<path d="M231.825 186.768H204.152L205.349 184.115H232.916L231.825 186.768Z" fill="#A600A9"/>
<path d="M237.655 171.68H209.978L211.174 169.027H238.745L237.655 171.68Z" fill="#A600A9"/>
<path d="M243.528 156.91H215.854L217.051 154.257H244.622L243.528 156.91Z" fill="#A600A9"/>
<path d="M35.8754 45.9875C36.2289 45.9875 36.5155 45.7008 36.5155 45.347C36.5155 44.9933 36.2289 44.7065 35.8754 44.7065C35.5219 44.7065 35.2354 44.9933 35.2354 45.347C35.2354 45.7008 35.5219 45.9875 35.8754 45.9875Z" fill="white"/>
<path d="M59.2485 36.9207C59.602 36.9207 59.8885 36.6341 59.8885 36.2805C59.8885 35.927 59.602 35.6404 59.2485 35.6404C58.895 35.6404 58.6084 35.927 58.6084 36.2805C58.6084 36.6341 58.895 36.9207 59.2485 36.9207Z" fill="white"/>
<path d="M78.7875 41.5127C79.141 41.5127 79.4276 41.2261 79.4276 40.8726C79.4276 40.519 79.141 40.2324 78.7875 40.2324C78.434 40.2324 78.1475 40.519 78.1475 40.8726C78.1475 41.2261 78.434 41.5127 78.7875 41.5127Z" fill="white"/>
<path d="M101.688 26.7363C102.041 26.7363 102.328 26.4498 102.328 26.0963C102.328 25.7428 102.041 25.4563 101.688 25.4563C101.334 25.4563 101.048 25.7428 101.048 26.0963C101.048 26.4498 101.334 26.7363 101.688 26.7363Z" fill="white"/>
<path d="M111.237 48.5479C111.59 48.5479 111.877 48.2614 111.877 47.908C111.877 47.5546 111.59 47.2681 111.237 47.2681C110.883 47.2681 110.597 47.5546 110.597 47.908C110.597 48.2614 110.883 48.5479 111.237 48.5479Z" fill="white"/>
<path d="M132.971 14.0063C133.325 14.0063 133.611 13.7197 133.611 13.3662C133.611 13.0127 133.325 12.7261 132.971 12.7261C132.618 12.7261 132.331 13.0127 132.331 13.3662C132.331 13.7197 132.618 14.0063 132.971 14.0063Z" fill="white"/>
<path d="M143.408 37.5647C143.761 37.5647 144.048 37.2782 144.048 36.9247C144.048 36.5712 143.761 36.2847 143.408 36.2847C143.054 36.2847 142.768 36.5712 142.768 36.9247C142.768 37.2782 143.054 37.5647 143.408 37.5647Z" fill="white"/>
<path d="M150.789 77.19C150.498 77.1904 150.216 77.083 149.998 76.8883L143.971 71.5013L150.334 65.8146C150.57 65.6037 150.88 65.4957 151.195 65.5145C151.51 65.5332 151.805 65.6771 152.015 65.9146C152.225 66.152 152.332 66.4635 152.314 66.7806C152.295 67.0976 152.152 67.3942 151.916 67.6052L147.557 71.5013L151.581 75.0965C151.762 75.2579 151.889 75.4706 151.947 75.7065C152.004 75.9423 151.989 76.1902 151.903 76.4172C151.818 76.6442 151.665 76.8397 151.467 76.9777C151.268 77.1158 151.032 77.1899 150.791 77.1902L150.789 77.19ZM161.445 77.1878L167.808 71.5011L161.78 66.1141C161.543 65.9088 161.235 65.8054 160.923 65.8263C160.611 65.8472 160.32 65.9908 160.112 66.2259C159.904 66.4611 159.797 66.7689 159.813 67.083C159.829 67.3971 159.968 67.6922 160.198 67.9045L164.223 71.5011L159.864 75.3958C159.63 75.6073 159.488 75.9032 159.47 76.2191C159.453 76.535 159.56 76.8451 159.769 77.0818C159.978 77.3185 160.271 77.4624 160.585 77.4823C160.899 77.5022 161.208 77.3963 161.445 77.1878H161.445ZM155.873 78.8847L158.255 64.5128C158.282 64.3573 158.278 64.198 158.244 64.044C158.209 63.8901 158.144 63.7446 158.054 63.6158C157.963 63.487 157.848 63.3776 157.714 63.2938C157.581 63.21 157.433 63.1534 157.278 63.1274C157.123 63.1014 156.965 63.1065 156.812 63.1423C156.659 63.1781 156.515 63.2439 156.387 63.336C156.26 63.4281 156.152 63.5447 156.069 63.6789C155.987 63.8132 155.931 63.9626 155.906 64.1184L153.524 78.4902C153.498 78.6454 153.503 78.8042 153.538 78.9575C153.573 79.1108 153.638 79.2556 153.729 79.3836C153.82 79.5116 153.935 79.6204 154.068 79.7037C154.201 79.787 154.349 79.8432 154.503 79.869C154.568 79.8795 154.634 79.8847 154.7 79.8848C154.982 79.8844 155.254 79.7837 155.469 79.6006C155.684 79.4176 155.827 79.1639 155.873 78.8847H155.873Z" fill="white"/>
<defs>
<linearGradient id="paint0_linear_255_252" x1="77.9169" y1="-0.532661" x2="77.2874" y2="31.3641" gradientUnits="userSpaceOnUse">
<stop stop-color="#88CFDA"/>
<stop offset="0.00834" stop-color="#89CFD9"/>
<stop offset="0.4784" stop-color="#C8D9BB"/>
<stop offset="0.8218" stop-color="#F0DFA7"/>
<stop offset="1" stop-color="#FFE1A0"/>
</linearGradient>
<linearGradient id="paint1_linear_255_252" x1="243.77" y1="113.026" x2="283.27" y2="85.4138" gradientUnits="userSpaceOnUse">
<stop/>
</linearGradient>
<linearGradient id="paint2_linear_255_252" x1="206.637" y1="144.658" x2="240.157" y2="89.0512" gradientUnits="userSpaceOnUse">
<stop stop-color="#7633FF"/>
<stop offset="0.1585" stop-color="#7137FF"/>
<stop offset="0.3535" stop-color="#6243FF"/>
<stop offset="0.5676" stop-color="#4957FF"/>
<stop offset="0.7937" stop-color="#2672FF"/>
<stop offset="1" stop-color="#0090FF"/>
</linearGradient>
<linearGradient id="paint3_linear_255_252" x1="234.766" y1="139.96" x2="234.744" y2="140.02" gradientUnits="userSpaceOnUse">
<stop offset="0.0743" stop-color="#CEC228"/>
<stop offset="0.58" stop-color="#B2AE18"/>
</linearGradient>
<linearGradient id="paint4_linear_255_252" x1="210.813" y1="117.934" x2="211.932" y2="117.685" gradientUnits="userSpaceOnUse">
<stop stop-color="#7700BB"/>
<stop offset="1"/>
</linearGradient>
<linearGradient id="paint5_linear_255_252" x1="174.383" y1="133.149" x2="214.37" y2="124.244" gradientUnits="userSpaceOnUse">
<stop stop-color="#7700BB"/>
<stop offset="1"/>
</linearGradient>
<linearGradient id="paint6_linear_255_252" x1="225.104" y1="150.979" x2="258.484" y2="143.544" gradientUnits="userSpaceOnUse">
<stop stop-color="#7700BB"/>
<stop offset="1"/>
</linearGradient>
<linearGradient id="paint7_linear_255_252" x1="88.6786" y1="104.424" x2="49.1787" y2="76.8126" gradientUnits="userSpaceOnUse">
<stop/>
</linearGradient>
<linearGradient id="paint8_linear_255_252" x1="195.906" y1="171.48" x2="223.979" y2="126.951" gradientUnits="userSpaceOnUse">
<stop stop-color="#59023F"/>
<stop offset="0.1189" stop-color="#590444"/>
<stop offset="0.2652" stop-color="#5A0A53"/>
<stop offset="0.4258" stop-color="#5C156C"/>
<stop offset="0.5969" stop-color="#5E238F"/>
<stop offset="0.7761" stop-color="#6135BC"/>
<stop offset="0.9595" stop-color="#644CF2"/>
<stop offset="1" stop-color="#6551FF"/>
</linearGradient>
<linearGradient id="paint9_linear_255_252" x1="223.461" y1="172.243" x2="223.454" y2="172.28" gradientUnits="userSpaceOnUse">
<stop offset="0.0743" stop-color="#CEC228"/>
<stop offset="0.58" stop-color="#B2AE18"/>
</linearGradient>
<linearGradient id="paint10_linear_255_252" x1="191.451" y1="160.64" x2="195.838" y2="157.884" gradientUnits="userSpaceOnUse">
<stop stop-color="#7700BB"/>
<stop offset="1"/>
</linearGradient>
<linearGradient id="paint11_linear_255_252" x1="165.577" y1="179.843" x2="191.545" y2="163.527" gradientUnits="userSpaceOnUse">
<stop stop-color="#7700BB"/>
<stop offset="1"/>
</linearGradient>
<linearGradient id="paint12_linear_255_252" x1="116.558" y1="142.19" x2="38.2908" y2="100.292" gradientUnits="userSpaceOnUse">
<stop stop-color="#7633FF"/>
<stop offset="0.1585" stop-color="#7137FF"/>
<stop offset="0.3535" stop-color="#6243FF"/>
<stop offset="0.5676" stop-color="#4957FF"/>
<stop offset="0.7937" stop-color="#2672FF"/>
<stop offset="1" stop-color="#0090FF"/>
</linearGradient>
<linearGradient id="paint13_linear_255_252" x1="101.804" y1="148.672" x2="102.105" y2="148.808" gradientUnits="userSpaceOnUse">
<stop offset="0.0743" stop-color="#CEC228"/>
<stop offset="0.58" stop-color="#B2AE18"/>
</linearGradient>
<linearGradient id="paint14_linear_255_252" x1="143.136" y1="171.696" x2="114.193" y2="122.397" gradientUnits="userSpaceOnUse">
<stop stop-color="#59023F"/>
<stop offset="0.1189" stop-color="#590444"/>
<stop offset="0.2652" stop-color="#5A0A53"/>
<stop offset="0.4258" stop-color="#5C156C"/>
<stop offset="0.5969" stop-color="#5E238F"/>
<stop offset="0.7761" stop-color="#6135BC"/>
<stop offset="0.9595" stop-color="#644CF2"/>
<stop offset="1" stop-color="#6551FF"/>
</linearGradient>
<linearGradient id="paint15_linear_255_252" x1="118.208" y1="172.76" x2="118.218" y2="172.796" gradientUnits="userSpaceOnUse">
<stop offset="0.0743" stop-color="#CEC228"/>
<stop offset="0.58" stop-color="#B2AE18"/>
</linearGradient>
<linearGradient id="paint16_linear_255_252" x1="148.254" y1="158.244" x2="144.797" y2="156.482" gradientUnits="userSpaceOnUse">
<stop stop-color="#7700BB"/>
<stop offset="1"/>
</linearGradient>
<linearGradient id="paint17_linear_255_252" x1="177.423" y1="176.089" x2="147.093" y2="160.637" gradientUnits="userSpaceOnUse">
<stop stop-color="#7700BB"/>
<stop offset="1"/>
</linearGradient>
<linearGradient id="paint18_linear_255_252" x1="132.368" y1="168.4" x2="93.0595" y2="148.375" gradientUnits="userSpaceOnUse">
<stop stop-color="#7700BB"/>
<stop offset="1"/>
</linearGradient>
<linearGradient id="paint19_linear_255_252" x1="128.397" y1="46.4464" x2="130.509" y2="47.4096" gradientUnits="userSpaceOnUse">
<stop stop-color="#7633FF"/>
<stop offset="0.1585" stop-color="#7137FF"/>
<stop offset="0.3535" stop-color="#6243FF"/>
<stop offset="0.5676" stop-color="#4957FF"/>
<stop offset="0.7937" stop-color="#2672FF"/>
<stop offset="1" stop-color="#0090FF"/>
</linearGradient>
<linearGradient id="paint20_linear_255_252" x1="123.103" y1="47.5726" x2="125.105" y2="48.4858" gradientUnits="userSpaceOnUse">
<stop stop-color="#7633FF"/>
<stop offset="0.1585" stop-color="#7137FF"/>
<stop offset="0.3535" stop-color="#6243FF"/>
<stop offset="0.5676" stop-color="#4957FF"/>
<stop offset="0.7937" stop-color="#2672FF"/>
<stop offset="1" stop-color="#0090FF"/>
</linearGradient>
<linearGradient id="paint21_linear_255_252" x1="120.154" y1="52.667" x2="122.015" y2="53.5157" gradientUnits="userSpaceOnUse">
<stop stop-color="#7633FF"/>
<stop offset="0.1585" stop-color="#7137FF"/>
<stop offset="0.3535" stop-color="#6243FF"/>
<stop offset="0.5676" stop-color="#4957FF"/>
<stop offset="0.7937" stop-color="#2672FF"/>
<stop offset="1" stop-color="#0090FF"/>
</linearGradient>
<linearGradient id="paint22_linear_255_252" x1="113.923" y1="49.8045" x2="116.629" y2="51.0381" gradientUnits="userSpaceOnUse">
<stop stop-color="#7633FF"/>
<stop offset="0.1585" stop-color="#7137FF"/>
<stop offset="0.3535" stop-color="#6243FF"/>
<stop offset="0.5676" stop-color="#4957FF"/>
<stop offset="0.7937" stop-color="#2672FF"/>
<stop offset="1" stop-color="#0090FF"/>
</linearGradient>
<linearGradient id="paint23_linear_255_252" x1="106.619" y1="60.1841" x2="111.13" y2="62.2412" gradientUnits="userSpaceOnUse">
<stop stop-color="#7633FF"/>
<stop offset="0.1585" stop-color="#7137FF"/>
<stop offset="0.3535" stop-color="#6243FF"/>
<stop offset="0.5676" stop-color="#4957FF"/>
<stop offset="0.7937" stop-color="#2672FF"/>
<stop offset="1" stop-color="#0090FF"/>
</linearGradient>
<linearGradient id="paint24_linear_255_252" x1="109.318" y1="53.7885" x2="113.283" y2="55.5963" gradientUnits="userSpaceOnUse">
<stop stop-color="#7633FF"/>
<stop offset="0.1585" stop-color="#7137FF"/>
<stop offset="0.3535" stop-color="#6243FF"/>
<stop offset="0.5676" stop-color="#4957FF"/>
<stop offset="0.7937" stop-color="#2672FF"/>
<stop offset="1" stop-color="#0090FF"/>
</linearGradient>
<linearGradient id="paint25_linear_255_252" x1="196.603" y1="49.6317" x2="194.491" y2="50.5948" gradientUnits="userSpaceOnUse">
<stop stop-color="#7633FF"/>
<stop offset="0.1585" stop-color="#7137FF"/>
<stop offset="0.3535" stop-color="#6243FF"/>
<stop offset="0.5676" stop-color="#4957FF"/>
<stop offset="0.7937" stop-color="#2672FF"/>
<stop offset="1" stop-color="#0090FF"/>
</linearGradient>
<linearGradient id="paint26_linear_255_252" x1="201.901" y1="50.7591" x2="199.898" y2="51.6722" gradientUnits="userSpaceOnUse">
<stop stop-color="#7633FF"/>
<stop offset="0.1585" stop-color="#7137FF"/>
<stop offset="0.3535" stop-color="#6243FF"/>
<stop offset="0.5676" stop-color="#4957FF"/>
<stop offset="0.7937" stop-color="#2672FF"/>
<stop offset="1" stop-color="#0090FF"/>
</linearGradient>
<linearGradient id="paint27_linear_255_252" x1="204.846" y1="55.8528" x2="202.985" y2="56.7014" gradientUnits="userSpaceOnUse">
<stop stop-color="#7633FF"/>
<stop offset="0.1585" stop-color="#7137FF"/>
<stop offset="0.3535" stop-color="#6243FF"/>
<stop offset="0.5676" stop-color="#4957FF"/>
<stop offset="0.7937" stop-color="#2672FF"/>
<stop offset="1" stop-color="#0090FF"/>
</linearGradient>
<linearGradient id="paint28_linear_255_252" x1="211.078" y1="52.9908" x2="208.373" y2="54.2244" gradientUnits="userSpaceOnUse">
<stop stop-color="#7633FF"/>
<stop offset="0.1585" stop-color="#7137FF"/>
<stop offset="0.3535" stop-color="#6243FF"/>
<stop offset="0.5676" stop-color="#4957FF"/>
<stop offset="0.7937" stop-color="#2672FF"/>
<stop offset="1" stop-color="#0090FF"/>
</linearGradient>
<linearGradient id="paint29_linear_255_252" x1="218.38" y1="63.37" x2="213.869" y2="65.4263" gradientUnits="userSpaceOnUse">
<stop stop-color="#7633FF"/>
<stop offset="0.1585" stop-color="#7137FF"/>
<stop offset="0.3535" stop-color="#6243FF"/>
<stop offset="0.5676" stop-color="#4957FF"/>
<stop offset="0.7937" stop-color="#2672FF"/>
<stop offset="1" stop-color="#0090FF"/>
</linearGradient>
<linearGradient id="paint30_linear_255_252" x1="215.675" y1="56.9742" x2="211.718" y2="58.779" gradientUnits="userSpaceOnUse">
<stop stop-color="#7633FF"/>
<stop offset="0.1585" stop-color="#7137FF"/>
<stop offset="0.3535" stop-color="#6243FF"/>
<stop offset="0.5676" stop-color="#4957FF"/>
<stop offset="0.7937" stop-color="#2672FF"/>
<stop offset="1" stop-color="#0090FF"/>
</linearGradient>
<linearGradient id="paint31_linear_255_252" x1="263.568" y1="104.825" x2="117.373" y2="203.681" gradientUnits="userSpaceOnUse">
<stop stop-color="#7981FF"/>
<stop offset="0.1345" stop-color="#7E85FF"/>
<stop offset="0.2866" stop-color="#8B92FF"/>
<stop offset="0.4472" stop-color="#A2A7FF"/>
<stop offset="0.6137" stop-color="#C2C5FF"/>
<stop offset="0.7832" stop-color="#EAEBFF"/>
<stop offset="0.861" stop-color="white"/>
</linearGradient>
<linearGradient id="paint32_linear_255_252" x1="77.4365" y1="85.2869" x2="260.446" y2="85.2869" gradientUnits="userSpaceOnUse">
<stop stop-color="#7633FF"/>
<stop offset="0.1585" stop-color="#7137FF"/>
<stop offset="0.3535" stop-color="#6243FF"/>
<stop offset="0.5676" stop-color="#4957FF"/>
<stop offset="0.7937" stop-color="#2672FF"/>
<stop offset="1" stop-color="#0090FF"/>
</linearGradient>
<linearGradient id="paint33_linear_255_252" x1="154.471" y1="117.328" x2="157.575" y2="117.328" gradientUnits="userSpaceOnUse">
<stop stop-color="#00A49A"/>
<stop offset="0.0399" stop-color="#00A198"/>
<stop offset="0.671" stop-color="#007A7B"/>
<stop offset="1" stop-color="#006B70"/>
</linearGradient>
<linearGradient id="paint34_linear_255_252" x1="110.533" y1="137.553" x2="156.555" y2="137.553" gradientUnits="userSpaceOnUse">
<stop stop-color="#00A49A"/>
<stop offset="0.4118" stop-color="#007477"/>
<stop offset="0.799" stop-color="#004C5A"/>
<stop offset="1" stop-color="#003D4F"/>
</linearGradient>
<linearGradient id="paint35_linear_255_252" x1="196.951" y1="135.254" x2="154.972" y2="150.819" gradientUnits="userSpaceOnUse">
<stop stop-color="#00A49A"/>
<stop offset="0.4118" stop-color="#007477"/>
<stop offset="0.799" stop-color="#004C5A"/>
<stop offset="1" stop-color="#003D4F"/>
</linearGradient>
<linearGradient id="paint36_linear_255_252" x1="133.355" y1="179.207" x2="182.061" y2="179.207" gradientUnits="userSpaceOnUse">
<stop stop-color="#311341"/>
<stop offset="0.2299" stop-color="#3113C2"/>
<stop offset="0.3479" stop-color="#2F18C5"/>
<stop offset="0.4931" stop-color="#2927CC"/>
<stop offset="0.6524" stop-color="#1F40D8"/>
<stop offset="0.8219" stop-color="#1263E9"/>
<stop offset="0.9978" stop-color="#008FFF"/>
<stop offset="1" stop-color="#0090FF"/>
</linearGradient>
<linearGradient id="paint37_linear_255_252" x1="128.607" y1="152.174" x2="186.196" y2="152.174" gradientUnits="userSpaceOnUse">
<stop stop-color="#7633FF"/>
<stop offset="0.1585" stop-color="#7137FF"/>
<stop offset="0.3535" stop-color="#6243FF"/>
<stop offset="0.5676" stop-color="#4957FF"/>
<stop offset="0.7937" stop-color="#2672FF"/>
<stop offset="1" stop-color="#0090FF"/>
</linearGradient>
<linearGradient id="paint38_linear_255_252" x1="158.858" y1="117.123" x2="189.642" y2="117.123" gradientUnits="userSpaceOnUse">
<stop stop-color="#00A49A"/>
<stop offset="0.0399" stop-color="#00A198"/>
<stop offset="0.671" stop-color="#007A7B"/>
<stop offset="1" stop-color="#006B70"/>
</linearGradient>
<linearGradient id="paint39_linear_255_252" x1="131.181" y1="107.338" x2="150.848" y2="129.658" gradientUnits="userSpaceOnUse">
<stop stop-color="#00A49A"/>
<stop offset="0.0399" stop-color="#00A198"/>
<stop offset="0.671" stop-color="#007A7B"/>
<stop offset="1" stop-color="#006B70"/>
</linearGradient>
<linearGradient id="paint40_linear_255_252" x1="131.037" y1="98.0983" x2="153.224" y2="98.0983" gradientUnits="userSpaceOnUse">
<stop stop-color="#00A49A"/>
<stop offset="0.0399" stop-color="#00A198"/>
<stop offset="0.671" stop-color="#007A7B"/>
<stop offset="1" stop-color="#006B70"/>
</linearGradient>
<linearGradient id="paint41_linear_255_252" x1="158.683" y1="97.9495" x2="182.334" y2="97.9495" gradientUnits="userSpaceOnUse">
<stop stop-color="#00A49A"/>
<stop offset="0.0399" stop-color="#00A198"/>
<stop offset="0.671" stop-color="#007A7B"/>
<stop offset="1" stop-color="#006B70"/>
</linearGradient>
<linearGradient id="paint42_linear_255_252" x1="119.567" y1="99.4327" x2="123.169" y2="99.4327" gradientUnits="userSpaceOnUse">
<stop stop-color="#5E60FF"/>
<stop offset="0.1814" stop-color="#5963FF"/>
<stop offset="0.4044" stop-color="#4A6AFF"/>
<stop offset="0.6491" stop-color="#3177FF"/>
<stop offset="0.9079" stop-color="#0E89FF"/>
<stop offset="1" stop-color="#0090FF"/>
</linearGradient>
<linearGradient id="paint43_linear_255_252" x1="116.559" y1="93.8336" x2="117.316" y2="94.132" gradientUnits="userSpaceOnUse">
<stop stop-color="#5E60FF"/>
<stop offset="0.1814" stop-color="#5963FF"/>
<stop offset="0.4044" stop-color="#4A6AFF"/>
<stop offset="0.6491" stop-color="#3177FF"/>
<stop offset="0.9079" stop-color="#0E89FF"/>
<stop offset="1" stop-color="#0090FF"/>
</linearGradient>
<linearGradient id="paint44_linear_255_252" x1="72.0248" y1="85.5173" x2="76.1612" y2="85.5173" gradientUnits="userSpaceOnUse">
<stop stop-color="#88CFDA"/>
<stop offset="0.00834" stop-color="#89CFD9"/>
<stop offset="0.4784" stop-color="#C8D9BB"/>
<stop offset="0.8218" stop-color="#F0DFA7"/>
<stop offset="1" stop-color="#FFE1A0"/>
</linearGradient>
<linearGradient id="paint45_linear_255_252" x1="84.6435" y1="91.2025" x2="95.1434" y2="91.2025" gradientUnits="userSpaceOnUse">
<stop stop-color="#88CFDA"/>
<stop offset="0.00834" stop-color="#89CFD9"/>
<stop offset="0.4784" stop-color="#C8D9BB"/>
<stop offset="0.8218" stop-color="#F0DFA7"/>
<stop offset="1" stop-color="#FFE1A0"/>
</linearGradient>
<linearGradient id="paint46_linear_255_252" x1="62.6374" y1="88.5793" x2="42.2993" y2="101.477" gradientUnits="userSpaceOnUse">
<stop stop-color="#591DDB"/>
<stop offset="0.1609" stop-color="#5522DD"/>
<stop offset="0.3589" stop-color="#4931E1"/>
<stop offset="0.5762" stop-color="#364AE9"/>
<stop offset="0.8058" stop-color="#1B6DF4"/>
<stop offset="1" stop-color="#0090FF"/>
</linearGradient>
<linearGradient id="paint47_linear_255_252" x1="59.9514" y1="77.1283" x2="67.9102" y2="77.1283" gradientUnits="userSpaceOnUse">
<stop stop-color="#7633FF"/>
<stop offset="0.1585" stop-color="#7137FF"/>
<stop offset="0.3535" stop-color="#6243FF"/>
<stop offset="0.5676" stop-color="#4957FF"/>
<stop offset="0.7937" stop-color="#2672FF"/>
<stop offset="1" stop-color="#0090FF"/>
</linearGradient>
<linearGradient id="paint48_linear_255_252" x1="62.7946" y1="78.2981" x2="58.0826" y2="113.644" gradientUnits="userSpaceOnUse">
<stop stop-color="#7633FF"/>
<stop offset="0.1585" stop-color="#7137FF"/>
<stop offset="0.3535" stop-color="#6243FF"/>
<stop offset="0.5676" stop-color="#4957FF"/>
<stop offset="0.7937" stop-color="#2672FF"/>
<stop offset="1" stop-color="#0090FF"/>
</linearGradient>
<linearGradient id="paint49_linear_255_252" x1="88.8563" y1="102.453" x2="61.8168" y2="85.7968" gradientUnits="userSpaceOnUse">
<stop stop-color="#5E60FF"/>
<stop offset="0.1814" stop-color="#5963FF"/>
<stop offset="0.4044" stop-color="#4A6AFF"/>
<stop offset="0.6491" stop-color="#3177FF"/>
<stop offset="0.9079" stop-color="#0E89FF"/>
<stop offset="1" stop-color="#0090FF"/>
</linearGradient>
<linearGradient id="paint50_linear_255_252" x1="61.957" y1="113.343" x2="61.957" y2="171.566" gradientUnits="userSpaceOnUse">
<stop stop-color="#311341"/>
<stop offset="0.2299" stop-color="#3113C2"/>
<stop offset="0.3479" stop-color="#2F18C5"/>
<stop offset="0.4931" stop-color="#2927CC"/>
<stop offset="0.6524" stop-color="#1F40D8"/>
<stop offset="0.8219" stop-color="#1263E9"/>
<stop offset="0.9978" stop-color="#008FFF"/>
<stop offset="1" stop-color="#0090FF"/>
</linearGradient>
<linearGradient id="paint51_linear_255_252" x1="63.6951" y1="72.051" x2="72.6943" y2="72.051" gradientUnits="userSpaceOnUse">
<stop stop-color="#88CFDA"/>
<stop offset="0.00834" stop-color="#89CFD9"/>
<stop offset="0.4784" stop-color="#C8D9BB"/>
<stop offset="0.8218" stop-color="#F0DFA7"/>
<stop offset="1" stop-color="#FFE1A0"/>
</linearGradient>
<linearGradient id="paint52_linear_255_252" x1="74.2563" y1="85.8948" x2="78.2299" y2="85.8948" gradientUnits="userSpaceOnUse">
<stop stop-color="#88CFDA"/>
<stop offset="0.00834" stop-color="#89CFD9"/>
<stop offset="0.4784" stop-color="#C8D9BB"/>
<stop offset="0.8218" stop-color="#F0DFA7"/>
<stop offset="1" stop-color="#FFE1A0"/>
</linearGradient>
<linearGradient id="paint53_linear_255_252" x1="244.194" y1="85.8209" x2="230.06" y2="91.2125" gradientUnits="userSpaceOnUse">
<stop stop-color="#88CFDA"/>
<stop offset="0.00834" stop-color="#89CFD9"/>
<stop offset="0.4784" stop-color="#C8D9BB"/>
<stop offset="0.8218" stop-color="#F0DFA7"/>
<stop offset="1" stop-color="#FFE1A0"/>
</linearGradient>
<linearGradient id="paint54_linear_255_252" x1="210.693" y1="101.938" x2="236.998" y2="101.938" gradientUnits="userSpaceOnUse">
<stop stop-color="#7633FF"/>
<stop offset="0.1585" stop-color="#7137FF"/>
<stop offset="0.3535" stop-color="#6243FF"/>
<stop offset="0.5676" stop-color="#4957FF"/>
<stop offset="0.7937" stop-color="#2672FF"/>
<stop offset="1" stop-color="#0090FF"/>
</linearGradient>
<linearGradient id="paint55_linear_255_252" x1="202.627" y1="113.32" x2="223.492" y2="113.32" gradientUnits="userSpaceOnUse">
<stop stop-color="#7633FF"/>
<stop offset="0.1585" stop-color="#7137FF"/>
<stop offset="0.3535" stop-color="#6243FF"/>
<stop offset="0.5676" stop-color="#4957FF"/>
<stop offset="0.7937" stop-color="#2672FF"/>
<stop offset="1" stop-color="#0090FF"/>
</linearGradient>
<linearGradient id="paint56_linear_255_252" x1="200.513" y1="115.443" x2="203.356" y2="115.443" gradientUnits="userSpaceOnUse">
<stop stop-color="#7633FF"/>
<stop offset="0.1585" stop-color="#7137FF"/>
<stop offset="0.3535" stop-color="#6243FF"/>
<stop offset="0.5676" stop-color="#4957FF"/>
<stop offset="0.7937" stop-color="#2672FF"/>
<stop offset="1" stop-color="#0090FF"/>
</linearGradient>
<linearGradient id="paint57_linear_255_252" x1="212.394" y1="92.0592" x2="222.584" y2="92.0592" gradientUnits="userSpaceOnUse">
<stop stop-color="#7633FF"/>
<stop offset="0.1585" stop-color="#7137FF"/>
<stop offset="0.3535" stop-color="#6243FF"/>
<stop offset="0.5676" stop-color="#4957FF"/>
<stop offset="0.7937" stop-color="#2672FF"/>
<stop offset="1" stop-color="#0090FF"/>
</linearGradient>
<linearGradient id="paint58_linear_255_252" x1="222.583" y1="93.6868" x2="236.292" y2="93.6868" gradientUnits="userSpaceOnUse">
<stop stop-color="#7633FF"/>
<stop offset="0.1585" stop-color="#7137FF"/>
<stop offset="0.3535" stop-color="#6243FF"/>
<stop offset="0.5676" stop-color="#4957FF"/>
<stop offset="0.7937" stop-color="#2672FF"/>
<stop offset="1" stop-color="#0090FF"/>
</linearGradient>
<linearGradient id="paint59_linear_255_252" x1="233.747" y1="89.024" x2="230.846" y2="91.7471" gradientUnits="userSpaceOnUse">
<stop stop-color="#88CFDA"/>
<stop offset="0.00834" stop-color="#89CFD9"/>
<stop offset="0.4784" stop-color="#C8D9BB"/>
<stop offset="0.8218" stop-color="#F0DFA7"/>
<stop offset="1" stop-color="#FFE1A0"/>
</linearGradient>
<linearGradient id="paint60_linear_255_252" x1="258.59" y1="86.3612" x2="254.159" y2="145.247" gradientUnits="userSpaceOnUse">
<stop stop-color="#630068"/>
<stop offset="1" stop-color="#9009FF"/>
</linearGradient>
<linearGradient id="paint61_linear_255_252" x1="256.298" y1="148.171" x2="250.963" y2="142.679" gradientUnits="userSpaceOnUse">
<stop stop-color="#A1BAFF"/>
<stop offset="0.9097" stop-color="white"/>
</linearGradient>
<linearGradient id="paint62_linear_255_252" x1="247.795" y1="148.354" x2="254.915" y2="148.354" gradientUnits="userSpaceOnUse">
<stop stop-color="#A1BAFF"/>
<stop offset="0.4332" stop-color="white"/>
</linearGradient>
<linearGradient id="paint63_linear_255_252" x1="238.908" y1="157.292" x2="254.33" y2="157.292" gradientUnits="userSpaceOnUse">
<stop stop-color="#A1BAFF"/>
<stop offset="0.4332" stop-color="white"/>
</linearGradient>
<linearGradient id="paint64_linear_255_252" x1="236.285" y1="75.8501" x2="265.545" y2="75.8501" gradientUnits="userSpaceOnUse">
<stop stop-color="#00A49A"/>
<stop offset="0.0399" stop-color="#00A198"/>
<stop offset="0.671" stop-color="#007A7B"/>
<stop offset="1" stop-color="#006B70"/>
</linearGradient>
<linearGradient id="paint65_linear_255_252" x1="237.769" y1="75.3642" x2="248.641" y2="75.3642" gradientUnits="userSpaceOnUse">
<stop stop-color="#00A49A"/>
<stop offset="0.0399" stop-color="#00A198"/>
<stop offset="0.671" stop-color="#007A7B"/>
<stop offset="1" stop-color="#006B70"/>
</linearGradient>
<linearGradient id="paint66_linear_255_252" x1="226.826" y1="93.8704" x2="248.529" y2="93.8704" gradientUnits="userSpaceOnUse">
<stop stop-color="#88CFDA"/>
<stop offset="0.00834" stop-color="#89CFD9"/>
<stop offset="0.4784" stop-color="#C8D9BB"/>
<stop offset="0.8218" stop-color="#F0DFA7"/>
<stop offset="1" stop-color="#FFE1A0"/>
</linearGradient>
<linearGradient id="paint67_linear_255_252" x1="222.633" y1="63.275" x2="237.686" y2="63.275" gradientUnits="userSpaceOnUse">
<stop stop-color="#88CFDA"/>
<stop offset="0.00834" stop-color="#89CFD9"/>
<stop offset="0.4784" stop-color="#C8D9BB"/>
<stop offset="0.8218" stop-color="#F0DFA7"/>
<stop offset="1" stop-color="#FFE1A0"/>
</linearGradient>
</defs>
</svg>
