<svg width="732" height="571" viewBox="0 0 732 571" fill="none" xmlns="http://www.w3.org/2000/svg">
<path d="M111.144 530.952C111.144 530.952 5.75947 507.919 0.257018 408.33C-6.19984 291.58 111.144 269.279 111.144 269.279C111.144 269.279 93.5358 119.096 314.14 119.096C596.927 119.096 587.539 299.8 587.539 299.8C587.539 299.8 660.288 293.937 707.23 364.339C773.873 464.309 684.937 541.518 684.937 541.518" fill="url(#paint0_linear_255_72)"/>
<path d="M170.436 308.303C170.436 309.355 169.559 310.212 168.478 310.212C167.397 310.212 166.521 309.355 166.521 308.303C166.521 307.252 167.397 306.395 168.478 306.395C169.559 306.395 170.436 307.252 170.436 308.303ZM328.692 436.699C328.692 437.264 328.273 437.722 327.747 437.722C327.231 437.722 326.803 437.264 326.803 436.699C326.803 436.135 327.221 435.677 327.747 435.677C328.273 435.667 328.692 436.125 328.692 436.699ZM204.083 335.114C204.083 336.166 203.207 337.023 202.126 337.023C201.045 337.023 200.168 336.166 200.168 335.114C200.168 334.062 201.045 333.205 202.126 333.205C203.207 333.205 204.083 334.062 204.083 335.114ZM59.7926 412.693C59.7926 413.745 58.9161 414.602 57.8351 414.602C56.7541 414.602 55.8776 413.745 55.8776 412.693C55.8776 411.641 56.7541 410.784 57.8351 410.784C58.9161 410.794 59.7926 411.641 59.7926 412.693ZM106.354 397.851C106.354 398.903 105.478 399.76 104.397 399.76C103.316 399.76 102.439 398.903 102.439 397.851C102.439 396.8 103.316 395.943 104.397 395.943C105.478 395.943 106.354 396.8 106.354 397.851ZM29.8359 380.487C29.8359 381.539 28.9594 382.396 27.8784 382.396C26.7974 382.396 25.9209 381.539 25.9209 380.487C25.9209 379.435 26.7974 378.578 27.8784 378.578C28.9594 378.578 29.8359 379.426 29.8359 380.487ZM183.447 384.276C183.447 385.327 182.57 386.184 181.489 386.184C180.408 386.184 179.532 385.327 179.532 384.276C179.532 383.224 180.408 382.367 181.489 382.367C182.57 382.376 183.447 383.224 183.447 384.276Z" fill="white"/>
<path opacity="0.8" d="M107.619 376.65C129.978 376.65 148.104 358.524 148.104 336.165C148.104 313.806 129.978 295.681 107.619 295.681C85.2603 295.681 67.1348 313.806 67.1348 336.165C67.1348 358.524 85.2603 376.65 107.619 376.65Z" fill="url(#paint1_linear_255_72)"/>
<path opacity="0.1" d="M36.3882 411.039H121.223C125.84 408.653 128.985 403.832 128.985 398.261C128.985 391.055 123.697 385.085 116.802 384.062C116.812 383.829 116.821 383.595 116.821 383.361C116.821 374.927 109.848 368.091 101.249 368.091C100.353 368.091 99.4668 368.168 98.6097 368.315C94.8992 361.877 87.6633 357.514 79.3463 357.514C69.6562 357.514 61.4366 363.445 58.5539 371.665C57.6481 371.48 56.7035 371.382 55.7491 371.382C47.4808 371.382 40.7902 378.492 40.7902 387.257C40.7902 388.24 40.8778 389.204 41.0337 390.139C34.7813 390.539 29.834 395.33 29.834 401.183C29.834 405.478 32.4927 409.208 36.3882 411.039Z" fill="white"/>
<path d="M379.38 570.151C555.713 570.151 698.659 558.893 698.659 545.005C698.659 531.118 555.713 519.859 379.38 519.859C203.047 519.859 60.1016 531.118 60.1016 545.005C60.1016 558.893 203.047 570.151 379.38 570.151Z" fill="url(#paint2_linear_255_72)"/>
<path d="M499.772 479.034H428.191V470.231H499.772C511.556 470.231 521.002 466.559 527.849 459.313C542.554 443.731 541.162 416.501 541.142 416.229L541.133 416.092L541.454 245.954L550.248 245.711L549.927 415.79C550.044 417.884 551.319 447.227 534.276 465.332C525.706 474.418 514.098 479.034 499.772 479.034ZM248.383 479.034H319.963V470.231H248.383C236.599 470.231 227.152 466.559 220.306 459.313C205.6 443.731 206.993 416.501 207.012 416.229L207.022 416.092L206.7 245.954L197.906 245.711L198.228 415.79C198.111 417.884 196.835 447.227 213.878 465.332C222.448 474.418 234.057 479.034 248.383 479.034Z" fill="white"/>
<path d="M308.617 231.501H300.699V369.317H308.617V231.501Z" fill="white"/>
<path d="M387.522 231.501H379.604V384.275H387.522V231.501Z" fill="white"/>
<path d="M466.437 231.501H458.52V384.275H466.437V231.501Z" fill="white"/>
<path d="M172.06 258.138H581.179C603.423 246.656 618.635 223.38 618.635 196.54C618.635 161.782 593.129 133.004 559.88 128.066C559.929 126.936 559.958 125.807 559.958 124.677C559.958 84.0074 526.34 51.0511 484.862 51.0511C480.528 51.0511 476.282 51.4114 472.143 52.1029C454.272 21.0749 419.378 0 379.254 0C332.507 0 292.86 28.603 278.963 68.2304C274.581 67.3442 270.062 66.8767 265.436 66.8767C225.584 66.8767 193.271 101.158 193.271 143.444C193.271 148.196 193.68 152.851 194.469 157.36C164.298 159.289 140.477 182.389 140.477 210.613C140.477 231.327 153.303 249.286 172.06 258.138Z" fill="url(#paint3_linear_255_72)"/>
<path d="M406.953 165.481C412.917 169.479 414.512 177.553 410.515 183.517L381.903 226.215C377.906 232.179 369.831 233.774 363.867 229.778L341.925 215.074C335.96 211.077 334.365 203.001 338.363 197.037L366.981 154.34C370.978 148.376 379.053 146.781 385.017 150.779L406.953 165.481Z" fill="white"/>
<path d="M357.201 192.22L378.411 203.932L386.033 197.426L389.222 187.898L370.422 172.619L357.201 192.22ZM374.347 180.915L368.014 190.305L370.678 191.775L376.709 182.833L383.789 188.588L381.793 194.549L381.794 194.549L381.789 194.562L377.003 198.648L372.919 196.393L374.58 193.929L376.655 195.075L379.236 192.84L379.237 192.837L379.237 192.837L380.344 189.602L377.354 187.17L371.618 195.675L363.751 191.331L372.042 179.04L374.347 180.915Z" fill="#6563FF"/>
<path d="M374.348 180.914L368.015 190.304L370.679 191.775L376.71 182.832L383.789 188.587L381.794 194.548L381.794 194.548L381.79 194.561L377.004 198.647L372.92 196.392L374.581 193.929L376.656 195.074L379.237 192.839L379.238 192.836L379.238 192.836L380.345 189.601L377.355 187.169L371.619 195.674L363.752 191.331L372.042 179.039L374.348 180.914Z" fill="#D8D8FF"/>
<path d="M577.79 170.264L551.115 191.933L548.311 177.5L569.609 160.204L577.79 170.264Z" fill="url(#paint4_linear_255_72)"/>
<path d="M597.589 194.64L555.488 228.833L531.511 199.315L573.612 165.122L597.589 194.64Z" fill="url(#paint5_linear_255_72)"/>
<path d="M480.421 235.106H444.979C437.799 235.106 431.979 240.927 431.979 248.106V263.72C431.979 270.9 437.799 276.72 444.979 276.72H480.421C487.601 276.72 493.421 270.9 493.421 263.72V248.106C493.421 240.927 487.601 235.106 480.421 235.106Z" fill="white"/>
<path d="M458.224 263.915C458.224 263.915 456.976 264.641 459.114 264.886C461.704 265.182 463.028 265.14 465.881 264.6C465.881 264.6 466.633 265.07 467.681 265.478C461.282 268.22 453.199 265.319 458.224 263.915ZM457.442 260.336C457.442 260.336 456.042 261.373 458.181 261.594C460.948 261.88 463.133 261.903 466.915 261.175C466.915 261.175 467.437 261.706 468.259 261.995C460.523 264.258 451.907 262.173 457.442 260.336Z" fill="#0074BD"/>
<path d="M464.033 254.266C465.61 256.082 463.619 257.715 463.619 257.715C463.619 257.715 467.622 255.648 465.784 253.06C464.067 250.647 462.75 249.448 469.878 245.314C469.878 245.315 458.689 248.108 464.033 254.266Z" fill="#EA2D2E"/>
<path d="M472.496 266.562C472.496 266.562 473.42 267.324 471.478 267.913C467.786 269.031 456.106 269.368 452.863 267.957C451.697 267.45 453.883 266.746 454.571 266.598C455.289 266.442 455.698 266.471 455.698 266.471C454.401 265.558 447.316 268.264 452.099 269.041C465.145 271.156 475.88 268.088 472.496 266.562ZM458.825 256.628C458.825 256.628 452.885 258.039 456.722 258.552C458.342 258.769 461.571 258.719 464.58 258.467C467.039 258.26 469.506 257.819 469.506 257.819C469.506 257.819 468.64 258.191 468.013 258.619C461.979 260.206 450.326 259.466 453.681 257.844C456.518 256.472 458.825 256.628 458.825 256.628ZM469.481 262.585C475.614 259.399 472.778 256.337 470.799 256.749C470.315 256.85 470.098 256.938 470.098 256.938C470.098 256.938 470.278 256.655 470.622 256.534C474.537 255.158 477.548 260.593 469.359 262.746C469.359 262.746 469.453 262.661 469.481 262.585Z" fill="#0074BD"/>
<path d="M465.784 238.638C465.784 238.638 469.18 242.035 462.563 247.259C457.256 251.45 461.353 253.839 462.561 256.57C459.463 253.775 457.191 251.314 458.715 249.024C460.953 245.664 467.154 244.034 465.784 238.638Z" fill="#EA2D2E"/>
<path d="M459.427 271.22C465.313 271.596 474.353 271.01 474.567 268.226C474.567 268.226 474.155 269.281 469.702 270.119C464.679 271.064 458.481 270.954 454.807 270.347C454.807 270.348 455.559 270.971 459.427 271.22Z" fill="#0074BD"/>
<path d="M413.096 310.514L378.698 309.092L386.158 296.402L413.632 297.542L413.096 310.514Z" fill="url(#paint6_linear_255_72)"/>
<path d="M411.791 341.952L357.507 339.712L359.075 301.642L413.369 303.882L411.791 341.952Z" fill="url(#paint7_linear_255_72)"/>
<path d="M320.842 269.134H285.399C278.22 269.134 272.399 274.954 272.399 282.134V297.747C272.399 304.927 278.22 310.747 285.399 310.747H320.842C328.022 310.747 333.842 304.927 333.842 297.747V282.134C333.842 274.954 328.022 269.134 320.842 269.134Z" fill="white"/>
<path d="M299.082 292.588L292.468 297.743L289.582 296.306V282.871L292.456 281.423L299.025 286.589L309.427 276.176L316.27 278.902V300.218L309.461 302.989L299.082 292.588ZM309.222 294.401V284.764L302.994 289.588L309.221 294.401L309.222 294.401ZM292.696 292.668L295.969 289.691L292.696 286.429V292.668Z" fill="#0078D7"/>
<path d="M190.289 181.212L180.455 193.336C175.932 198.912 176.786 207.098 182.362 211.621L209.885 233.945C215.462 238.467 223.648 237.613 228.171 232.037L238.005 219.913C242.528 214.337 241.674 206.15 236.098 201.628L208.574 179.304C202.998 174.781 194.811 175.635 190.289 181.212Z" fill="white"/>
<path d="M292.695 145.118L263.361 115.659L280.385 110.526L303.807 134.045L292.695 145.118Z" fill="url(#paint8_linear_255_72)"/>
<path d="M265.777 171.919L219.479 125.436L252.074 92.9766L298.373 139.46L265.777 171.919Z" fill="url(#paint9_linear_255_72)"/>
<path d="M401.225 50.0745C405.328 55.9655 403.88 64.0675 397.989 68.1715L364.16 91.74C358.269 95.844 350.167 94.3959 346.062 88.5056L334.895 72.4799C330.79 66.5886 332.239 58.4847 338.131 54.3805L371.965 30.8128C377.857 26.709 385.959 28.1583 390.063 34.0497L401.225 50.0745Z" fill="#F7DF1E"/>
<path d="M390.055 63.6158C390.561 62.6438 391.755 62.3407 392.843 62.4711C393.731 62.5774 394.643 62.4009 395.587 61.7993C396.997 60.9015 397.462 59.6113 396.832 58.6219C396.112 57.4911 394.926 57.6507 392.925 57.9315L391.855 58.1168C388.713 58.6279 386.282 58.3882 384.526 55.6321C382.906 53.0879 383.548 49.8971 386.577 47.9669C388.264 46.892 389.869 46.522 391.579 47.0108C392.495 47.2725 392.822 48.3361 392.427 49.203C391.982 50.1836 390.772 50.4041 389.698 50.4888C389.282 50.5216 388.882 50.6712 388.468 50.9351C387.482 51.5635 387.253 52.6035 387.793 53.4516C388.423 54.441 389.328 54.461 391.212 54.1544L392.283 53.9691C395.982 53.4007 398.368 53.5697 400.214 56.4672C402.15 59.5061 400.835 62.7284 397.594 64.7933C395.175 66.3345 392.861 66.5937 390.903 66.0302C389.889 65.7386 389.567 64.5511 390.055 63.6158ZM378.266 71.4001C378.774 70.4875 379.865 70.2789 380.891 70.4741C381.399 70.5707 381.914 70.5106 382.482 70.1486C383.609 69.4304 384.044 68.5575 382.963 66.8614L376.564 56.8168C375.971 55.8852 376.249 54.6462 377.181 54.0527C378.112 53.4592 379.353 53.7305 379.946 54.6621L386.255 64.5654C388.506 68.0989 387.453 70.9555 384.424 72.8857C382.431 74.1553 380.594 74.2802 379.028 73.7944C378.038 73.4875 377.762 72.305 378.266 71.4001Z" fill="black"/>
<path d="M448.518 89.2943L435.437 112.244C431.882 118.481 434.057 126.42 440.294 129.976L484.946 155.426C491.184 158.981 499.122 156.807 502.678 150.569L515.758 127.62C519.314 121.382 517.139 113.443 510.901 109.888L466.25 84.4375C460.012 80.8822 452.073 83.0567 448.518 89.2943Z" fill="white"/>
<path d="M468.468 133.209C468.338 133.128 468.239 133.018 468.165 132.887L467.447 131.481C467.334 131.277 467.442 131.296 467.504 131.311C467.786 131.378 467.84 131.388 468.168 131.399C468.204 131.398 468.233 131.428 468.248 131.462L468.797 132.544C468.821 132.583 468.864 132.61 468.901 132.608L473.59 132.746C473.636 132.751 473.675 132.726 473.702 132.683L476.198 128.665C476.225 128.621 476.229 128.576 476.206 128.537L474.012 124.381C473.989 124.342 473.946 124.315 473.909 124.316L469.225 124.169C469.18 124.165 469.135 124.198 469.113 124.233L466.617 128.251C466.595 128.286 466.586 128.34 466.609 128.379L467.208 129.516C467.554 130.095 468.062 129.99 468.252 129.685L470.715 125.719C470.748 125.667 470.824 125.642 470.884 125.679L471.323 125.954C471.375 125.987 471.4 126.063 471.362 126.124L468.898 130.089C468.47 130.778 467.85 130.947 467.204 130.542C467.006 130.418 466.851 130.321 466.547 129.828L465.967 128.739C465.824 128.468 465.837 128.138 466 127.877L468.496 123.859C468.659 123.597 468.948 123.439 469.253 123.449L473.943 123.587C474.234 123.6 474.527 123.783 474.667 124.04L476.855 128.205C476.998 128.476 476.984 128.806 476.822 129.067L474.325 133.085C474.163 133.347 473.873 133.505 473.568 133.495L468.878 133.357C468.734 133.339 468.588 133.284 468.468 133.209L468.468 133.209ZM471.244 131.109C469.736 130.166 469.859 129.274 470.227 128.682C470.26 128.629 470.335 128.604 470.396 128.642L470.844 128.922C470.895 128.955 470.917 129.016 470.884 129.069C470.666 129.574 470.724 129.924 471.637 130.496C472.361 130.949 472.775 130.977 473.018 130.585C473.159 130.359 473.176 130.139 472.117 129.319C471.237 128.636 470.781 128.06 471.252 127.302C471.691 126.596 472.537 126.544 473.519 127.159C474.622 127.849 474.927 128.572 474.476 129.452C474.46 129.478 474.435 129.499 474.402 129.514C474.374 129.521 474.337 129.522 474.311 129.506L473.863 129.225C473.82 129.198 473.798 129.137 473.817 129.088C474.011 128.544 473.842 128.22 473.135 127.777C472.342 127.281 472.074 127.501 471.944 127.71C471.787 127.963 471.85 128.111 472.832 128.919C473.806 129.722 474.181 130.235 473.715 130.985C473.23 131.746 472.339 131.794 471.244 131.109Z" fill="#539E43"/>
<path d="M467.026 110.656C467.125 110.502 467.131 110.303 467.04 110.141L464.657 105.81C464.617 105.738 464.558 105.679 464.493 105.628L464.458 105.607C464.388 105.565 464.301 105.548 464.218 105.546L459.156 105.4C458.966 105.393 458.785 105.486 458.686 105.64L455.094 111.273C455.045 111.35 455.04 111.454 455.088 111.53C455.131 111.615 455.218 111.668 455.307 111.662L458.31 111.758C458.5 111.765 458.681 111.672 458.78 111.517L460.465 108.884C460.564 108.729 460.745 108.636 460.935 108.644L462.214 108.677C462.312 108.676 462.402 108.706 462.481 108.754C462.56 108.801 462.628 108.866 462.662 108.946L463.261 110.043C463.352 110.205 463.347 110.403 463.248 110.558L461.563 113.191C461.464 113.346 461.458 113.544 461.55 113.706L462.971 116.272C463.014 116.357 463.102 116.41 463.2 116.409C463.292 116.417 463.385 116.366 463.435 116.289L467.026 110.656ZM489.875 113.671C489.827 113.594 489.739 113.541 489.655 113.538C489.558 113.539 489.47 113.581 489.42 113.659L485.853 119.235C485.82 119.286 485.761 119.322 485.686 119.324C485.617 119.318 485.564 119.287 485.528 119.229L484.932 118.146C484.888 118.067 484.824 118.001 484.745 117.954C484.667 117.907 484.577 117.88 484.484 117.877L479.417 117.74C479.227 117.733 479.046 117.826 478.947 117.98L476.263 122.175C476.165 122.329 476.159 122.528 476.25 122.69L478.628 127.03C478.672 127.109 478.736 127.175 478.815 127.223C478.893 127.27 478.983 127.296 479.076 127.299L484.143 127.436C484.332 127.444 484.514 127.351 484.612 127.196L491.303 116.739C491.408 116.576 491.413 116.378 491.322 116.216L489.875 113.671L489.875 113.671ZM482.704 124.136C482.677 124.179 482.637 124.203 482.591 124.199L480.857 124.154C480.834 124.152 480.812 124.144 480.792 124.132C480.772 124.12 480.755 124.104 480.743 124.085L479.931 122.599C479.907 122.561 479.917 122.507 479.939 122.473L480.861 121.032C480.888 120.989 480.928 120.965 480.974 120.969L482.708 121.014C482.731 121.016 482.754 121.024 482.773 121.035C482.793 121.047 482.81 121.064 482.822 121.083L483.634 122.569C483.658 122.607 483.648 122.661 483.626 122.695L482.704 124.136ZM496.378 130.317C496.568 130.324 496.74 130.226 496.839 130.071L497.492 129.05C497.591 128.896 497.597 128.697 497.514 128.541L495.158 124.225C495.114 124.146 495.049 124.08 494.971 124.032C494.892 123.985 494.802 123.959 494.71 123.956L489.643 123.819C489.453 123.811 489.272 123.904 489.173 124.059L486.489 128.254C486.39 128.408 486.385 128.607 486.476 128.768L488.854 133.05C488.946 133.212 489.112 133.312 489.293 133.314L492.311 133.442C492.404 133.45 492.497 133.399 492.546 133.322C492.596 133.245 492.601 133.141 492.553 133.065L490.158 128.714C490.115 128.629 490.115 128.534 490.164 128.457L491.004 127.144C491.054 127.067 491.147 127.016 491.239 127.024L492.824 127.074C492.871 127.074 492.918 127.086 492.959 127.111C492.999 127.135 493.031 127.17 493.052 127.212L493.803 128.566C493.845 128.651 493.845 128.746 493.796 128.823L493.137 129.853C493.088 129.93 493.082 130.033 493.131 130.11C493.173 130.195 493.261 130.248 493.359 130.247L496.378 130.317Z" fill="#333333"/>
<path d="M492.84 127.58C492.858 127.58 492.876 127.585 492.892 127.594C492.907 127.604 492.919 127.618 492.926 127.634L493.37 128.481C493.385 128.515 493.386 128.552 493.364 128.587L492.856 129.406C492.834 129.441 492.801 129.457 492.764 129.458L491.812 129.431C491.794 129.432 491.776 129.427 491.761 129.417C491.745 129.408 491.733 129.394 491.726 129.377L491.282 128.53C491.267 128.497 491.266 128.46 491.288 128.425L491.796 127.605C491.818 127.57 491.851 127.555 491.888 127.553L492.84 127.58Z" fill="#539E43"/>
<mask id="mask0_255_72" style="mask-type:alpha" maskUnits="userSpaceOnUse" x="466" y="111" width="12" height="11">
<path d="M474.776 112.146C474.734 112.066 474.671 111.998 474.594 111.949C474.517 111.9 474.428 111.872 474.338 111.868L469.397 111.678C469.211 111.668 469.041 111.767 468.943 111.922L466.301 116.142C466.204 116.298 466.197 116.5 466.278 116.66L468.581 121.061C468.624 121.142 468.687 121.21 468.764 121.259C468.841 121.307 468.929 121.335 469.02 121.339L473.96 121.53C474.147 121.539 474.317 121.441 474.414 121.285L477.057 117.065C477.154 116.909 477.16 116.708 477.08 116.548L474.776 112.146Z" fill="white"/>
</mask>
<g mask="url(#mask0_255_72)">
<path d="M474.776 112.144C474.733 112.063 474.67 111.995 474.593 111.946C474.516 111.898 474.428 111.87 474.337 111.866L469.397 111.679C469.21 111.67 469.041 111.768 468.943 111.924L466.301 116.146C466.204 116.303 466.198 116.504 466.278 116.664L468.582 121.064C468.625 121.145 468.688 121.213 468.765 121.261C468.842 121.31 468.93 121.338 469.021 121.342L473.962 121.528C474.148 121.538 474.318 121.439 474.416 121.283L477.057 117.061C477.155 116.905 477.161 116.703 477.081 116.544L474.776 112.144Z" fill="url(#paint10_linear_255_72)"/>
<path d="M477.087 116.552L474.767 112.139C474.742 112.098 474.714 112.06 474.682 112.025L466.203 116.479C466.211 116.542 466.229 116.603 466.258 116.66L468.578 121.073C468.644 121.199 468.753 121.293 468.887 121.329L477.127 116.699C477.123 116.648 477.105 116.6 477.087 116.553L477.087 116.552Z" fill="url(#paint11_linear_255_72)"/>
<path fill-rule="evenodd" clip-rule="evenodd" d="M473.98 121.538C474.121 121.543 474.264 121.488 474.368 121.397L474.674 111.999C474.581 111.916 474.464 111.854 474.332 111.854L469.408 111.664L468.824 121.296C468.886 121.323 468.952 121.34 469.019 121.348L473.98 121.538L473.98 121.538Z" fill="url(#paint12_linear_255_72)"/>
<path fill-rule="evenodd" clip-rule="evenodd" d="M474.185 121.575L469.18 121.376C469.112 121.369 469.045 121.352 468.982 121.324L468.969 121.496L474.528 121.704L474.561 121.653L474.567 121.418C474.472 121.526 474.328 121.58 474.185 121.575Z" fill="url(#paint13_linear_255_72)"/>
<path fill-rule="evenodd" clip-rule="evenodd" d="M474.185 121.575L469.18 121.376C469.112 121.369 469.045 121.352 468.982 121.324L468.969 121.496L474.528 121.704L474.561 121.653L474.567 121.418C474.472 121.526 474.328 121.58 474.185 121.575Z" fill="url(#paint14_linear_255_72)"/>
</g>
<path d="M261.367 528.537C261.367 528.537 252.008 541.237 220.23 540.467C197.071 539.912 174.116 522.382 174.116 522.382C174.116 522.382 213.412 496.33 261.367 528.537Z" fill="#00759F"/>
<path d="M260.871 529.862C260.871 529.862 241.705 531.927 216.13 502.701C197.49 481.392 194.296 446.244 194.296 446.244C194.296 446.244 250.226 460.093 260.871 529.862Z" fill="#005CB4"/>
<path d="M260.003 529.346C260.003 529.346 242.532 521.195 235.783 482.95C230.855 455.078 246.32 423.339 246.32 423.339C246.32 423.339 286.999 464.135 260.003 529.346Z" fill="#741AAC"/>
<path d="M505.713 518.253C505.713 518.253 515.072 530.953 546.85 530.183C570.009 529.628 592.963 512.098 592.963 512.098C592.963 512.098 553.667 486.056 505.713 518.253Z" fill="#00759F"/>
<path d="M506.21 519.588C506.21 519.588 525.376 521.653 550.95 492.427C569.59 471.118 572.785 435.971 572.785 435.971C572.785 435.971 516.855 449.819 506.21 519.588Z" fill="#005CB4"/>
<path d="M507.076 519.072C507.076 519.072 524.548 510.92 531.297 472.676C536.225 444.803 520.759 413.064 520.759 413.064C520.759 413.064 480.08 453.86 507.076 519.072Z" fill="#741AAC"/>
<path d="M516.747 528.245C516.747 533.991 512.092 538.646 506.346 538.646H261.852C256.106 538.646 251.451 533.991 251.451 528.245V373.63C251.451 367.884 256.106 363.229 261.852 363.229H506.346C512.092 363.229 516.747 367.884 516.747 373.63V528.245Z" fill="black"/>
<path d="M502.294 376.815H265.026V525.937H502.294V376.815Z" fill="url(#paint15_linear_255_72)"/>
<path d="M546.226 538.938H221.679V545.005H546.226V538.938Z" fill="url(#paint16_linear_255_72)"/>
<path d="M221.679 545.006C221.679 545.006 226.587 552.806 241.624 552.806C256.651 552.806 527.157 552.806 527.157 552.806C527.157 552.806 536.692 554.54 546.236 545.006H221.679Z" fill="black"/>
<path d="M502.703 384.149H265.026V402.39H502.703V384.149Z" fill="url(#paint17_linear_255_72)"/>
<path d="M470.536 393.43C470.536 395.875 468.559 397.852 466.114 397.852H308.218C305.774 397.852 303.797 395.875 303.797 393.43C303.797 390.986 305.774 389.009 308.218 389.009H466.124C468.559 389.009 470.536 390.995 470.536 393.43Z" fill="white"/>
<path d="M502.275 376.815H265.026V384.158H502.275V376.815Z" fill="url(#paint18_linear_255_72)"/>
<path d="M164.152 548.599C193.938 548.599 218.085 545.05 218.085 540.672C218.085 536.293 193.938 532.744 164.152 532.744C134.365 532.744 110.218 536.293 110.218 540.672C110.218 545.05 134.365 548.599 164.152 548.599Z" fill="url(#paint19_linear_255_72)"/>
<path d="M180.786 362.849L173.599 394.422C173.404 395.279 173.989 396.126 174.855 396.253L197.235 399.467C198.014 399.574 198.745 399.077 198.92 398.308L206.107 366.735C206.302 365.878 205.728 365.03 204.851 364.904L182.471 361.69C181.702 361.573 180.962 362.08 180.786 362.849Z" fill="black"/>
<path d="M182.188 363.872L175.303 394.101L197.517 397.295L204.402 367.056L182.188 363.872Z" fill="url(#paint20_linear_255_72)"/>
<path d="M202.055 369.287L183.172 366.57" stroke="#A1D2F0" stroke-width="1.481" stroke-linecap="round" stroke-linejoin="round"/>
<path d="M201.413 372.141L182.539 369.434" stroke="#A1D2F0" stroke-width="1.481" stroke-linecap="round" stroke-linejoin="round"/>
<path d="M193.554 374.517L181.76 372.822" stroke="#A1D2F0" stroke-width="1.481" stroke-linecap="round" stroke-linejoin="round"/>
<path d="M192.717 376.97L180.913 375.275" stroke="#A1D2F0" stroke-width="1.481" stroke-linecap="round" stroke-linejoin="round"/>
<path d="M191.879 379.425L180.075 377.73" stroke="#A1D2F0" stroke-width="1.481" stroke-linecap="round" stroke-linejoin="round"/>
<path d="M196.203 393.001L184.409 391.307" stroke="#A1D2F0" stroke-width="1.481" stroke-linecap="round" stroke-linejoin="round"/>
<path d="M172.177 394.803C173.443 394.209 174.388 393.099 175.284 392.028C176.17 390.966 177.066 389.915 177.952 388.853C178.303 388.434 178.673 387.977 178.712 387.431C177.222 387.314 176.258 389.243 174.768 389.36C175.459 386.905 176.462 384.539 177.728 382.328C178.04 381.793 178.371 381.16 178.157 380.575C176.55 381.189 175.187 382.338 174.018 383.594C173.19 384.48 172.44 385.435 171.778 386.448C169.811 389.428 168.593 392.846 167.766 396.313" fill="url(#paint21_linear_255_72)"/>
<path d="M165.809 439.357L158.865 455.3C161.797 460.248 163.491 466.091 163.715 472.012C163.832 475.09 163.559 478.167 163.647 481.245C163.657 481.459 163.686 481.693 163.744 481.917C164.679 477.359 165.371 473.6 165.643 471.146C166.403 464.289 166.403 453.401 166.169 439.338C166.043 439.348 165.926 439.338 165.809 439.357Z" fill="#F2A181"/>
<path d="M165.76 420.241L149.778 406.762C149.778 406.762 142.338 416.852 145.143 426.581C146.526 431.363 148.249 433.739 148.999 436.008C149.7 438.131 154.511 468.146 154.151 470.347C153.791 472.538 151.21 478.684 150.226 485.14C149.145 492.24 149.214 513.997 148.532 522.8H148.522C148.522 522.8 147.977 529.364 147.198 530.796C146.418 532.228 145.337 533.825 145.143 535.773C145.036 536.893 145.659 538.09 146.954 538.753C148.249 539.415 149.116 538.723 149.574 538.782C152.281 539.113 152.758 541.168 157.404 541.928C158.836 542.161 161.027 541.684 162.283 540.691C162.77 540.301 162.751 539.678 162.478 539.249C162.205 538.821 158.777 537.642 157.229 536.659C155.758 535.714 154.317 533.104 153.917 532.208C153.81 531.974 153.839 531.332 153.927 530.504C154.141 529.102 154.375 527.641 154.628 526.131C154.833 525.06 154.998 524.271 154.998 524.271L154.95 524.261C158.329 505.144 164.63 479.872 165.604 471.165C166.705 461.446 166.266 443.682 165.76 420.241Z" fill="url(#paint22_linear_255_72)"/>
<path d="M162.663 541.012C163.003 540.438 163.091 539.561 162.77 539.347C162.331 539.045 160.783 538.023 159.877 537.604C158.971 537.195 157.55 536.825 158.056 537.097C158.562 537.37 157.637 538.383 156.79 538.334C153.878 538.159 151.736 536.221 150.07 535.802C147.674 535.208 146.671 532.374 146.564 531.917C146.106 532.199 145.055 534.478 144.85 535.198C144.655 535.841 144.315 537.029 144.5 537.701C144.626 538.169 144.909 539.103 144.763 540.087C144.763 540.087 145.23 540.447 146.486 540.71C147.275 540.876 148.337 540.74 148.337 540.74L148.541 539.24C148.541 539.24 149.194 539.22 150.022 539.386C150.849 539.561 152.203 540.35 152.281 540.438C152.612 540.837 152.875 541.558 153.323 541.782C154.482 542.366 155.66 542.648 157.141 542.736C160.267 542.911 162.088 542.006 162.663 541.012Z" fill="black"/>
<path d="M187.584 540.72C187.243 540.34 183.542 539.737 181.799 539.016C180.143 538.324 178.137 536.104 177.747 535.159C177.358 534.215 177.445 529.443 177.494 527.436C177.845 513.617 180.396 479.862 180.766 471.769C181.409 457.716 179.588 443.214 174.173 420.649L154.043 405.194C154.043 405.194 148.404 415.673 150.293 425.694C151.394 431.508 156.215 432.404 157.033 434.664C157.851 436.923 170.024 473.356 170.024 473.356C170.024 473.356 167.658 481.235 167.512 489.864C167.395 497.226 170.735 519.45 171.359 527.914C171.427 529.569 171.719 533.533 171.232 534.789C170.638 536.338 169.109 538.149 169.187 540.097C169.226 541.227 170.044 542.308 171.475 542.746C172.897 543.184 173.696 542.366 174.183 542.347C177.027 542.23 177.806 544.177 182.704 544.177C184.214 544.177 186.405 543.34 187.564 542.152C188.032 541.714 187.924 541.1 187.584 540.72Z" fill="url(#paint23_linear_255_72)"/>
<path d="M188.003 542.453C188.266 541.82 188.237 540.944 187.876 540.788C187.38 540.564 185.636 539.804 184.643 539.541C183.659 539.278 182.13 539.152 182.685 539.337C183.241 539.522 182.432 540.681 181.556 540.768C178.527 541.07 176.044 539.502 174.271 539.366C171.72 539.161 170.775 536.541 170.609 536.103C170.181 536.463 168.925 538.879 168.798 539.629C168.691 540.301 168.506 541.528 168.788 542.161C168.983 542.599 169.411 543.476 169.402 544.479C169.402 544.479 169.937 544.761 171.262 544.81C172.099 544.839 173.18 544.537 173.18 544.537V543.018C173.18 543.018 173.852 542.891 174.729 542.921C175.605 542.95 176.696 543.398 177.222 543.807C177.641 544.119 178.079 544.645 178.566 544.771C179.988 545.132 181.001 545.229 182.539 545.073C185.792 544.713 187.545 543.525 188.003 542.453Z" fill="black"/>
<path d="M150.206 405.067C148.843 406.567 143.973 414.68 143.915 421.292C143.866 427.896 146.213 432.132 146.427 433.515C147.976 443.605 149.466 455.769 149.466 456.431C149.466 457.093 155.192 460.911 162.896 460.424C177.124 459.528 182.656 455.798 182.656 455.798C182.656 455.798 181.984 431.363 179.783 419.306C178.683 413.267 173.901 403.548 173.901 403.548" fill="url(#paint24_linear_255_72)"/>
<path d="M137.226 378.675C137.226 378.675 139.514 390.06 140.118 392.086C140.722 394.112 143.692 406.977 146.516 406.753C149.331 406.529 164.767 393.644 164.767 393.644L162.586 389.271L149 395.748C149 395.748 147.773 381.042 146.692 377.536" fill="white"/>
<path d="M142.474 385.688C143.915 390.771 146.856 396.128 147.742 400.072C147.918 400.861 157.325 397.442 157.355 393.907" fill="url(#paint25_linear_255_72)"/>
<path d="M141.266 372.053C141.266 372.053 140.769 381.568 142.493 386.369C144.197 386.34 145.687 385.95 145.687 385.95L141.266 372.053Z" fill="#B03D44"/>
<path d="M167.96 333.039C170.677 336.554 170.142 341.511 169.47 345.904C169.129 348.124 168.788 350.345 168.457 352.565C168.301 353.617 168.087 354.776 167.259 355.458C166.431 356.139 165.243 356.13 164.172 356.091C164.182 357.931 164.191 359.772 164.201 361.613C161.055 361.691 157.91 361.7 154.764 361.652C154.764 360.366 154.482 359.081 153.946 357.902C152.407 357.873 151.375 356.324 150.771 354.912C150.08 353.276 149.573 351.572 149.077 349.867C148.424 347.598 147.801 345.3 147.742 342.943C147.684 340.586 148.239 338.142 149.739 336.321C150.761 335.084 152.144 334.198 153.576 333.457C155.524 332.445 157.871 331.636 159.887 332.522" fill="white"/>
<path d="M165.214 341.113C165.457 341.503 165.399 342.019 165.633 342.418C166.022 343.09 166.538 343.324 167.24 343.655C168.369 344.181 168.106 345.827 168.077 346.567C168.934 346.002 169.071 344.454 169.275 343.675C169.509 342.798 169.655 341.892 169.908 341.016C170.161 340.168 170.59 339.36 170.668 338.474C170.94 335.386 169.002 331.754 166.665 330.02C164.961 328.754 162.36 328.813 160.432 330.098C159.624 330.634 159.01 331.452 158.65 332.367C158.494 332.757 158.387 333.215 158.582 333.585" fill="black"/>
<path d="M150.07 362.937C150.226 361.856 150.518 360.6 151.521 360.181C151.804 360.064 152.106 360.025 152.408 359.996C155.475 359.655 158.563 359.509 161.65 359.558C162.926 359.577 164.25 359.646 165.39 360.21C167.181 361.106 168.165 363.034 169.032 364.845" fill="url(#paint26_linear_255_72)"/>
<path d="M175.012 383.584C175.012 384.587 174.447 385.94 174.272 386.466C173.571 386.827 170.785 387.43 169.188 386.7C168.837 383.369 166.89 376.971 166.89 376.971C166.89 376.971 175.012 382.649 175.012 383.584Z" fill="#B03D44"/>
<path d="M171.438 381.266C171.438 381.266 180.66 403.549 184.653 403.549C187.565 403.549 194.694 382.98 194.694 382.98L190.185 380.848L185.16 389.466L180.066 373.397" fill="white"/>
<path d="M189.298 382.377C189.298 382.377 190.788 380.02 190.681 378.354C190.642 377.721 190.262 374.692 190.574 374.098C190.885 373.504 191.645 371.556 192.083 371.177C192.512 370.797 194.119 370.193 194.508 370.456C194.898 370.729 195.385 369.482 196.037 369.589C196.69 369.696 197.225 370.242 197.225 370.836C197.225 371.43 198.092 371.537 198.199 371.975C198.306 372.404 198.258 372.784 198.413 373.115C198.579 373.436 199.056 373.28 199.222 374.089C199.378 374.829 199.163 374.907 199.222 375.277C199.28 375.657 199.602 375.618 199.494 376.338C199.387 377.059 198.891 377.994 198.462 378.812C198.034 379.621 197.138 380.643 195.95 381.354C195.365 381.705 195.044 382.328 194.479 383.38" fill="white"/>
<path d="M191.773 365.158C191.656 364.983 191.344 364.681 190.974 364.944C190.604 365.207 190.721 365.645 190.799 365.83C190.877 366.005 193.526 371.995 193.526 371.995C193.526 371.995 193.75 372.248 194.168 371.878C194.626 371.478 194.48 371.274 194.48 371.274C194.48 371.274 191.89 365.334 191.773 365.158Z" fill="black"/>
<path d="M194.644 370.874C194.128 371.8 193.525 372.101 192.979 372.608C192.551 373.007 192.609 373.26 192.142 373.669C192.96 373.611 192.823 373.124 193.885 372.355C194.382 372.004 194.888 371.615 194.985 371.011C195.015 370.806 194.771 370.699 194.644 370.874Z" fill="black"/>
<path d="M175.021 385.318C177.991 384.772 180.29 382.708 182.656 380.302C181.341 376.679 179.481 367.759 176.228 364.36C172.878 360.854 167.21 361.282 164.182 361.39C161.046 361.253 158.455 361.623 154.696 361.789C152.203 361.896 149.71 362.188 147.255 362.733C146.973 362.792 146.7 362.86 146.428 362.928L146.418 362.899C146.418 362.899 141.909 363.376 139.63 365.129C133.806 369.59 138.315 385.766 138.315 385.766C138.315 385.766 138.033 386.632 141.938 386.408C142.6 386.369 143.243 386.301 143.857 386.223C145.892 390.995 151.015 400.831 149.515 402.935C149.125 403.48 148.151 404.522 148.034 405.204C147.606 407.707 153.255 408.583 155.679 408.788C159.361 409.09 163.597 408.885 167.288 408.72C170.093 408.583 176.209 407.609 176.647 404.152C176.735 403.471 176.394 402.925 176.063 402.428C175.634 401.795 174.641 401.036 174.29 400.335C173.433 398.66 172.693 391.599 172.985 389.797C173.229 388.366 174.213 387.421 175.021 385.318Z" fill="url(#paint27_linear_255_72)"/>
<path d="M165.622 460.199C164.716 454.336 159.097 436.164 158.863 435.657C155.805 433.291 153.789 430.837 152.767 428.86C152.075 432.843 153.896 436.787 155.591 440.449C158.561 446.857 160.324 453.82 162.885 460.403" fill="url(#paint28_linear_255_72)"/>
<path d="M164.708 349.809C164.338 347.958 164.367 346.916 164.971 345.689C165.175 345.28 165.438 344.9 165.798 344.647C166.285 344.306 166.938 344.238 167.483 344.472C167.834 344.628 168.126 344.91 168.331 345.261C168.973 342.777 169.11 340.128 168.925 337.557C168.632 333.467 166.169 330.302 162.565 328.831C155.904 326.095 146.33 328.802 143.623 335.337C141.578 340.274 142.62 347.413 146.525 351.552C149.992 355.223 154.969 355.759 159.575 355C161.932 354.61 165.565 354.844 166.782 351.649C166.879 351.406 166.665 351.153 166.412 351.172C165.438 351.231 164.776 350.15 164.708 349.809Z" fill="black"/>
<path d="M151.706 352.692C149.787 352.146 147.713 353.227 146.437 354.766C144.957 356.539 144.314 359.285 145.697 361.136C146.213 361.827 146.943 362.314 147.703 362.733C149.992 364.009 152.699 364.759 155.241 364.136C157.783 363.512 160.013 361.233 159.984 358.613C159.955 356.247 158.231 354.269 156.478 352.662" fill="black"/>
<path d="M666.462 337.538C666.462 338.59 665.586 339.447 664.505 339.447C663.424 339.447 662.547 338.59 662.547 337.538C662.547 336.487 663.424 335.63 664.505 335.63C665.586 335.63 666.462 336.487 666.462 337.538ZM700.11 364.35C700.11 365.401 699.233 366.258 698.152 366.258C697.071 366.258 696.195 365.401 696.195 364.35C696.195 363.298 697.071 362.441 698.152 362.441C699.233 362.451 700.11 363.298 700.11 364.35ZM517 310.747C517 311.799 516.124 312.656 515.042 312.656C513.961 312.656 513.085 311.799 513.085 310.747C513.085 309.695 513.961 308.838 515.042 308.838C516.124 308.838 517 309.695 517 310.747ZM438.135 333.205C438.135 334.256 437.258 335.113 436.177 335.113C435.096 335.113 434.22 334.256 434.22 333.205C434.22 332.153 435.096 331.296 436.177 331.296C437.258 331.306 438.135 332.153 438.135 333.205ZM525.862 409.723C525.862 410.775 524.986 411.632 523.905 411.632C522.824 411.632 521.947 410.775 521.947 409.723C521.947 408.671 522.824 407.814 523.905 407.814C524.986 407.814 525.862 408.671 525.862 409.723ZM679.473 413.512C679.473 414.563 678.597 415.42 677.516 415.42C676.435 415.42 675.558 414.563 675.558 413.512C675.558 412.46 676.435 411.603 677.516 411.603C678.597 411.612 679.473 412.46 679.473 413.512Z" fill="white"/>
<path d="M658.233 539.357C658.233 545.317 634.032 550.157 604.173 550.157C574.313 550.157 550.112 545.327 550.112 539.357C550.112 533.397 574.313 528.557 604.173 528.557C634.032 528.557 658.233 533.397 658.233 539.357Z" fill="url(#paint29_linear_255_72)"/>
<path d="M586.38 358.945L593.547 390.441C593.742 391.298 593.168 392.145 592.291 392.262L569.979 395.466C569.2 395.573 568.47 395.077 568.295 394.307L561.127 362.812C560.932 361.955 561.507 361.107 562.383 360.981L584.695 357.777C585.474 357.679 586.204 358.176 586.38 358.945Z" fill="black"/>
<path d="M584.988 359.958L591.844 390.11L569.688 393.295L562.822 363.143L584.988 359.958Z" fill="url(#paint30_linear_255_72)"/>
<path d="M565.17 365.363L584.005 362.655" stroke="#A1D2F0" stroke-width="1.436" stroke-linecap="round" stroke-linejoin="round"/>
<path d="M565.804 368.216L584.639 365.509" stroke="#A1D2F0" stroke-width="1.436" stroke-linecap="round" stroke-linejoin="round"/>
<path d="M573.644 370.573L585.418 368.889" stroke="#A1D2F0" stroke-width="1.436" stroke-linecap="round" stroke-linejoin="round"/>
<path d="M574.48 373.028L586.255 371.333" stroke="#A1D2F0" stroke-width="1.436" stroke-linecap="round" stroke-linejoin="round"/>
<path d="M575.318 375.473L587.093 373.787" stroke="#A1D2F0" stroke-width="1.436" stroke-linecap="round" stroke-linejoin="round"/>
<path d="M571.004 389.009L582.768 387.325" stroke="#A1D2F0" stroke-width="1.436" stroke-linecap="round" stroke-linejoin="round"/>
<path d="M594.969 390.81C593.702 390.216 592.768 389.115 591.862 388.044C590.976 386.992 590.089 385.931 589.203 384.879C588.852 384.46 588.482 384.002 588.443 383.467C589.933 383.35 590.888 385.278 592.378 385.385C591.686 382.941 590.693 380.574 589.427 378.373C589.115 377.838 588.784 377.204 588.998 376.63C590.605 377.243 591.959 378.383 593.128 379.649C593.946 380.535 594.696 381.49 595.368 382.493C597.325 385.463 598.543 388.872 599.371 392.329" fill="black"/>
<path d="M601.319 435.249L608.253 451.153C605.331 456.091 603.637 461.915 603.413 467.817C603.296 470.885 603.569 473.962 603.481 477.03C603.471 477.244 603.442 477.478 603.384 477.702C602.458 473.154 601.767 469.404 601.494 466.96C600.735 460.123 600.735 449.264 600.978 435.24C601.085 435.24 601.202 435.23 601.319 435.249Z" fill="#F2A181"/>
<path d="M601.358 416.18L617.291 402.74C617.291 402.74 624.712 412.8 621.917 422.5C620.544 427.272 618.82 429.639 618.07 431.898C617.369 434.012 612.577 463.949 612.938 466.14C613.298 468.332 615.869 474.457 616.853 480.895C617.934 487.975 617.856 509.673 618.538 518.457H618.547C618.547 518.457 619.093 525.002 619.862 526.434C620.631 527.865 621.722 529.462 621.907 531.391C622.024 532.511 621.391 533.699 620.106 534.361C618.82 535.023 617.953 534.332 617.486 534.39C614.788 534.721 614.301 536.767 609.675 537.526C608.244 537.76 606.062 537.283 604.806 536.289C604.319 535.91 604.338 535.286 604.611 534.858C604.884 534.429 608.302 533.261 609.841 532.267C611.311 531.323 612.743 528.722 613.152 527.826C613.249 527.593 613.23 526.95 613.142 526.132C612.938 524.729 612.694 523.268 612.441 521.769C612.236 520.697 612.071 519.918 612.071 519.918L612.12 519.909C608.74 500.84 602.459 475.645 601.494 466.958C600.423 457.278 600.861 439.563 601.358 416.18Z" fill="black"/>
<path d="M604.456 536.629C604.115 536.055 604.027 535.178 604.349 534.964C604.787 534.672 606.335 533.639 607.231 533.23C608.127 532.821 609.549 532.451 609.052 532.724C608.556 532.997 609.471 534.009 610.319 533.961C613.221 533.785 615.363 531.857 617.019 531.438C619.405 530.844 620.408 528.02 620.515 527.562C620.963 527.845 622.015 530.124 622.229 530.835C622.424 531.477 622.765 532.656 622.58 533.328C622.453 533.795 622.171 534.73 622.317 535.704C622.317 535.704 621.849 536.064 620.603 536.327C619.814 536.493 618.752 536.356 618.752 536.356L618.548 534.857C618.548 534.857 617.895 534.837 617.068 535.003C616.24 535.178 614.896 535.957 614.808 536.055C614.477 536.454 614.214 537.174 613.776 537.389C612.617 537.973 611.448 538.255 609.968 538.343C606.851 538.518 605.03 537.613 604.456 536.629Z" fill="black"/>
<path d="M579.601 536.338C579.942 535.959 583.633 535.365 585.367 534.634C587.013 533.943 589.009 531.732 589.399 530.787C589.788 529.852 589.701 525.08 589.652 523.084C589.311 509.303 586.759 475.636 586.389 467.572C585.747 453.558 587.568 439.086 592.963 416.589L613.045 401.183C613.045 401.183 618.664 411.632 616.784 421.634C615.694 427.429 610.883 428.325 610.064 430.584C609.256 432.834 597.102 469.179 597.102 469.179C597.102 469.179 599.469 477.039 599.605 485.648C599.722 492.991 596.391 515.156 595.768 523.6C595.7 525.246 595.408 529.2 595.894 530.456C596.489 531.995 598.008 533.806 597.93 535.754C597.891 536.884 597.073 537.955 595.651 538.403C594.229 538.841 593.431 538.023 592.944 538.004C590.11 537.887 589.33 539.835 584.442 539.835C582.932 539.835 580.751 539.007 579.592 537.819C579.153 537.332 579.261 536.718 579.601 536.338Z" fill="black"/>
<path d="M579.184 538.062C578.921 537.439 578.95 536.562 579.31 536.397C579.797 536.173 581.55 535.413 582.534 535.15C583.518 534.887 585.037 534.761 584.482 534.946C583.927 535.131 584.735 536.29 585.611 536.368C588.63 536.669 591.114 535.111 592.877 534.975C595.418 534.771 596.363 532.151 596.529 531.723C596.957 532.083 598.213 534.498 598.33 535.238C598.437 535.91 598.622 537.127 598.34 537.76C598.145 538.198 597.717 539.075 597.726 540.068C597.726 540.068 597.191 540.35 595.866 540.399C595.029 540.428 593.958 540.126 593.958 540.126V538.607C593.958 538.607 593.286 538.481 592.409 538.51C591.533 538.539 590.452 538.987 589.916 539.386C589.497 539.698 589.069 540.224 588.572 540.35C587.16 540.711 586.147 540.808 584.608 540.652C581.385 540.321 579.642 539.133 579.184 538.062Z" fill="black"/>
<path d="M616.883 401.046C618.246 402.546 623.106 410.639 623.155 417.222C623.203 423.806 620.866 428.032 620.652 429.406C619.113 439.466 625.55 490.127 625.55 490.79C625.55 491.452 617.36 498.074 609.715 498.951C592.915 500.869 577.08 493.672 577.08 493.672C577.08 493.672 579.963 454.795 587.384 415.245C588.513 409.227 593.256 399.527 593.256 399.527" fill="url(#paint31_linear_255_72)"/>
<path d="M629.825 374.731C629.825 374.731 627.536 386.087 626.942 388.113C626.338 390.139 623.378 402.965 620.563 402.741C617.749 402.517 602.361 389.661 602.361 389.661L604.543 385.298L618.099 391.755C618.099 391.755 619.326 377.088 620.398 373.592" fill="black"/>
<path d="M625.793 368.119C625.793 368.119 626.29 377.605 624.566 382.396C622.872 382.367 621.382 381.977 621.382 381.977L625.793 368.119Z" fill="#B03D44"/>
<path d="M599.167 329.212C596.46 332.718 596.995 337.656 597.667 342.038C598.008 344.249 598.339 346.47 598.68 348.69C598.836 349.742 599.05 350.891 599.878 351.573C600.706 352.254 601.884 352.245 602.956 352.196C602.946 354.027 602.936 355.867 602.926 357.698C606.062 357.776 609.198 357.786 612.344 357.737C612.344 356.452 612.626 355.166 613.152 353.998C614.691 353.968 615.714 352.43 616.317 351.018C617.009 349.391 617.515 347.687 618.002 345.983C618.655 343.723 619.278 341.425 619.337 339.078C619.395 336.731 618.84 334.286 617.35 332.475C616.327 331.238 614.944 330.362 613.522 329.622C611.575 328.609 609.237 327.8 607.231 328.696" fill="white"/>
<path d="M601.903 337.257C601.66 337.646 601.718 338.162 601.485 338.562C601.095 339.224 600.579 339.467 599.878 339.789C598.748 340.315 599.011 341.951 599.05 342.691C598.203 342.126 598.066 340.587 597.852 339.798C597.618 338.922 597.472 338.016 597.219 337.149C596.966 336.302 596.537 335.504 596.459 334.608C596.187 331.52 598.115 327.907 600.452 326.174C602.157 324.917 604.747 324.966 606.675 326.252C607.484 326.787 608.097 327.605 608.448 328.511C608.604 328.901 608.711 329.349 608.516 329.719" fill="black"/>
<path d="M617.008 359.023C616.853 357.952 616.56 356.696 615.557 356.277C615.285 356.16 614.973 356.121 614.671 356.092C611.613 355.751 608.526 355.605 605.448 355.654C604.173 355.673 602.858 355.741 601.719 356.306C599.927 357.202 598.943 359.13 598.086 360.932" fill="url(#paint32_linear_255_72)"/>
<path d="M592.145 379.619C592.145 380.622 592.709 381.966 592.885 382.502C593.586 382.862 596.361 383.456 597.959 382.735C598.309 379.414 600.247 373.035 600.247 373.035C600.247 373.035 592.145 378.694 592.145 379.619Z" fill="#B03D44"/>
<path d="M595.71 377.303C595.71 377.303 586.516 399.527 582.523 399.527C579.621 399.527 572.502 379.017 572.502 379.017L577.001 376.884L582.017 385.474L587.091 369.453" fill="black"/>
<path d="M577.898 378.413C577.898 378.413 576.408 376.066 576.515 374.4C576.554 373.767 576.934 370.748 576.622 370.154C576.31 369.56 575.551 367.612 575.122 367.242C574.694 366.862 573.096 366.258 572.697 366.531C572.307 366.804 571.821 365.557 571.168 365.664C570.525 365.771 569.98 366.317 569.98 366.911C569.98 367.505 569.113 367.612 569.006 368.041C568.899 368.469 568.948 368.849 568.792 369.17C568.626 369.492 568.149 369.336 567.983 370.144C567.828 370.884 568.042 370.953 567.983 371.332C567.935 371.712 567.604 371.673 567.711 372.394C567.818 373.115 568.314 374.05 568.743 374.858C569.172 375.666 570.068 376.679 571.256 377.4C571.84 377.751 572.161 378.374 572.717 379.416" fill="black"/>
<path d="M575.424 361.243C575.541 361.068 575.852 360.776 576.223 361.029C576.593 361.282 576.476 361.73 576.398 361.915C576.32 362.091 573.681 368.07 573.681 368.07C573.681 368.07 573.457 368.323 573.038 367.953C572.58 367.554 572.726 367.35 572.726 367.35C572.726 367.35 575.307 361.419 575.424 361.243Z" fill="white"/>
<path d="M572.56 366.95C573.076 367.875 573.68 368.167 574.215 368.673C574.634 369.072 574.586 369.325 575.053 369.734C574.235 369.676 574.371 369.189 573.32 368.43C572.833 368.079 572.316 367.69 572.229 367.086C572.19 366.881 572.433 366.774 572.56 366.95Z" fill="black"/>
<path d="M592.126 381.354C589.165 380.809 586.867 378.754 584.51 376.349C585.815 372.735 587.675 363.834 590.918 360.445C594.258 356.949 599.907 357.377 602.936 357.484C606.062 357.348 608.643 357.718 612.392 357.884C614.885 357.991 617.369 358.283 619.813 358.819C620.096 358.877 620.368 358.945 620.641 359.013L620.651 358.984C620.651 358.984 625.14 359.461 627.419 361.205C633.223 365.655 628.734 381.783 628.734 381.783C628.734 381.783 629.016 382.64 625.121 382.426C624.459 382.387 623.816 382.328 623.212 382.241C621.186 387.003 616.083 396.81 617.563 398.904C617.953 399.449 618.917 400.491 619.034 401.163C619.462 403.656 613.824 404.533 611.408 404.737C607.727 405.039 603.51 404.835 599.829 404.659C597.034 404.523 590.928 403.549 590.499 400.102C590.412 399.42 590.752 398.875 591.083 398.388C591.512 397.755 592.496 396.995 592.856 396.303C593.703 394.628 594.453 387.587 594.161 385.795C593.917 384.393 592.944 383.448 592.126 381.354Z" fill="#A600A9"/>
<path d="M602.419 345.943C602.789 344.103 602.759 343.061 602.156 341.833C601.951 341.424 601.688 341.045 601.328 340.791C600.841 340.451 600.188 340.382 599.653 340.616C599.302 340.772 599.01 341.054 598.805 341.405C598.163 338.931 598.036 336.292 598.211 333.721C598.504 329.641 600.968 326.485 604.551 325.015C611.193 322.288 620.747 324.986 623.445 331.511C625.48 336.438 624.448 343.547 620.543 347.677C617.085 351.338 612.118 351.874 607.531 351.114C605.184 350.725 601.562 350.959 600.344 347.764C600.247 347.521 600.461 347.268 600.714 347.287C601.688 347.355 602.35 346.274 602.419 345.943Z" fill="black"/>
<path d="M615.382 348.816C617.3 348.271 619.365 349.352 620.641 350.881C622.111 352.643 622.754 355.39 621.371 357.23C620.855 357.922 620.125 358.409 619.375 358.827C617.096 360.093 614.389 360.843 611.856 360.22C609.324 359.597 607.094 357.328 607.123 354.718C607.153 352.361 608.876 350.384 610.62 348.787" fill="black"/>
<path d="M601.329 340.782C601.329 340.782 603.276 340.801 600.735 347.287C598.193 353.774 597.949 366.006 597.949 366.006C597.949 366.006 604.913 368.889 614.272 368.645C623.631 368.402 624.595 368.402 624.829 367.681C625.072 366.96 630.828 331.929 618.109 325.93" fill="black"/>
<path opacity="0.1" d="M635.901 438.939H714.095C718.341 436.748 721.253 432.297 721.253 427.165C721.253 420.523 716.374 415.021 710.024 414.076C710.034 413.862 710.043 413.648 710.043 413.424C710.043 405.652 703.616 399.351 695.688 399.351C694.86 399.351 694.052 399.419 693.253 399.556C689.835 393.625 683.164 389.603 675.5 389.603C666.569 389.603 658.992 395.066 656.333 402.643C655.496 402.477 654.629 402.38 653.753 402.38C646.137 402.38 639.962 408.934 639.962 417.017C639.962 417.923 640.04 418.819 640.186 419.676C634.421 420.046 629.863 424.458 629.863 429.853C629.863 433.817 632.317 437.245 635.901 438.939Z" fill="white"/>
<defs>
<linearGradient id="paint0_linear_255_72" x1="305.954" y1="408.261" x2="391.929" y2="198.379" gradientUnits="userSpaceOnUse">
<stop stop-color="#7700BB"/>
<stop offset="1"/>
</linearGradient>
<linearGradient id="paint1_linear_255_72" x1="108.449" y1="294.196" x2="106.689" y2="383.374" gradientUnits="userSpaceOnUse">
<stop stop-color="#88CFDA"/>
<stop offset="0.00834" stop-color="#89CFD9"/>
<stop offset="0.4784" stop-color="#C8D9BB"/>
<stop offset="0.8218" stop-color="#F0DFA7"/>
<stop offset="1" stop-color="#FFE1A0"/>
</linearGradient>
<linearGradient id="paint2_linear_255_72" x1="379.374" y1="591.276" x2="379.374" y2="517.68" gradientUnits="userSpaceOnUse">
<stop stop-color="#7700BB"/>
<stop offset="0.1178" stop-color="#6300B3"/>
<stop offset="0.3928" stop-color="#3800A2"/>
<stop offset="0.6413" stop-color="#190095"/>
<stop offset="0.852" stop-color="#07008E"/>
<stop offset="1"/>
</linearGradient>
<linearGradient id="paint3_linear_255_72" x1="379.551" y1="1.75276" x2="379.551" y2="262.245" gradientUnits="userSpaceOnUse">
<stop stop-color="#7633FF"/>
<stop offset="0.1585" stop-color="#7137FF"/>
<stop offset="0.3535" stop-color="#6243FF"/>
<stop offset="0.5676" stop-color="#4957FF"/>
<stop offset="0.7937" stop-color="#2672FF"/>
<stop offset="1" stop-color="#0090FF"/>
</linearGradient>
<linearGradient id="paint4_linear_255_72" x1="561.38" y1="192.948" x2="564.752" y2="159.73" gradientUnits="userSpaceOnUse">
<stop stop-color="#E19000"/>
<stop offset="0.2072" stop-color="#E39504"/>
<stop offset="0.462" stop-color="#E9A410"/>
<stop offset="0.7405" stop-color="#F3BD23"/>
<stop offset="1" stop-color="#FFDB3B"/>
</linearGradient>
<linearGradient id="paint5_linear_255_72" x1="561.257" y1="227.14" x2="567.385" y2="166.773" gradientUnits="userSpaceOnUse">
<stop stop-color="#E19000"/>
<stop offset="0.2072" stop-color="#E39504"/>
<stop offset="0.462" stop-color="#E9A410"/>
<stop offset="0.7405" stop-color="#F3BD23"/>
<stop offset="1" stop-color="#FFDB3B"/>
</linearGradient>
<linearGradient id="paint6_linear_255_72" x1="385.53" y1="305.585" x2="400.643" y2="291.614" gradientUnits="userSpaceOnUse">
<stop stop-color="#E19000"/>
<stop offset="0.2072" stop-color="#E39504"/>
<stop offset="0.462" stop-color="#E9A410"/>
<stop offset="0.7405" stop-color="#F3BD23"/>
<stop offset="1" stop-color="#FFDB3B"/>
</linearGradient>
<linearGradient id="paint7_linear_255_72" x1="361.447" y1="333.344" x2="398.829" y2="298.788" gradientUnits="userSpaceOnUse">
<stop stop-color="#E19000"/>
<stop offset="0.2072" stop-color="#E39504"/>
<stop offset="0.462" stop-color="#E9A410"/>
<stop offset="0.7405" stop-color="#F3BD23"/>
<stop offset="1" stop-color="#FFDB3B"/>
</linearGradient>
<linearGradient id="paint8_linear_255_72" x1="263.359" y1="127.821" x2="303.807" y2="127.821" gradientUnits="userSpaceOnUse">
<stop stop-color="#E19000"/>
<stop offset="0.2072" stop-color="#E39504"/>
<stop offset="0.462" stop-color="#E9A410"/>
<stop offset="0.7405" stop-color="#F3BD23"/>
<stop offset="1" stop-color="#FFDB3B"/>
</linearGradient>
<linearGradient id="paint9_linear_255_72" x1="219.479" y1="132.447" x2="298.375" y2="132.447" gradientUnits="userSpaceOnUse">
<stop stop-color="#E19000"/>
<stop offset="0.2072" stop-color="#E39504"/>
<stop offset="0.462" stop-color="#E9A410"/>
<stop offset="0.7405" stop-color="#F3BD23"/>
<stop offset="1" stop-color="#FFDB3B"/>
</linearGradient>
<linearGradient id="paint10_linear_255_72" x1="475.05" y1="114.51" x2="467.124" y2="118.234" gradientUnits="userSpaceOnUse">
<stop stop-color="#41873F"/>
<stop offset="0.3288" stop-color="#418B3D"/>
<stop offset="0.6352" stop-color="#419637"/>
<stop offset="0.9319" stop-color="#3FA92D"/>
<stop offset="1" stop-color="#3FAE2A"/>
</linearGradient>
<linearGradient id="paint11_linear_255_72" x1="470.821" y1="116.75" x2="484.164" y2="117.61" gradientUnits="userSpaceOnUse">
<stop offset="0.1376" stop-color="#41873F"/>
<stop offset="0.4032" stop-color="#54A044"/>
<stop offset="0.7136" stop-color="#66B848"/>
<stop offset="0.9081" stop-color="#6CC04A"/>
</linearGradient>
<linearGradient id="paint12_linear_255_72" x1="467.496" y1="113.946" x2="475.905" y2="119.204" gradientUnits="userSpaceOnUse">
<stop offset="0.09192" stop-color="#6CC04A"/>
<stop offset="0.2864" stop-color="#66B848"/>
<stop offset="0.5968" stop-color="#54A044"/>
<stop offset="0.8624" stop-color="#41873F"/>
</linearGradient>
<linearGradient id="paint13_linear_255_72" x1="465.416" y1="117.527" x2="473.787" y2="122.925" gradientUnits="userSpaceOnUse">
<stop offset="0.09192" stop-color="#6CC04A"/>
<stop offset="0.2864" stop-color="#66B848"/>
<stop offset="0.5968" stop-color="#54A044"/>
<stop offset="0.8624" stop-color="#41873F"/>
</linearGradient>
<linearGradient id="paint14_linear_255_72" x1="479.388" y1="116.916" x2="470.311" y2="126.797" gradientUnits="userSpaceOnUse">
<stop stop-color="#41873F"/>
<stop offset="0.3288" stop-color="#418B3D"/>
<stop offset="0.6352" stop-color="#419637"/>
<stop offset="0.9319" stop-color="#3FA92D"/>
<stop offset="1" stop-color="#3FAE2A"/>
</linearGradient>
<linearGradient id="paint15_linear_255_72" x1="383.663" y1="522.847" x2="383.663" y2="376.483" gradientUnits="userSpaceOnUse">
<stop stop-color="#A1BAFF"/>
<stop offset="0.4332" stop-color="white"/>
</linearGradient>
<linearGradient id="paint16_linear_255_72" x1="383.93" y1="541.969" x2="383.93" y2="541.974" gradientUnits="userSpaceOnUse">
<stop stop-color="#7633FF"/>
<stop offset="0.1585" stop-color="#7137FF"/>
<stop offset="0.3535" stop-color="#6243FF"/>
<stop offset="0.5676" stop-color="#4957FF"/>
<stop offset="0.7937" stop-color="#2672FF"/>
<stop offset="1" stop-color="#0090FF"/>
</linearGradient>
<linearGradient id="paint17_linear_255_72" x1="265.029" y1="393.272" x2="502.706" y2="393.272" gradientUnits="userSpaceOnUse">
<stop stop-color="#7633FF"/>
<stop offset="0.1585" stop-color="#7137FF"/>
<stop offset="0.3535" stop-color="#6243FF"/>
<stop offset="0.5676" stop-color="#4957FF"/>
<stop offset="0.7937" stop-color="#2672FF"/>
<stop offset="1" stop-color="#0090FF"/>
</linearGradient>
<linearGradient id="paint18_linear_255_72" x1="265.029" y1="380.482" x2="502.282" y2="380.482" gradientUnits="userSpaceOnUse">
<stop stop-color="#A1BAFF"/>
<stop offset="0.4332" stop-color="white"/>
</linearGradient>
<linearGradient id="paint19_linear_255_72" x1="110.213" y1="540.673" x2="267.83" y2="540.673" gradientUnits="userSpaceOnUse">
<stop stop-color="#A1BAFF"/>
<stop offset="0.7431" stop-color="white"/>
</linearGradient>
<linearGradient id="paint20_linear_255_72" x1="175.303" y1="380.58" x2="204.404" y2="380.58" gradientUnits="userSpaceOnUse">
<stop stop-color="#7633FF"/>
<stop offset="0.1585" stop-color="#7137FF"/>
<stop offset="0.3535" stop-color="#6243FF"/>
<stop offset="0.5676" stop-color="#4957FF"/>
<stop offset="0.7937" stop-color="#2672FF"/>
<stop offset="1" stop-color="#0090FF"/>
</linearGradient>
<linearGradient id="paint21_linear_255_72" x1="175.871" y1="385.39" x2="163.309" y2="393.366" gradientUnits="userSpaceOnUse">
<stop stop-color="#A1BAFF"/>
<stop offset="0.4332" stop-color="white"/>
</linearGradient>
<linearGradient id="paint22_linear_255_72" x1="155.463" y1="534.953" x2="151.364" y2="436.979" gradientUnits="userSpaceOnUse">
<stop stop-color="#A1BAFF"/>
<stop offset="0.4332" stop-color="white"/>
<stop offset="0.5794" stop-color="#FBFCFF"/>
<stop offset="0.7123" stop-color="#F0F4FF"/>
<stop offset="0.84" stop-color="#DEE7FF"/>
<stop offset="0.9637" stop-color="#C4D4FF"/>
<stop offset="1" stop-color="#BBCDFF"/>
</linearGradient>
<linearGradient id="paint23_linear_255_72" x1="169.057" y1="534.399" x2="164.953" y2="436.414" gradientUnits="userSpaceOnUse">
<stop stop-color="#A1BAFF"/>
<stop offset="0.4332" stop-color="white"/>
<stop offset="0.5794" stop-color="#FBFCFF"/>
<stop offset="0.7123" stop-color="#F0F4FF"/>
<stop offset="0.84" stop-color="#DEE7FF"/>
<stop offset="0.9637" stop-color="#C4D4FF"/>
<stop offset="1" stop-color="#BBCDFF"/>
</linearGradient>
<linearGradient id="paint24_linear_255_72" x1="161.229" y1="408.964" x2="172.042" y2="463.026" gradientUnits="userSpaceOnUse">
<stop stop-color="#311341"/>
<stop offset="0.6346" stop-color="#3113C2"/>
<stop offset="0.6906" stop-color="#2F18C5"/>
<stop offset="0.7595" stop-color="#2927CC"/>
<stop offset="0.8351" stop-color="#1F40D8"/>
<stop offset="0.9155" stop-color="#1263E9"/>
<stop offset="0.999" stop-color="#008FFF"/>
<stop offset="1" stop-color="#0090FF"/>
</linearGradient>
<linearGradient id="paint25_linear_255_72" x1="142.476" y1="392.936" x2="157.351" y2="392.936" gradientUnits="userSpaceOnUse">
<stop stop-color="#A1BAFF"/>
<stop offset="0.4332" stop-color="white"/>
</linearGradient>
<linearGradient id="paint26_linear_255_72" x1="150.072" y1="362.19" x2="169.043" y2="362.19" gradientUnits="userSpaceOnUse">
<stop stop-color="#88CFDA"/>
<stop offset="0.0506" stop-color="#93D1D5"/>
<stop offset="0.2502" stop-color="#BAD7C2"/>
<stop offset="0.4481" stop-color="#D8DBB3"/>
<stop offset="0.6414" stop-color="#EEDEA8"/>
<stop offset="0.8279" stop-color="#FBE0A2"/>
<stop offset="1" stop-color="#FFE1A0"/>
</linearGradient>
<linearGradient id="paint27_linear_255_72" x1="136.656" y1="385.124" x2="182.658" y2="385.124" gradientUnits="userSpaceOnUse">
<stop stop-color="#88CFDA"/>
<stop offset="0.0506" stop-color="#93D1D5"/>
<stop offset="0.2502" stop-color="#BAD7C2"/>
<stop offset="0.4481" stop-color="#D8DBB3"/>
<stop offset="0.6414" stop-color="#EEDEA8"/>
<stop offset="0.8279" stop-color="#FBE0A2"/>
<stop offset="1" stop-color="#FFE1A0"/>
</linearGradient>
<linearGradient id="paint28_linear_255_72" x1="157.859" y1="430.403" x2="174.739" y2="462.865" gradientUnits="userSpaceOnUse">
<stop stop-color="#311341"/>
<stop offset="0.6346" stop-color="#3113C2"/>
<stop offset="0.6906" stop-color="#2F18C5"/>
<stop offset="0.7595" stop-color="#2927CC"/>
<stop offset="0.8351" stop-color="#1F40D8"/>
<stop offset="0.9155" stop-color="#1263E9"/>
<stop offset="0.999" stop-color="#008FFF"/>
<stop offset="1" stop-color="#0090FF"/>
</linearGradient>
<linearGradient id="paint29_linear_255_72" x1="550.114" y1="539.358" x2="708.087" y2="539.358" gradientUnits="userSpaceOnUse">
<stop stop-color="#A1BAFF"/>
<stop offset="0.7431" stop-color="white"/>
</linearGradient>
<linearGradient id="paint30_linear_255_72" x1="591.848" y1="376.627" x2="562.825" y2="376.627" gradientUnits="userSpaceOnUse">
<stop stop-color="#7633FF"/>
<stop offset="0.1585" stop-color="#7137FF"/>
<stop offset="0.3535" stop-color="#6243FF"/>
<stop offset="0.5676" stop-color="#4957FF"/>
<stop offset="0.7937" stop-color="#2672FF"/>
<stop offset="1" stop-color="#0090FF"/>
</linearGradient>
<linearGradient id="paint31_linear_255_72" x1="604.539" y1="410.464" x2="585.881" y2="503.76" gradientUnits="userSpaceOnUse">
<stop stop-color="#3822D1"/>
<stop offset="0.1652" stop-color="#3527D3"/>
<stop offset="0.3684" stop-color="#2E36DA"/>
<stop offset="0.5916" stop-color="#214FE4"/>
<stop offset="0.8272" stop-color="#0F72F2"/>
<stop offset="1" stop-color="#0090FF"/>
</linearGradient>
<linearGradient id="paint32_linear_255_72" x1="617.012" y1="358.286" x2="598.092" y2="358.286" gradientUnits="userSpaceOnUse">
<stop stop-color="#88CFDA"/>
<stop offset="0.0506" stop-color="#93D1D5"/>
<stop offset="0.2502" stop-color="#BAD7C2"/>
<stop offset="0.4481" stop-color="#D8DBB3"/>
<stop offset="0.6414" stop-color="#EEDEA8"/>
<stop offset="0.8279" stop-color="#FBE0A2"/>
<stop offset="1" stop-color="#FFE1A0"/>
</linearGradient>
</defs>
</svg>
